<?xml version="1.0" encoding="UTF-8" standalone="no"?>
<!-- Created with Inkscape (http://www.inkscape.org/) -->

<svg
   width="115.31089mm"
   height="211.8241mm"
   viewBox="0 0 115.31089 211.8241"
   version="1.1"
   id="svg1"
   inkscape:version="1.3 (0e150ed6c4, 2023-07-21)"
   sodipodi:docname="difficulties.svg"
   xmlns:inkscape="http://www.inkscape.org/namespaces/inkscape"
   xmlns:sodipodi="http://sodipodi.sourceforge.net/DTD/sodipodi-0.dtd"
   xmlns:xlink="http://www.w3.org/1999/xlink"
   xmlns="http://www.w3.org/2000/svg"
   xmlns:svg="http://www.w3.org/2000/svg">
  <sodipodi:namedview
     id="namedview1"
     pagecolor="#ffffff"
     bordercolor="#666666"
     borderopacity="1.0"
     inkscape:showpageshadow="2"
     inkscape:pageopacity="0.0"
     inkscape:pagecheckerboard="0"
     inkscape:deskcolor="#d1d1d1"
     inkscape:document-units="mm"
     inkscape:zoom="1.0218084"
     inkscape:cx="396.84545"
     inkscape:cy="561.25984"
     inkscape:window-width="2400"
     inkscape:window-height="1271"
     inkscape:window-x="3191"
     inkscape:window-y="-9"
     inkscape:window-maximized="1"
     inkscape:current-layer="layer1" />
  <defs
     id="defs1">
    <linearGradient
       id="linearGradient46"
       inkscape:collect="always">
      <stop
         style="stop-color:#ffccaa;stop-opacity:1"
         offset="0"
         id="stop46" />
      <stop
         style="stop-color:#ff9955;stop-opacity:1"
         offset="1"
         id="stop47" />
    </linearGradient>
    <radialGradient
       inkscape:collect="always"
       xlink:href="#linearGradient46"
       id="radialGradient47"
       cx="97.963394"
       cy="129.28772"
       fx="97.963394"
       fy="129.28772"
       r="57.655468"
       gradientTransform="matrix(0.00512532,2.3949919,-1.8369775,0.00393116,457.9547,-130.73296)"
       gradientUnits="userSpaceOnUse" />
  </defs>
  <g
     inkscape:label="Layer 1"
     inkscape:groupmode="layer"
     id="layer1"
     transform="translate(-167.30393,-23.562644)">
    <path
       d="m 191.61018,27.328344 c -0.066,0.161702 -0.15382,0.315843 -0.27699,0.446485 -0.13258,0.140625 -0.29825,0.257483 -0.49712,0.339514 -0.19888,0.08203 -0.43092,0.129191 -0.69609,0.129191 -0.29375,-0.0023 -0.58659,0.002 -0.88005,5.17e-4 -0.0314,0.0062 -0.0657,0.0304 -0.0966,0.03462 -0.16622,0.0227 -0.31861,-0.0044 -0.4687,-0.03411 -0.35923,10e-5 -0.7191,-0.0061 -1.07797,5.17e-4 -0.84005,0.0156 -1.67908,0.05394 -2.51768,0.140043 -1.005,0.133746 -1.99866,0.328458 -2.98328,0.561206 -0.98461,0.232749 -1.96063,0.503683 -2.93108,0.79065 -0.66791,0.233835 -1.34627,0.461758 -2.00867,0.72657 -0.66239,0.264812 -1.30845,0.566846 -1.91099,0.948263 -0.24419,0.154572 -0.47382,0.331366 -0.71055,0.497127 -0.76526,0.564798 -1.47781,1.19051 -2.14044,1.865519 -0.66263,0.67501 -1.27521,1.399109 -1.83968,2.161626 -0.27391,0.376355 -0.49641,0.760794 -0.68058,1.153934 -0.18417,0.39314 -0.32974,0.795263 -0.4501,1.206128 -0.24072,0.821731 -0.37984,1.679863 -0.5209,2.578138 -0.19434,1.334789 -0.36265,2.672022 -0.50643,4.012158 -0.14378,1.340135 -0.26302,2.68307 -0.36018,4.028178 -0.10096,1.601267 -0.16423,3.20415 -0.20206,4.807975 -0.0378,1.603825 -0.0505,3.208554 -0.0501,4.812626 0.0299,2.762641 0.12832,5.523936 0.19379,8.285799 0.0672,3.041967 0.0776,6.084521 0.0853,9.127092 0.0174,3.797145 -0.0611,7.593917 -0.11266,11.39052 -0.056,4.14277 -0.0847,8.28575 -0.0388,12.42869 0.0137,1.8912 0.0488,3.78161 0.11472,5.67098 0.0659,1.88936 0.1626,3.77744 0.29973,5.66373 0.29986,3.34744 0.6269,6.69232 0.84387,10.04642 0.1066,1.93693 0.16764,3.87533 0.20516,5.81463 0.0375,1.9393 0.0515,3.87941 0.0641,5.81877 0.0135,1.67446 -0.0107,3.34811 -0.0677,5.02088 -0.057,1.67277 -0.14658,3.34459 -0.26252,5.01468 -0.14454,1.54622 -0.24468,3.09513 -0.32349,4.64519 -0.0788,1.55007 -0.13617,3.10131 -0.19482,4.65243 -0.15091,3.93289 -0.18714,7.86864 -0.21291,11.80393 -0.0212,4.35521 -0.0198,8.71064 -0.0196,13.06587 5e-4,3.40668 0.002,6.81337 0.002,10.22005 -0.0183,2.88601 0.0609,5.77166 0.17002,8.65529 0.0416,1.50357 0.12392,3.00416 0.23306,4.50308 0.10913,1.49892 0.24546,2.99611 0.39481,4.49223 0.13227,1.36988 0.30042,2.73461 0.50798,4.09329 0.20755,1.35869 0.45416,2.71136 0.7431,4.0566 0.54648,2.24126 1.18485,4.46013 1.87689,6.66058 0.2215,0.75335 0.47611,1.49389 0.7705,2.21795 0.29438,0.72407 0.62812,1.43163 1.00769,2.11874 0.1366,0.24415 0.29224,0.46975 0.46302,0.67902 0.17078,0.20928 0.3569,0.4023 0.55552,0.58291 0.39724,0.36123 0.84358,0.67162 1.31413,0.9555 0.66918,0.37454 1.36784,0.68602 2.07843,0.96945 0.71058,0.28343 1.4332,0.5387 2.15129,0.79995 1.72624,0.62453 3.48084,1.16753 5.23637,1.70274 1.05483,0.33296 2.11943,0.62624 3.19205,0.8878 1.07263,0.26157 2.15292,0.4912 3.23908,0.69608 1.29825,0.22707 2.60691,0.3728 3.91914,0.47853 1.31223,0.10572 2.62844,0.17153 3.9424,0.23823 2.46805,0.1197 4.93606,0.23055 7.40471,0.33693 2.08117,0.0862 4.15988,0.23028 6.2358,0.39945 2.11888,0.18627 4.23588,0.39277 6.3531,0.59687 2.48142,0.2341 4.96437,0.44725 7.44967,0.63562 2.89464,0.22138 5.78641,0.47432 8.68319,0.66766 1.64383,0.10149 3.28979,0.16185 4.93613,0.19895 1.64635,0.0371 3.29326,0.0508 4.93975,0.0584 1.89265,-0.0196 3.78242,-0.11604 5.66839,-0.26407 1.88598,-0.14803 3.76796,-0.34798 5.64565,-0.57516 1.33337,-0.16602 2.66415,-0.35985 3.98477,-0.6041 1.32062,-0.24424 2.63111,-0.53881 3.92483,-0.90537 0.2888,-0.12319 0.62854,-0.19807 0.95498,-0.30076 0.16322,-0.0513 0.32323,-0.10981 0.4718,-0.18448 0.14858,-0.0747 0.28571,-0.16569 0.4036,-0.28267 0.0473,-0.0469 0.20116,-0.27716 0.22376,-0.31006 0.58617,-0.87384 1.12606,-1.77331 1.63039,-2.69647 0.8378,-1.59494 1.69535,-3.17941 2.53989,-4.77077 0.7094,-1.29423 1.38915,-2.60293 2.03916,-3.92638 0.65001,-1.32344 1.2704,-2.66165 1.86138,-4.01371 0.35765,-0.86945 0.68533,-1.74916 0.99219,-2.63653 0.30686,-0.88736 0.59256,-1.78244 0.86506,-2.68149 0.545,-1.79809 1.03793,-3.61295 1.54409,-5.42034 0.5107,-1.718 0.93925,-3.45461 1.29346,-5.20588 0.35422,-1.75128 0.6341,-3.51762 0.84802,-5.29529 0.16895,-1.60997 0.25476,-3.2251 0.30075,-4.84208 0.046,-1.61698 0.0519,-3.23555 0.0605,-4.85242 -0.0179,-2.1176 -0.012,-4.23446 0.0176,-6.35103 0.0296,-2.11657 0.0831,-4.23279 0.16072,-6.34897 0.11215,-2.34134 0.22113,-4.68253 0.31006,-7.02437 0.0889,-2.34185 0.15771,-4.68458 0.19016,-7.02852 0.0115,-1.83315 0.008,-3.66779 -0.0341,-5.50147 -0.0422,-1.83367 -0.12317,-3.66616 -0.26665,-5.49475 -0.16547,-2.10876 -0.31929,-3.19807 -0.57206,-5.29477 -0.15226,-1.16992 -0.32801,-2.3358 -0.52297,-3.49849 -0.19495,-1.1627 -0.40902,-2.32215 -0.63717,-3.47886 -0.45629,-2.31342 -0.9696,-4.61644 -1.50171,-6.91328 -0.43074,-1.82057 -0.84458,-3.64499 -1.2268,-5.47615 -0.38223,-1.83115 -0.73285,-3.66899 -1.0356,-5.51542 -0.24611,-1.61076 -0.4356,-3.2284 -0.59531,-4.84932 -0.1597,-1.62092 -0.28952,-3.24485 -0.416,-4.86844 -0.19718,-3.41717 -0.43311,-6.83195 -0.6568,-10.24743 -0.26399,-3.82208 -0.55702,-7.64162 -0.76068,-11.467516 -0.14748,-3.483721 -0.27629,-6.967941 -0.45992,-10.450008 -0.16468,-3.108287 -0.37001,-6.213594 -0.63769,-9.314677 -0.15871,-1.826684 -0.3661,-3.647264 -0.60875,-5.463233 -0.24264,-1.815968 -0.52077,-3.627358 -0.82165,-5.435327 -0.21098,-1.181551 -0.40881,-2.366378 -0.62787,-3.54707 -0.21905,-1.180692 -0.45916,-2.356823 -0.75499,-3.521232 -0.32849,-1.29292 -0.44156,-1.58265 -0.83974,-2.826184 -0.36893,-1.085216 -0.77571,-2.156739 -1.20768,-3.217892 -0.43197,-1.061152 -0.88919,-2.112167 -1.35909,-3.156913 -0.37182,-0.807214 -0.73698,-1.617629 -1.12396,-2.416907 -0.38699,-0.799278 -0.79588,-1.587384 -1.25368,-2.350244 -0.21037,-0.337326 -0.44262,-0.655767 -0.69194,-0.958598 -0.24932,-0.302831 -0.5155,-0.589924 -0.79427,-0.86558 -0.55754,-0.551311 -1.16443,-1.055497 -1.78284,-1.542025 -0.38212,-0.292873 -0.78106,-0.555685 -1.19217,-0.794783 -0.41111,-0.239099 -0.83437,-0.454655 -1.26607,-0.654224 -0.86341,-0.399138 -1.7597,-0.733393 -2.65514,-1.059883 -0.79442,-0.300143 -1.59939,-0.563261 -2.41174,-0.797368 -0.81234,-0.234106 -1.63228,-0.439473 -2.45721,-0.624768 -1.64988,-0.37059 -3.31956,-0.660789 -4.98781,-0.939477 -1.94771,-0.335935 -3.90656,-0.57936 -5.87096,-0.772046 -1.9644,-0.192687 -3.93441,-0.334599 -5.90403,-0.467672 -1.72161,-0.122281 -3.44528,-0.202472 -5.16971,-0.266134 -1.72444,-0.06366 -3.44973,-0.110647 -5.17436,-0.165364 -1.45093,-0.07694 -2.90075,-0.104472 -4.34961,-0.08217 -1.44886,0.02231 -2.89631,0.09421 -4.3434,0.216008 -1.63013,0.169214 -3.25344,0.395209 -4.87361,0.640271 -1.62016,0.245062 -3.23765,0.509233 -4.85706,0.756543 -1.05951,0.161397 -2.12232,0.29589 -3.18792,0.404626 -1.06561,0.108737 -2.13351,0.192041 -3.20343,0.250114 -0.62259,0.03211 -1.2463,0.04549 -1.86965,0.03979 -0.46787,0.02386 -0.93384,0.08712 -1.39991,0.135909 -0.72659,0.07906 -1.44952,0.187134 -2.173,0.290422 -0.52393,0.07166 -1.03328,0.20396 -1.53375,0.366385 -0.14471,0.04696 -0.28501,0.10687 -0.4284,0.15813 z"
       style="fill:url(#radialGradient47);fill-opacity:1;stroke:#000000;stroke-linejoin:round;paint-order:markers fill stroke"
       id="path45" />
  </g>
</svg>
