<?xml version="1.0" encoding="UTF-8" standalone="no"?>
<!-- Created with Inkscape (http://www.inkscape.org/) -->

<svg
   width="385.46616mm"
   height="113.69706mm"
   viewBox="0 0 385.46616 113.69706"
   version="1.1"
   id="svg1"
   xmlns:inkscape="http://www.inkscape.org/namespaces/inkscape"
   xmlns:sodipodi="http://sodipodi.sourceforge.net/DTD/sodipodi-0.dtd"
   xmlns:xlink="http://www.w3.org/1999/xlink"
   xmlns="http://www.w3.org/2000/svg"
   xmlns:svg="http://www.w3.org/2000/svg">
  <sodipodi:namedview
     id="namedview1"
     pagecolor="#ffffff"
     bordercolor="#666666"
     borderopacity="1.0"
     inkscape:showpageshadow="2"
     inkscape:pageopacity="0.0"
     inkscape:pagecheckerboard="0"
     inkscape:deskcolor="#d1d1d1"
     inkscape:document-units="mm" />
  <defs
     id="defs1">
    <linearGradient
       id="linearGradient68"
       inkscape:collect="always">
      <stop
         style="stop-color:#f2f2f2;stop-opacity:1;"
         offset="0"
         id="stop67" />
      <stop
         style="stop-color:#ffcc00;stop-opacity:1"
         offset="1"
         id="stop68" />
    </linearGradient>
    <linearGradient
       id="linearGradient66"
       inkscape:collect="always">
      <stop
         style="stop-color:#f2f2f2;stop-opacity:1;"
         offset="0"
         id="stop65" />
      <stop
         style="stop-color:#ffcc00;stop-opacity:1"
         offset="1"
         id="stop66" />
    </linearGradient>
    <linearGradient
       id="linearGradient64"
       inkscape:collect="always">
      <stop
         style="stop-color:#f2f2f2;stop-opacity:1;"
         offset="0"
         id="stop63" />
      <stop
         style="stop-color:#ffcc00;stop-opacity:1"
         offset="1"
         id="stop64" />
    </linearGradient>
    <linearGradient
       id="linearGradient62"
       inkscape:collect="always">
      <stop
         style="stop-color:#f2f2f2;stop-opacity:1;"
         offset="0"
         id="stop61" />
      <stop
         style="stop-color:#ffcc00;stop-opacity:1"
         offset="1"
         id="stop62" />
    </linearGradient>
    <linearGradient
       id="linearGradient56"
       inkscape:collect="always">
      <stop
         style="stop-color:#f2f2f2;stop-opacity:1;"
         offset="0"
         id="stop56" />
      <stop
         style="stop-color:#ffcc00;stop-opacity:1"
         offset="1"
         id="stop57" />
    </linearGradient>
    <radialGradient
       inkscape:collect="always"
       xlink:href="#linearGradient56"
       id="radialGradient57"
       cx="101.12498"
       cy="126.8899"
       fx="101.12498"
       fy="126.8899"
       r="37.001308"
       gradientTransform="matrix(14.929536,-0.15646329,0.03806833,3.6512944,-1413.4545,-320.02553)"
       gradientUnits="userSpaceOnUse" />
    <radialGradient
       inkscape:collect="always"
       xlink:href="#linearGradient68"
       id="radialGradient58"
       cx="101.12498"
       cy="126.67847"
       fx="101.12498"
       fy="126.67847"
       r="37.365837"
       gradientTransform="matrix(14.783896,-0.15429924,0.03769878,3.6156734,-1398.6718,-314.95999)"
       gradientUnits="userSpaceOnUse" />
    <radialGradient
       inkscape:collect="always"
       xlink:href="#linearGradient66"
       id="radialGradient59"
       cx="101.12498"
       cy="126.86597"
       fx="101.12498"
       fy="126.86596"
       r="36.603241"
       gradientTransform="matrix(15.091905,-0.15753915,0.0384848,3.6910033,-1429.926,-324.8671)"
       gradientUnits="userSpaceOnUse" />
    <radialGradient
       inkscape:collect="always"
       xlink:href="#linearGradient64"
       id="radialGradient60"
       cx="101.12497"
       cy="126.90089"
       fx="101.12497"
       fy="126.90089"
       r="37.20277"
       gradientTransform="matrix(14.848688,-0.15585241,0.0378625,3.6315219,-1405.2529,-317.6183)"
       gradientUnits="userSpaceOnUse" />
    <radialGradient
       inkscape:collect="always"
       xlink:href="#linearGradient62"
       id="radialGradient61"
       cx="101.12498"
       cy="127.19603"
       fx="101.12498"
       fy="127.19603"
       r="39.715324"
       gradientTransform="matrix(13.909302,-0.14565938,0.03546785,3.4017769,-1309.9642,-290.49822)"
       gradientUnits="userSpaceOnUse" />
  </defs>
  <g
     inkscape:label="Layer 1"
     inkscape:groupmode="layer"
     id="layer1"
     transform="translate(89.424441,-69.02638)">
    <g
       id="g68">
      <path
         d="m 215.6287,73.619279 a 1.8058423,1.8058423 0 0 1 -0.32298,0.387056 c -0.1445,0.05308 -0.41548,0.135217 -0.66559,0.217558 -7.2e-4,0.0043 -0.001,0.006 -0.002,0.01034 -0.0358,0.21625 -0.0694,0.486174 -0.0992,0.809769 -0.0283,0.306944 -0.0511,0.643509 -0.0698,0.999422 -0.036,0.68547 -0.0525,1.387208 -0.061,1.99161 -0.004,0.300651 -0.006,0.53242 -0.008,0.756543 -9.9e-4,0.10036 -0.002,0.204518 -0.004,0.287321 -9e-4,0.04254 -0.002,0.08759 -0.004,0.131258 -0.002,0.04085 -0.004,0.09727 -0.0109,0.159164 -0.27232,2.283658 -0.46649,4.544623 -0.59893,6.77478 -0.13243,2.230157 -0.20297,4.429557 -0.22789,6.590295 -0.0249,2.160738 -0.004,4.282867 0.046,6.358269 0.0502,2.075396 0.12973,4.104026 0.22273,6.078176 0.0654,1.07531 -0.005,2.64642 -0.0171,3.09077 -2e-5,9e-4 -0.003,0.0823 -0.003,0.0832 -0.0366,1.43883 0.037,2.04059 0.12557,2.45049 a 2.1273861,2.1273861 0 0 1 -0.63407,1.97353 c 0.11433,1.08634 0.2559,2.36924 0.30334,4.57853 0.0357,1.66042 0.0231,3.20472 -0.0372,5.04879 -0.0603,1.84407 -0.16806,3.98787 -0.32246,6.84712 -0.0989,1.8306 -0.18686,3.54241 -0.24392,5.19349 -0.057,1.65107 -0.083,3.24159 -0.0589,4.82967 0.0236,1.55749 0.0943,2.87524 0.185,3.98219 0.0468,0.57054 0.10357,0.93796 0.1571,1.40043 a 2.2280716,2.2280716 0 0 1 0.15658,0.185 c 0.0982,0.53984 0.21159,1.27038 0.29559,2.22726 0.084,0.95688 0.13881,2.14014 0.11989,3.58634 -0.01,0.75141 -0.04,1.64334 -0.10645,2.72542 -0.17858,2.90769 -0.462,5.12202 -0.83871,8.86561 -0.15317,1.5221 -0.2819,2.96882 -0.36329,4.35063 -0.0814,1.38182 -0.11532,2.69886 -0.0796,3.96204 0.0248,0.87743 0.0829,1.65875 0.16381,2.35541 0.0809,0.69666 0.18493,1.30849 0.30128,1.84691 0.23269,1.07685 0.51508,1.86004 0.76533,2.43913 a 2.2280716,2.2280716 0 0 1 -0.11989,1.03353 c 2.60197,0.10448 7.22542,0.30943 13.53974,0.50591 3.51841,0.10949 7.32341,0.20769 11.09131,0.26665 3.7679,0.059 7.49857,0.0787 10.86962,0.0305 0.51246,-0.007 1.07906,0.0161 1.66398,0.0522 0.58539,0.0361 1.2221,0.087 1.8557,0.13642 1.36406,0.10631 2.67274,0.20107 3.95118,0.20567 0.72285,0.003 1.36573,-0.0252 1.93787,-0.0816 0.57214,-0.0565 1.07326,-0.14205 1.51154,-0.25579 0.26477,-0.0687 0.40504,-0.15363 0.60254,-0.23255 a 1.5135297,1.5135297 0 0 1 -0.0372,-0.0279 1.5135297,1.5135297 0 0 1 0.18241,-1.50224 1.5135297,1.5135297 0 0 1 1.39268,-0.59324 c 0.63449,0.0771 1.72536,0.19347 3.28611,0.17983 0.70007,-0.006 1.51468,-0.0387 2.52077,-0.10955 1.77714,-0.12513 3.94826,-0.37194 6.06888,-0.51677 2.37346,-0.14373 4.28753,-0.27356 6.08077,-0.53846 0.87999,-0.13 1.64642,-0.28144 2.33112,-0.45579 0.87079,-0.22174 1.67801,-0.49847 2.40761,-0.85111 0.65244,-0.31535 1.22525,-0.68267 1.72548,-1.11105 0.5229,-0.4478 0.96357,-0.95947 1.33376,-1.5415 0.42165,-0.66293 0.74037,-1.39932 0.97876,-2.18747 0.33343,-1.1024 0.47841,-2.20803 0.54725,-3.05769 a 1.6921652,1.6921652 0 0 1 0.13022,-0.18862 c -0.14267,-0.10603 -0.28993,-0.21811 -0.3886,-0.29559 -0.16461,-0.12925 -0.26535,-0.20769 -0.35864,-0.27543 -0.10781,-0.0783 -0.11941,-0.0776 -0.0687,-0.0527 0.033,0.0162 0.12295,0.0576 0.25838,0.091 0.018,0.004 0.0645,-0.002 0.0853,0.003 a 2.0819153,2.0819153 0 0 1 -1.4087,-0.4222 2.0819153,2.0819153 0 0 1 -0.47956,-2.02623 c 0.0387,-0.12915 0.099,-0.29521 0.19689,-0.47439 0.0857,-0.15687 0.20788,-0.33736 0.38034,-0.51315 0.15691,-0.15994 0.34921,-0.30935 0.57878,-0.42788 0.20997,-0.10841 0.42961,-0.17978 0.64957,-0.21859 0.39124,-0.069 0.7362,-0.0264 0.99425,0.0372 0.22902,0.0565 0.42444,0.13804 0.57723,0.21291 0.0506,0.0248 0.083,0.0546 0.13126,0.0811 0.0623,-0.18207 0.14941,-0.34114 0.2067,-0.52814 0.26637,-0.86938 0.47852,-1.7928 0.63562,-2.7807 0.14009,-0.88092 0.2336,-1.79288 0.28732,-2.74609 0.0537,-0.95321 0.0675,-1.94805 0.0481,-2.99465 -0.0343,-1.85125 -0.18922,-3.82121 -0.34881,-5.87044 -0.1596,-2.04923 -0.32368,-4.17728 -0.37569,-6.3438 -0.11266,-5.02799 0.0114,-9.6015 -0.10129,-14.6296 -0.0386,-1.72774 -0.0175,-3.4741 0.0258,-5.21467 0.0433,-1.74057 0.10871,-3.4756 0.15762,-5.18108 0.0501,-1.74578 0.0827,-3.44581 0.0646,-5.11131 -0.0181,-1.66551 -0.0869,-3.29619 -0.23926,-4.90255 -0.16574,-1.74728 -0.43995,-3.51624 -0.67903,-5.23172 -0.26536,-1.904079 -0.48103,-3.698155 -0.54364,-5.565545 -0.0895,-2.669049 -0.0917,-5.167089 -0.17363,-7.454843 a 1.9325111,1.9325111 0 0 1 -0.22789,0.04031 1.9325111,1.9325111 0 0 1 -1.24282,-1.479496 c -0.0833,-0.471204 -0.14685,-0.96866 -0.24391,-1.855184 -0.0603,-0.5507 -0.1336,-1.249816 -0.22583,-1.884123 -0.0858,-0.590445 -0.19039,-1.146188 -0.32814,-1.62264 -0.066,-0.228124 -0.1351,-0.422755 -0.20619,-0.585494 -0.0714,-0.163523 -0.13834,-0.279724 -0.19431,-0.359668 -0.32297,-0.461357 -0.68794,-0.891967 -1.0914,-1.293978 -0.40347,-0.40201 -0.84541,-0.775583 -1.32189,-1.122412 -0.49581,-0.36091 -1.0269,-0.691242 -1.5875,-0.993738 -0.56059,-0.302495 -1.15062,-0.576891 -1.76371,-0.825272 -0.68798,-0.27872 -1.39913,-0.522473 -2.12287,-0.735356 -0.72374,-0.212883 -1.45988,-0.394757 -2.1978,-0.550354 -1.47583,-0.311193 -2.95851,-0.516746 -4.36149,-0.650089 -1.36341,-0.129583 -2.67702,-0.193196 -3.87108,-0.218592 -1.19406,-0.02539 -2.26883,-0.01212 -3.15536,0.01292 -0.86474,0.02442 -1.69312,0.06393 -2.47272,0.113172 -2.03756,0.12871 -3.83067,0.327573 -5.23534,0.515731 -1.34691,0.180421 -2.27941,0.343629 -2.78381,0.433565 a 1.9844778,1.9844778 0 0 1 -0.22118,0.253731 c -0.43059,0.147623 -0.99578,0.29346 -1.7849,0.37207 -0.54194,0.05399 -1.09098,0.0671 -1.64951,0.06511 -0.53044,-0.0019 -1.03636,-0.01545 -1.46554,-0.01912 -0.33254,-0.0028 -0.58778,-5.64e-4 -0.82373,0.0067 -0.12457,0.0038 -0.24036,0.0087 -0.34933,0.01499 -1.21873,0.143885 -2.43189,0.248894 -3.63854,0.32091 -1.20664,0.07202 -2.40632,0.111279 -3.59719,0.123507 -2.38175,0.02446 -4.72834,-0.05881 -7.0249,-0.201021 -2.36371,-0.146372 -4.81356,-0.367938 -7.19181,-0.607198 -2.37824,-0.239261 -4.68521,-0.496331 -6.76393,-0.712618 -1.71781,-0.178737 -3.29704,-0.31821 -4.8829,-0.452686 z"
         style="fill:url(#radialGradient61);fill-opacity:1;stroke-width:1px"
         id="path46" />
      <path
         d="m 191.52784,73.488021 c -0.43075,0.01955 -0.8012,0.06399 -1.29346,0.06305 -1.09032,-0.0021 -2.36416,-0.05846 -3.96565,-0.185518 -0.24244,-0.01924 -0.48309,-0.03933 -0.71933,-0.05943 -1.71938,-0.14629 -3.78995,-0.369484 -5.67149,-0.392741 -1.61881,-0.007 -3.23931,0.03821 -4.93975,0.12454 -1.70045,0.08633 -3.48115,0.213966 -5.42034,0.371554 -0.89874,0.07303 -1.78298,0.148195 -2.72283,0.227893 -2.20317,0.186825 -5.05223,0.430992 -7.81761,0.559139 -1.77459,0.08187 -3.52683,0.03094 -5.30666,-0.100253 -1.77982,-0.131193 -3.58716,-0.342526 -5.4715,-0.580843 -1.75045,-0.221384 -3.47476,-0.451751 -5.18366,-0.631486 -0.87075,-0.09158 -1.73,-0.109548 -2.59416,-0.166915 -0.0412,0.789132 -0.0448,1.529721 0.032,2.545582 0.0795,1.05133 0.23939,2.390694 0.51522,4.364591 5.5e-4,0.004 0.0155,0.110734 0.016,0.114722 0.1021,0.731981 0.286,1.94634 0.40772,3.364652 0.0609,0.709156 0.10608,1.469126 0.11783,2.245341 0.0117,0.776215 -0.01,1.568901 -0.0832,2.342493 -0.0818,0.862264 -0.22099,1.696351 -0.38964,2.528528 -0.16866,0.832176 -0.36691,1.662111 -0.56689,2.516642 -0.18792,0.802945 -0.35941,1.561106 -0.493,2.29495 -0.13359,0.733845 -0.22937,1.443377 -0.2651,2.150773 -0.003,0.06445 -0.002,0.194288 0.009,0.415996 0.0115,0.217468 0.03,0.47131 0.0517,0.762744 0.0464,0.624527 0.0974,1.316713 0.10387,2.020545 0.007,0.79975 -0.0431,1.58387 -0.21601,2.29185 -0.10515,0.43068 -0.25834,0.84464 -0.47955,1.22318 -0.13036,0.22307 -0.28103,0.4281 -0.45269,0.61288 -0.1754,0.18882 -0.36588,0.33095 -0.55759,0.45941 0.0439,0.48744 0.0956,0.89537 0.12196,1.53634 0.0448,1.08831 0.0547,2.41591 -0.002,4.04626 -0.0562,1.62915 -0.14707,3.00583 -0.31161,5.38417 -0.11857,1.71389 -0.25155,3.58777 -0.28836,5.50199 -0.0184,0.95711 -0.0127,1.92455 0.031,2.88664 0.0437,0.9621 0.12525,1.91914 0.2589,2.85616 0.0887,0.47718 0.20198,1.03364 0.33021,1.6521 0.14961,0.72156 0.27718,1.32497 0.40308,1.95182 0.0929,0.46271 0.16621,0.84674 0.22221,1.16685 0.0442,0.25267 0.082,0.48952 0.11368,0.70848 0.046,0.31789 0.0779,0.58937 0.0987,0.82321 0.0309,0.34712 0.0357,0.58537 0.0357,0.76481 a 2.133882,2.133882 0 0 1 -0.38292,0.66353 c -0.003,0.54986 0.008,0.95394 -0.0109,1.63917 -0.039,1.43245 -0.12054,3.17473 -0.27544,5.28598 -0.23497,3.20274 -0.8636,8.74023 -1.36994,14.5371 -0.17186,1.96758 -0.30952,3.87339 -0.39377,5.73402 -0.0843,1.86063 -0.11493,3.67625 -0.0724,5.46375 0.0298,1.24962 0.0945,2.39916 0.18345,3.45457 0.089,1.0554 0.20229,2.0167 0.3297,2.89026 0.23839,1.6346 0.52594,2.90404 0.79426,3.9641 0.50031,0.0173 1.00036,0.0352 1.57975,0.0558 1.69305,0.0604 3.52499,0.1203 5.33559,0.14211 2.05238,0.0247 3.76155,-0.004 5.09478,-0.0966 0.79369,-0.0549 1.37664,-0.12668 1.79783,-0.20412 0.2495,-0.0459 0.42374,-0.0906 0.54156,-0.12712 0.14347,-0.0445 0.18572,-0.0733 0.15917,-0.0574 a 1.6531901,1.6531901 0 0 1 1.65313,-0.0279 1.6531901,1.6531901 0 0 1 0.36793,0.61289 1.7798589,1.7798589 0 0 1 0.11576,-0.061 c 1.55811,0.0626 3.31946,0.10653 5.59552,0.10283 2.27606,-0.004 5.06697,-0.0551 8.68474,-0.18345 1.58933,-0.0564 2.92664,-0.11035 5.01262,-0.19275 2.47978,-0.098 5.61122,-0.2279 9.00668,-0.28629 1.69774,-0.0292 3.46184,-0.0404 5.24309,-0.0207 1.78126,0.0197 3.57963,0.0702 5.34748,0.16485 1.6617,0.089 3.33413,0.31615 4.76664,0.49041 1.36329,0.16583 1.94415,0.16366 2.73161,0.20877 a 1.6499422,1.6499422 0 0 1 1.05627,-0.57102 c 1.37871,0.0388 4.31434,0.14154 7.24503,0.24494 -0.26474,-0.70704 -0.5376,-1.39212 -0.75085,-2.37815 -0.14621,-0.67601 -0.2731,-1.42539 -0.37052,-2.25877 -0.0974,-0.83339 -0.16567,-1.75103 -0.19431,-2.76314 -0.04,-1.41426 -0.001,-2.86651 0.0858,-4.34961 0.0872,-1.48309 0.22298,-2.99699 0.37776,-4.53512 0.38741,-3.84983 0.65328,-5.90027 0.82476,-8.69249 0.0622,-1.01295 0.0893,-1.83365 0.0982,-2.51096 0.0169,-1.28921 -0.0314,-2.32228 -0.10284,-3.13624 -0.0714,-0.81397 -0.16575,-1.40849 -0.24081,-1.82108 a 2.2280716,2.2280716 0 0 1 0.55191,-1.54151 c -0.0194,-0.20594 -0.0434,-0.32658 -0.0615,-0.54725 -0.097,-1.18333 -0.17201,-2.58157 -0.19689,-4.22249 -0.0251,-1.65755 0.002,-3.31116 0.061,-5.00744 0.0585,-1.69628 0.14827,-3.43479 0.24702,-5.26325 0.15426,-2.85667 0.26001,-4.97005 0.31884,-6.76547 0.0588,-1.79543 0.0708,-3.27289 0.0367,-4.85966 -0.0548,-2.55345 -0.23582,-4.30711 -0.34623,-5.24102 a 1.7960985,1.7960985 0 0 1 0.17828,-0.41444 2.1273861,2.1273861 0 0 1 -0.0692,-0.076 c -0.0888,-0.41086 -0.16237,-0.86324 -0.20463,-1.4242 -0.0423,-0.56097 -0.0528,-1.23013 -0.0155,-2.07481 10e-4,-0.0306 0.003,-0.0613 0.004,-0.092 0.03,-0.63753 0.13252,-1.95376 0.11989,-2.75591 -0.0748,-1.99562 -0.13549,-4.05684 -0.16485,-6.173262 -0.0294,-2.116425 -0.0277,-4.288343 0.0217,-6.506063 0.0494,-2.21772 0.14656,-4.480952 0.30799,-6.780465 0.16144,-2.299512 0.38728,-4.635186 0.69402,-6.996989 -0.003,0.03442 -9.1e-4,0.03757 0.001,0.03101 0.002,-0.0067 0.004,-0.02528 0.007,-0.05013 0.006,-0.05019 0.0118,-0.127829 0.0181,-0.221692 0.0128,-0.189511 0.0264,-0.447097 0.0419,-0.741557 0.0324,-0.618421 0.0718,-1.362658 0.13333,-2.117183 0.0319,-0.391193 0.0692,-0.778396 0.1142,-1.1467 0.0468,-0.38317 0.10256,-0.752446 0.17053,-1.089339 0.0141,-0.06988 0.0324,-0.136295 0.0481,-0.205156 -1.42176,-0.07331 -2.83545,-0.181728 -4.26589,-0.191719 -1.56674,-0.01094 -3.01162,0.02416 -4.34288,0.09302 -1.33127,0.06886 -2.54942,0.171634 -3.66283,0.295589 -2.22682,0.247912 -4.03516,0.581212 -5.4963,0.901237 a 1.7603714,1.7603714 0 0 1 -1.67794,-0.533817 1.7603714,1.7603714 0 0 1 -0.093,-0.425297 z"
         style="fill:url(#radialGradient60);fill-opacity:1;stroke-width:1px"
         id="path45" />
      <path
         d="m 78.169389,178.35397 c 3.269806,0.0464 7.564448,0.10204 14.941723,0.0362 4.187225,-0.0374 10.435338,-0.17745 17.853178,-0.3085 6.86363,-0.12126 14.853,-0.21733 23.0141,-0.23358 -0.23329,-1.01093 -0.47415,-1.991 -0.67387,-3.36 -0.13831,-0.94813 -0.26073,-1.98658 -0.35656,-3.12126 -0.0958,-1.13467 -0.16513,-2.36567 -0.19689,-3.699 -0.0451,-1.89136 -0.0122,-3.79967 0.0754,-5.73505 0.0876,-1.93538 0.22991,-3.89757 0.40462,-5.89783 0.5159,-5.90626 1.13695,-11.36335 1.36581,-14.48284 0.15027,-2.04828 0.2282,-3.72982 0.26562,-5.10408 0.0299,-1.09801 0.0237,-1.86879 0.0176,-2.60449 -0.0175,-0.15633 -0.039,-0.3358 -0.0729,-0.5917 -0.0259,-0.19577 -0.0533,-0.39637 -0.0863,-0.6382 -0.0311,-0.22541 -0.12241,-0.89803 -0.15348,-1.12344 -0.0707,-0.51301 -0.18563,-1.33554 -0.26924,-1.98283 -0.0811,-0.62816 -0.15718,-1.26983 -0.20205,-1.82676 -0.12206,-1.05935 -0.18459,-2.13443 -0.20516,-3.20291 -0.0206,-1.06847 6.8e-4,-2.1304 0.047,-3.16311 0.0927,-2.06542 0.28477,-4.01437 0.4377,-5.66736 0.21363,-2.30919 0.33585,-3.745 0.40462,-5.23378 0.0703,-1.52178 0.0604,-2.75478 0.015,-3.75171 -0.0454,-0.99693 -0.12617,-1.75748 -0.19689,-2.33423 a 1.7571235,1.7571235 0 0 1 0.68678,-1.61747 1.7571235,1.7571235 0 0 1 0.22066,-0.0269 1.9552465,1.9552465 0 0 1 0.51832,-0.96222 c -0.0638,0.0394 -0.11793,0.0847 -0.1602,0.13023 -0.0346,0.0373 -0.0526,0.0655 -0.0584,0.0754 -0.009,0.0153 0.0222,-0.0358 0.0568,-0.17777 0.064,-0.26206 0.11032,-0.68372 0.10438,-1.3286 -0.005,-0.558698 -0.0457,-1.129217 -0.093,-1.766303 -0.0207,-0.278924 -0.0432,-0.57849 -0.0574,-0.84646 -0.0134,-0.254195 -0.0231,-0.546604 -0.009,-0.819072 0.0457,-0.904885 0.16636,-1.792884 0.32247,-2.653068 0.1561,-0.860184 0.3475,-1.692779 0.5333,-2.48667 0.20825,-0.889858 0.39258,-1.668973 0.54157,-2.401404 0.14898,-0.73243 0.26238,-1.418249 0.32917,-2.122351 0.12052,-1.270481 0.0714,-2.628044 -0.0362,-3.869531 -0.10756,-1.241487 -0.27353,-2.366979 -0.38602,-3.17345 6.7e-4,0.0048 -0.0162,-0.117978 -0.0155,-0.113171 -0.28182,-2.016791 -0.45507,-3.451837 -0.54363,-4.634859 -0.0825,-1.102575 -0.0783,-1.978715 -0.0336,-2.910934 -0.84251,0.02913 -1.68921,0.04076 -2.51819,0.118856 -1.29171,0.121689 -2.56415,0.291142 -3.80804,0.470772 -3.15698,0.455898 -5.33704,0.838078 -8.06204,1.082105 -0.22497,0.02158 -0.44275,0.03799 -0.65009,0.05064 -1.18365,0.07221 -2.40746,0.04154 -3.38791,0.02584 -1.84941,-0.02963 -2.7298,0.01215 -3.54397,0.126607 a 1.9455027,1.9455027 0 0 1 -0.23202,-0.09353 1.9130236,1.9130236 0 0 1 -0.94982,0.548287 c -6.66373,0 -12.63196,0.03388 -20.120732,0.115755 -7.094012,0.07756 -15.995587,0.207053 -27.701668,0.383439 -0.09989,1.470471 -0.24845,3.69416 -0.405144,6.69985 -0.271133,5.200874 -0.56534,17.551335 -0.56534,21.025072 a 2.0169569,2.0169569 0 0 1 -0.176216,0.30541 1.9130236,1.9130236 0 0 1 0.07183,0.11833 c 0.0039,0.16636 0.03408,1.67306 0.06873,2.53628 0.01942,0.48394 0.05411,1.20676 0.125573,1.96009 0.168721,1.77868 0.460242,3.76415 0.729155,5.86166 0.268913,2.09751 0.514984,4.30738 0.593762,6.53552 0.06326,1.78921 0.05725,3.58482 0.01757,5.30458 -0.03968,1.71976 -0.112602,3.3636 -0.182418,4.84932 -0.23968,5.10051 -0.340031,7.03257 -0.340031,9.84849 a 1.9130236,1.9130236 0 0 1 -0.06046,0.10491 1.7213964,1.7213964 0 0 1 0.368453,0.5271 c 0.07824,0.90126 0.125321,1.93204 0.109037,3.83232 -0.0014,0.16333 -0.0033,0.32677 -0.0052,0.49351 -0.0077,0.68837 -0.03015,2.01547 0.0031,3.10989 0.06019,1.98115 0.01626,3.92251 -0.0925,5.91023 -0.10876,1.98772 -0.282139,4.02168 -0.480074,6.18825 -0.181211,1.98352 -0.366693,3.93418 -0.506946,5.87458 -0.140252,1.9404 -0.235127,3.87081 -0.235128,5.81412 0,0.021 -3.22e-4,0.0489 -5.16e-4,0.0811 1.3e-5,-0.002 -0.001,0.12309 -0.001,0.12144 4.9e-5,-0.005 -0.0031,0.3731 -0.0031,0.36793 1.54e-4,-0.0147 -0.01152,1.15676 -0.01137,1.14205 -4.07e-4,0.0343 -0.03473,3.08022 -0.03514,3.11454 -4.2e-5,0.003 -0.0039,0.32821 -0.0078,0.63821 1.548661,0.0504 3.365301,0.0742 4.746997,0.12764 3.746046,0.14477 6.792288,0.27853 8.671306,0.27853 a 1.7798589,1.7798589 0 0 1 0.227893,0.13126 z"
         style="fill:url(#radialGradient59);fill-opacity:1;stroke-width:1px"
         id="path44" />
      <path
         d="m 61.510963,176.91433 c 0.0035,-0.28045 0.0073,-0.59012 0.0072,-0.58653 -3.57e-4,0.034 0.03498,-3.14338 0.03462,-3.10937 8e-5,-0.009 0.01129,-1.13037 0.01137,-1.13895 1.7e-5,-0.002 0.0031,-0.36012 0.0031,-0.36225 l 10e-4,-0.11524 c 1.87e-4,-0.0311 0,-0.0507 0,-0.0605 0,-2.0388 0.100006,-4.06075 0.244429,-6.06217 0.144423,-2.00141 0.333306,-3.98248 0.512114,-5.93968 0.197583,-2.16273 0.365961,-4.14946 0.470772,-6.06217 0.104811,-1.91271 0.146135,-3.7515 0.0894,-5.61878 -0.03603,-1.18568 -0.01182,-2.60848 -0.0047,-3.25251 0.0018,-0.16528 0.0038,-0.3255 0.0052,-0.48472 0.01425,-1.66272 -0.03076,-2.47212 -0.08785,-3.20136 a 1.9130236,1.9130236 0 0 1 -0.712101,-1.23352 c 0,-2.92125 0.104745,-4.94434 0.343648,-10.02832 0.0699,-1.48748 0.14089,-3.09635 0.179317,-4.75889 0.03843,-1.66253 0.04414,-3.37873 -0.01602,-5.08031 -0.07176,-2.02978 -0.30919,-4.12891 -0.573609,-6.19238 -0.264418,-2.06347 -0.555836,-4.09138 -0.734839,-5.97845 -0.08123,-0.85638 -0.119137,-1.65984 -0.139526,-2.16783 -0.03635,-0.90568 -0.06791,-2.47719 -0.0708,-2.60036 a 1.9130236,1.9130236 0 0 1 0.09354,-0.17053 2.0169569,2.0169569 0 0 1 -0.197921,-0.34261 c 0,-3.512622 0.297393,-15.98609 0.571025,-21.23488 0.151298,-2.902205 0.289885,-4.967734 0.39119,-6.468855 -3.402411,0.0288 -6.812079,0.042 -10.40505,0 -1.133639,-0.01325 -2.498608,-0.242844 -3.368269,-0.353467 -0.53768,-0.06839 -0.994694,-0.112405 -1.413351,-0.123507 -0.454494,-0.01205 -0.807102,0.01734 -1.091406,0.07493 -0.06224,0.01261 -0.161622,0.04879 -0.303341,0.113688 -0.02485,0.01138 -0.05053,0.02358 -0.077,0.03617 -0.297574,0.141612 -0.682405,0.333799 -0.8816,0.417028 a 1.9130236,1.9130236 0 0 1 -1.224731,-0.157613 c -2.366068,-0.01502 -4.05043,-0.109338 -7.914246,-0.296106 -1.217982,-0.05887 -2.555717,-0.116491 -3.941878,-0.136942 -1.386161,-0.02045 -2.820674,-0.0039 -4.2323,0.08682 -1.399636,0.08997 -3.002534,0.212187 -4.687569,0.283187 -1.685034,0.071 -3.452537,0.09119 -5.180562,-0.02274 -7.202163,-0.474835 -14.4615433,-1.265947 -21.596615,-1.769917 -2.5261041,-0.178426 -4.9670184,-0.244771 -7.421769,-0.328146 -0.0052,0.642061 -0.03795,1.205748 0.02584,2.035018 0.10445,1.35783 0.325755,3.008567 0.742591,5.088578 0.137496,0.686108 0.294098,1.41594 0.487825,2.278931 0.303246,1.350866 0.7527427,3.188304 1.1601357,5.202267 0.2036967,1.006981 0.3970059,2.058282 0.5560385,3.114538 0.1590325,1.056256 0.2841652,2.117681 0.3513997,3.145545 0.097367,1.400438 0.137054,2.805581 0.1462443,4.1491 0.00919,1.343519 -0.012062,2.625353 -0.037724,3.778063 -0.022832,1.02559 -0.092594,3.55186 -0.1023193,3.91656 -0.051079,1.91545 -0.07028,2.96627 -0.07028,3.73 a 2.1501216,2.1501216 0 0 1 -0.1627807,0.28164 c 0.044728,1.55298 0.135357,5.01698 0.2728515,9.14259 0.1598668,4.79691 0.5124532,14.31967 0.9606649,23.91069 0.034593,0.43107 0.055184,0.90598 0.072864,1.35082 0.02071,0.52109 0.035325,0.9292 0.060461,1.36323 0.031636,0.54625 0.067887,0.89971 0.1038696,1.1684 0.00777,0.058 0.014679,0.10828 0.021187,0.15193 0.053733,0.36036 0.082331,0.45766 0.090434,0.48266 a 2.1566174,2.1566174 0 0 1 -0.4495849,2.10943 2.1566174,2.1566174 0 0 1 -0.241329,0.078 c 0.00787,0.46414 0.049616,0.80378 0.045475,1.31568 -0.014649,1.81077 -0.1094748,3.94933 -0.3193604,6.6213 -0.073568,0.93656 -0.1548293,1.87057 -0.2361613,2.7895 -0.1767307,1.9968 -0.4863226,5.26127 -0.613916,8.08271 -0.082107,1.81563 -0.020826,3.6494 -0.01912,5.65753 0.00103,1.2151 -0.039746,2.13679 -0.091467,3.00447 0.2519281,-0.0143 0.4937097,-0.0615 0.7487915,-0.0672 2.5913387,-0.0579 5.2634037,0.0987 7.53649088,0.0693 1.40059773,-0.0181 2.58546112,-0.0906 3.64680592,-0.22738 0.4737588,-0.0611 0.8412106,-0.14339 1.2293823,-0.22169 a 1.7798589,1.7798589 0 0 1 0.2242757,-0.85783 1.7798589,1.7798589 0 0 1 1.7161743,-0.47077 c 0.6830731,0.17874 2.2161153,0.56609 4.2271318,0.89814 0.660403,0.10904 1.492696,0.23275 2.4722,0.34313 0.979504,0.11037 2.106181,0.20771 3.355351,0.26406 3.389562,0.15291 6.693514,0.25916 9.976652,0.33487 3.283138,0.0757 6.545606,0.12086 9.852629,0.15141 6.614046,0.0611 13.406509,0.0637 20.897949,0.13643 1.701712,0.0165 3.063663,0.0862 4.681368,0.12609 z"
         style="fill:url(#radialGradient58);fill-opacity:1;stroke-width:1px"
         id="path43" />
      <path
         d="m -64.668921,177.56177 c 3.696674,-0.0711 10.501581,-0.37686 19.95072,-0.57981 1.697634,-0.0365 3.870547,-0.0725 6.300391,-0.063 2.429843,0.009 5.116674,0.0643 7.841899,0.20929 1.7166,0.0913 4.188625,0.29937 6.789249,0.47129 2.600624,0.17191 5.330044,0.30792 7.560262,0.25579 0.975975,-0.0228 1.976396,-0.14931 3.011703,-0.27543 0.0023,-0.0296 0.0071,-0.0443 0.0093,-0.0744 0.06283,-0.8574 0.09882,-1.90483 0.09767,-3.2613 -0.0016,-1.84678 -0.06442,-3.90125 0.02274,-5.82858 0.132205,-2.92343 0.452312,-6.29389 0.624768,-8.24239 0.08104,-0.91566 0.160962,-1.83495 0.23306,-2.7528 0.203843,-2.59505 0.294029,-4.6447 0.307992,-6.35621 0.01396,-1.71151 -0.04837,-3.0847 -0.149345,-4.32738 a 1.857809,1.857809 0 0 1 0.09405,-0.19844 c -0.0049,-0.22529 -0.02048,-0.3924 -0.01757,-0.66456 0.0051,-0.47419 0.0214,-0.94771 0.03876,-1.44229 0.01607,-0.45797 0.0295,-0.84913 0.03359,-1.19941 -0.329642,-9.60769 -0.567695,-19.16971 -0.700732,-23.95822 -0.157133,-5.35927 -0.132493,-4.38856 -0.264067,-8.85786 a 2.1501216,2.1501216 0 0 1 -0.393258,-0.6811 c 0,-0.76358 -3.74e-4,-1.95494 0.07235,-3.86953 0.04916,-1.29421 0.09121,-2.00913 0.178284,-3.91965 0.0522,-1.14535 0.10331,-2.382653 0.127124,-3.659213 0.02381,-1.276559 0.01992,-2.592624 -0.03721,-3.895369 -0.04444,-0.929449 -0.140578,-1.890237 -0.269751,-2.854606 -0.129173,-0.964369 -0.291279,-1.932455 -0.467155,-2.875794 -0.351752,-1.886677 -0.758776,-3.675467 -1.069185,-5.142322 -0.18758,-0.886418 -0.340978,-1.636002 -0.480591,-2.361613 -0.428453,-2.226809 -0.671132,-4.021858 -0.791683,-5.533512 -0.07779,-0.975505 -0.04502,-1.694322 -0.03824,-2.473751 -1.633003,-0.01267 -3.256965,-0.0026 -4.869471,0.05219 -1.747522,0.05937 -3.484519,0.161779 -5.215185,0.315227 -0.801674,0.07108 -1.674364,0.06197 -2.481502,0.03617 -0.911046,-0.03089 -1.613865,-0.07194 -2.524911,-0.102836 -0.873987,-0.02964 -1.62773,-0.03417 -2.300118,0.0088 -0.748417,0.04781 -1.279911,0.148264 -1.65623,0.275435 -0.228313,0.07716 -0.462727,0.194683 -0.660941,0.301274 -0.06407,0.03445 -0.128377,0.07005 -0.192237,0.105937 -0.489576,0.275135 -0.957975,0.548802 -1.208195,0.677478 a 1.9422548,1.9422548 0 0 1 -1.939933,-0.09457 1.9422548,1.9422548 0 0 1 -0.527616,-1.025261 c -0.596216,-0.02944 -0.897481,-0.07361 -1.6769,-0.09043 -1.468741,-0.0317 -3.218111,-0.03337 -5.161959,0.0083 -1.67583,0.0359 -3.457917,0.103738 -5.167643,0.206189 -1.563513,0.09369 -3.038258,0.214542 -4.220931,0.358118 -0.947289,0.113628 -1.869422,0.352972 -2.998784,0.660424 -1.036412,0.282149 -2.215753,0.612135 -3.449918,0.785482 -1.058065,0.148459 -2.111152,0.235151 -3.142444,0.286288 -1.031293,0.05114 -2.040954,0.06684 -3.012736,0.07441 -2.065694,0.0161 -3.862047,-0.003 -5.66322,0.129707 -0.92408,0.0681 -1.794703,0.17419 -2.623096,0.332797 -0.828393,0.158607 -1.614224,0.369728 -2.368331,0.649056 -0.805751,0.298457 -1.567807,0.671916 -2.294434,1.134297 -0.726626,0.462382 -1.417952,1.013997 -2.082043,1.668632 -0.0088,0.0093 -0.01811,0.01955 -0.02739,0.03101 -0.03156,0.03894 -0.06962,0.0961 -0.11007,0.180868 -0.05249,0.109995 -0.105416,0.259687 -0.150896,0.459403 -0.09231,0.405386 -0.1325,0.920894 -0.130224,1.549776 0.0023,0.623414 0.04379,1.255683 0.08217,1.927015 0.01858,0.324943 0.03602,0.659461 0.04393,0.979268 0.0079,0.319703 0.0072,0.653218 -0.01654,0.975134 -0.07558,0.96385 -0.224104,1.937751 -0.397392,2.873727 -0.173288,0.935975 -0.371389,1.833959 -0.545186,2.64635 -0.209049,0.977172 -0.384275,1.834992 -0.514181,2.629297 -0.129906,0.794304 -0.214387,1.524939 -0.241846,2.248441 -0.03717,0.891944 -0.0082,1.771242 0.05374,2.602942 0.06193,0.8317 0.156917,1.615775 0.250631,2.317685 0.07401,0.55431 0.155507,1.11125 0.236161,1.65416 0.271291,1.82619 0.449723,3.12986 0.559656,4.2292 0.109932,1.09935 0.151036,1.99426 0.148311,3.00189 a 1.9779819,1.9779819 0 0 1 -0.917773,1.58078 c 0.0012,0.0115 0.0013,0.0191 0.0026,0.031 0.02186,0.20596 0.09589,0.79507 0.12144,1.18598 0.02537,0.38815 0.03412,0.89073 -0.07131,1.4149 -0.24013,1.12842 -0.402649,2.27467 -0.501779,3.44785 -0.09913,1.17318 -0.134503,2.37341 -0.119889,3.61012 0.02812,2.3795 0.238102,4.7732 0.481108,7.26725 0.241621,2.47985 0.504361,4.95704 0.62115,7.45174 0.06079,1.29845 0.08073,2.57747 0.04134,3.8437 -0.03939,1.26623 -0.138129,2.51989 -0.314193,3.76773 -0.01572,0.12184 -0.03831,0.25549 -0.06305,0.38912 -0.0258,0.13944 -0.05674,0.2937 -0.08992,0.45475 -0.0701,0.34032 -0.153324,0.72613 -0.237195,1.1281 -0.207981,0.99679 -0.376396,1.88912 -0.489893,2.73627 -0.06042,0.45095 -0.09708,0.82809 -0.116789,1.14618 -0.0035,0.0565 -0.0062,0.11175 -0.0088,0.16588 -0.01381,0.29406 0.0031,0.48381 0.01447,0.69247 a 1.1692504,1.1692504 0 0 1 0.114205,0.0806 c 0.04442,0.2572 0.06322,0.62145 0.09819,0.90899 a 1.380365,1.380365 0 0 1 0.601514,0.64854 1.380365,1.380365 0 0 1 -0.406694,1.3193 1.380365,1.380365 0 0 1 -0.03876,0.009 c 0.03356,0.81442 0.0609,1.66825 0.05529,2.90318 -0.0068,1.49782 -0.04233,3.54138 0.02894,5.34076 0.01145,0.28916 0.02629,0.59083 0.04548,0.89969 0.05249,0.84499 0.139367,1.78573 0.299723,2.74195 0.160356,0.95623 0.394139,1.92768 0.740007,2.83445 0.295048,0.77355 0.673786,1.50868 1.166337,2.16886 0.230119,0.30844 0.486424,0.60299 0.774113,0.87954 0.287688,0.27654 0.606666,0.53499 0.961181,0.77204 0.550632,0.32998 1.154783,0.5555 1.964738,0.85887 0.786137,0.29444 1.635175,0.61956 2.436027,1.13739 1.017131,0.68814 1.95599,1.18885 2.80448,1.5627 0.84849,0.37385 1.606325,0.6209 2.261361,0.80098 0.13086,0.036 0.261663,0.0702 0.392224,0.10284 1.220385,0.30557 2.465605,0.47057 3.561023,0.55914 1.095418,0.0886 2.041239,0.10077 2.661853,0.10077 a 1.6012235,1.6012235 0 0 1 0.710034,0.40979 z"
         style="fill:url(#radialGradient57);fill-opacity:1;stroke-width:1px"
         id="path42" />
      <path
         d="m 135.82737,69.037646 c -0.71619,0.01699 -1.42355,0.05223 -2.11874,0.09974 -1.39037,0.09501 -2.73268,0.240135 -4.00182,0.392224 -3.35781,0.402388 -5.21947,0.698661 -7.89667,0.901754 -0.17988,0.012 -0.35712,0.02107 -0.52917,0.02791 -1.01706,0.04039 -2.07417,0.0087 -3.12953,-0.0062 -1.96184,-0.02763 -3.0548,0.03853 -4.14445,0.19172 -0.24044,0.118367 -0.45387,0.285176 -0.62683,0.489892 -0.004,-0.0026 -0.009,-0.0052 -0.0134,-0.0078 -6.67881,0 -12.66255,0.03378 -20.16104,0.115755 -7.498487,0.08198 -16.515871,0.21186 -29.260746,0.404626 -4.140058,0.06262 -8.36788,0.05184 -12.802836,0 -0.840704,-0.0098 -1.786109,-0.1774 -2.93057,-0.322977 -0.590758,-0.07515 -1.191431,-0.136964 -1.794723,-0.152963 -0.662907,-0.01758 -1.315518,0.02034 -1.952336,0.149345 -0.477265,0.09669 -0.838962,0.261256 -1.041796,0.35295 -0.03167,-0.01952 -0.0639,-0.03814 -0.09664,-0.05581 -2.540755,0 -4.113624,-0.11058 -8.315255,-0.313676 -1.218805,-0.05891 -2.606115,-0.120093 -4.071069,-0.141594 -1.464955,-0.0215 -3.008709,-0.0034 -4.540292,0.09508 -1.468098,0.09437 -3.024495,0.211169 -4.60592,0.278536 -1.581426,0.06737 -3.188389,0.08532 -4.756816,-0.01809 C 9.946979,71.050694 2.6905733,70.26063 -4.5423584,69.749748 -8.2734292,69.486212 -11.954189,69.300492 -15.603699,69.260889 c -0.912377,-0.0099 -1.823231,-0.01092 -2.732133,-0.0016 -0.908902,0.0094 -1.816344,0.02914 -2.722314,0.05994 -1.811941,0.06161 -3.619264,0.16818 -5.423442,0.328145 -0.559018,0.04957 -1.240101,0.048 -2.014347,0.02325 -0.763791,-0.02441 -1.753368,-0.07843 -2.517159,-0.102836 -0.922081,-0.03127 -1.821392,-0.03983 -2.679423,0.01499 -0.9475,0.06053 -1.844231,0.198645 -2.652551,0.471806 -0.29536,0.09981 -0.452467,0.195097 -0.678512,0.302307 -1.003148,-0.09689 -2.312654,-0.18639 -4.210596,-0.224793 -0.761297,-0.0154 -1.592062,-0.02271 -2.480985,-0.02067 -0.888924,0.002 -1.836526,0.01341 -2.830835,0.03617 -1.714115,0.03924 -3.545114,0.11165 -5.300452,0.219625 -1.601466,0.09851 -3.152459,0.227776 -4.430737,0.385506 -1.228497,0.152713 -2.374988,0.462564 -3.487642,0.768429 -1.085602,0.298428 -2.043631,0.563692 -3.018938,0.700215 -0.938208,0.131519 -1.883307,0.209159 -2.833935,0.255799 -0.950628,0.04664 -1.907435,0.06244 -2.869076,0.06925 -1.977989,0.014 -3.940881,-0.0082 -5.888529,0.132292 -1.02243,0.07376 -2.028747,0.191921 -3.018421,0.379305 -0.989673,0.187384 -1.962886,0.444003 -2.919201,0.7953 -1.034449,0.379999 -2.017849,0.860034 -2.952792,1.450558 -0.934943,0.590523 -1.821968,1.291741 -2.66392,2.115633 -0.07912,0.07705 -0.154021,0.156123 -0.224275,0.236678 -0.242787,0.278383 -0.438231,0.579566 -0.59583,0.888318 -0.199731,0.391294 -0.340247,0.798965 -0.4408,1.198893 -0.195669,0.778233 -0.257058,1.598871 -0.271301,2.348694 -0.01408,0.741397 0.01771,1.497493 0.03617,2.11615 0.0095,0.31947 0.01595,0.603917 0.01395,0.859379 -0.002,0.258186 -0.01243,0.461699 -0.03101,0.615466 -0.08176,0.812511 -0.226977,1.64037 -0.402042,2.477368 -0.175066,0.836998 -0.379968,1.683579 -0.581877,2.532662 -0.229398,0.964685 -0.442891,1.889328 -0.612366,2.799829 -0.169474,0.910502 -0.295152,1.807383 -0.348816,2.716114 -0.06069,1.071687 -0.04006,2.110246 0.01912,3.064412 0.05918,0.954167 0.156992,1.824657 0.249597,2.559017 0.07433,0.58941 0.156581,1.17193 0.236161,1.72083 0.263099,1.81469 0.433281,3.04536 0.536918,4.03748 0.103638,0.99212 0.140822,1.74613 0.138493,2.60707 0.08504,0.41573 0.301578,0.79318 0.617534,1.07642 0.0018,0.1192 -0.0071,0.23385 -5.17e-4,0.35657 0.007,0.13004 0.01664,0.26285 0.02842,0.41031 0.02562,0.32065 0.06905,0.75283 0.07855,1.08676 0.0086,0.30215 -0.007,0.55737 -0.06098,0.76894 -0.271341,1.2388 -0.456234,2.4881 -0.571025,3.75326 -0.11479,1.26517 -0.159673,2.54692 -0.152445,3.85093 0.0069,1.24881 0.06131,2.49592 0.142627,3.74292 0.08132,1.24701 0.18951,2.49472 0.30334,3.74448 0.229133,2.51566 0.46808,4.91215 0.565857,7.32462 0.05054,1.24683 0.06117,2.45623 0.01705,3.63853 -0.04411,1.18231 -0.143286,2.3384 -0.311093,3.47783 -0.01055,0.057 -0.02423,0.12718 -0.05013,0.24753 -0.02491,0.11575 -0.05495,0.25078 -0.09043,0.40566 -0.07374,0.32183 -0.1654,0.71122 -0.258383,1.12396 -0.228629,1.01487 -0.426723,1.99252 -0.562756,2.93109 -0.07346,0.50688 -0.120985,0.95102 -0.148311,1.3441 -0.0049,0.07 -0.0092,0.13961 -0.01292,0.20826 -0.02921,0.5425 -0.02154,1.04268 0.03204,1.49345 0.03019,0.25399 0.07522,0.49592 0.137976,0.72398 0.07049,0.25616 0.164087,0.49785 0.285771,0.72089 0.09488,0.17392 0.22695,0.30488 0.350366,0.44597 0.04932,0.82996 0.07743,1.86513 0.07183,3.30781 -0.0055,1.414 -0.04611,3.60171 0.01085,5.43326 0.0094,0.30329 0.02182,0.62175 0.03876,0.94981 0.04506,0.87283 0.123478,1.90202 0.288872,2.98431 0.165393,1.0823 0.417951,2.21825 0.809769,3.30471 0.170181,0.47189 0.370434,0.94661 0.607715,1.41438 0.237282,0.46778 0.511455,0.92896 0.829924,1.3746 0.299594,0.41922 0.638358,0.8246 1.021126,1.20819 0.382769,0.38359 0.809631,0.74579 1.286743,1.07901 0.745555,0.55675 1.550548,0.9478 2.294434,1.31723 0.783873,0.38928 1.332711,0.67923 1.807125,1.05833 1.156144,0.83624 2.240898,1.4605 3.234944,1.93373 0.994047,0.47324 1.898034,0.79606 2.692859,1.0294 0.155951,0.0458 0.311483,0.089 0.466638,0.13022 0.717309,0.19037 1.437226,0.33278 2.132687,0.43925 0.695461,0.10648 1.367281,0.17698 1.987992,0.22376 0.668069,0.0504 1.045873,0.0393 1.563729,0.0496 0.24722,0.28439 0.585491,0.47416 0.957048,0.53692 3.507651,-0.0433 11.225328,-0.40099 21.115507,-0.6134 1.68795,-0.0362 3.831564,-0.0713 6.218741,-0.062 2.387177,0.009 5.018051,0.063 7.680668,0.20464 1.552345,0.0826 4.049812,0.29221 6.73499,0.46767 2.685178,0.17546 5.558638,0.31691 7.863603,0.26303 1.080489,-0.0252 2.111424,-0.15906 3.12384,-0.28112 0.03702,0.19097 0.103813,0.37494 0.197921,0.54519 0.508216,0.42685 1.205563,0.55016 1.829345,0.32349 0.463528,-0.22988 0.810202,-0.64267 0.956531,-1.13895 0.4467995,-0.0379 0.9401574,-0.11573 1.3802777,-0.12557 2.37378,-0.0531 5.0917692,0.10103 7.5065185,0.0698 1.48591979,-0.0192 2.8010962,-0.0966 4.0204264,-0.25373 0.8205071,-0.10576 1.5431445,-0.24106 2.1838461,-0.39532 0.6405222,-0.15423 1.1991248,-0.32784 1.6924031,-0.50901 h 5.168e-4 c 0.8158372,0.18652 1.3248414,0.33885 2.5243937,0.53691 0.7099738,0.11723 1.6035877,0.24962 2.6535847,0.36794 1.049998,0.11832 2.256577,0.22236 3.593579,0.28267 3.410467,0.15384 6.737951,0.26118 10.043315,0.33745 3.305364,0.0763 6.588841,0.12165 9.91154,0.15244 6.645397,0.0616 13.448586,0.0641 20.897949,0.13643 1.7585,0.0171 3.223473,0.0897 4.909778,0.13281 0.04283,0.0821 0.06659,0.14943 0.158646,0.26096 0.07755,0.094 0.200672,0.22287 0.378788,0.34055 0.184014,0.12158 0.437091,0.23708 0.750859,0.27337 0.320166,0.037 0.618866,-0.0185 0.869198,-0.12454 0.237755,-0.1007 0.408394,-0.23589 0.518831,-0.34158 0.110967,-0.10621 0.188112,-0.2085 0.237712,-0.28216 0.01234,-0.0183 0.01667,-0.0298 0.02739,-0.047 1.618684,0.0522 3.469316,0.0774 4.921147,0.13332 3.76808,0.14507 6.874877,0.27906 8.803597,0.27906 0.07297,-0.0356 0.143414,-0.0762 0.21084,-0.12144 3.292012,0.0466 7.596379,0.10165 14.988232,0.0357 4.201057,-0.0375 10.463497,-0.17752 17.880557,-0.30851 7.41706,-0.13098 15.99095,-0.25269 24.81554,-0.25269 0.3364,0 0.82682,0.0118 1.45417,0.032 0.62087,0.02 1.35486,0.0473 2.15853,0.076 1.69659,0.0605 3.56157,0.12187 5.41362,0.14418 2.0919,0.0252 3.90141,-0.003 5.36298,-0.10439 0.87151,-0.0603 1.58548,-0.14417 2.16731,-0.25115 0.29491,-0.0542 0.54433,-0.11854 0.78187,-0.18655 0.28749,0.4641 0.77212,0.77061 1.31464,0.83148 1.61029,0.0647 3.42078,0.10967 5.74177,0.10593 2.321,-0.004 5.15334,-0.0564 8.80773,-0.18603 1.5982,-0.0567 2.94443,-0.11049 5.02709,-0.19276 2.49997,-0.0987 5.59804,-0.22729 8.9302,-0.28473 1.66608,-0.0287 3.39113,-0.0398 5.12889,-0.0207 1.73776,0.0191 3.48891,0.0686 5.20743,0.16071 1.50831,0.0808 3.02091,0.28603 4.52686,0.46922 2.3069,0.28062 3.60853,0.36639 4.88032,0.36639 0.63255,-0.002 1.21669,-0.3392 1.53427,-0.88625 1.85306,0.0559 3.65911,0.10789 7.62383,0.25735 2.1224,0.08 8.02918,0.34429 15.10398,0.5643 3.53741,0.11001 7.3676,0.20891 11.16263,0.2682 3.79503,0.0593 7.55639,0.079 10.9554,0.0305 0.38954,-0.006 0.85991,0.0124 1.41335,0.0465 0.55187,0.034 1.15569,0.0819 1.80248,0.13229 1.35894,0.10591 2.77995,0.2104 4.19561,0.21549 0.79956,0.003 1.55879,-0.0264 2.27479,-0.0971 0.71601,-0.0708 1.38868,-0.18306 2.01539,-0.34571 0.75555,-0.19609 1.41046,-0.45693 1.97662,-0.77928 0.38538,-0.21943 0.7107,-0.45671 0.98547,-0.69815 0.27477,-0.24144 0.49917,-0.48729 0.68368,-0.72451 0.0127,-0.0635 0.0217,-0.12769 0.0269,-0.19223 0.37031,0.0126 0.49314,0.049 0.93018,0.0512 0.76982,0.004 1.62252,-0.009 2.68665,-0.0532 1.86049,-0.077 4.0514,-0.2501 6.07302,-0.32711 2.35783,-0.10989 4.41802,-0.21869 6.37635,-0.48524 0.97585,-0.13283 1.86259,-0.29718 2.68201,-0.4992 1.03752,-0.25579 2.07417,-0.59813 3.06028,-1.07125 0.88794,-0.42602 1.71554,-0.94885 2.46445,-1.5906 0.39308,-0.33684 0.75444,-0.69811 1.08572,-1.08262 0.33127,-0.38451 0.63271,-0.79205 0.90485,-1.22215 0.30758,-0.48609 0.56961,-0.98718 0.79324,-1.495 0.22362,-0.50782 0.40902,-1.02296 0.56275,-1.53634 0.2127,-0.7103 0.36125,-1.4074 0.46664,-2.04845 0.10539,-0.64106 0.16735,-1.22625 0.20671,-1.71204 -0.006,-0.0134 -0.0122,-0.0266 -0.0186,-0.0398 0.0572,-0.0343 0.1139,-0.0233 0.17002,-0.0641 0.17607,-0.12783 0.32651,-0.275 0.45268,-0.43253 0.12192,-0.15223 0.21727,-0.30893 0.29043,-0.45941 0.47341,-0.97381 0.87155,-1.99062 1.19786,-3.05563 0.3263,-1.065 0.58059,-2.17889 0.76636,-3.34708 0.16465,-1.03537 0.27209,-2.0886 0.33279,-3.16518 0.0607,-1.07657 0.0747,-2.17699 0.0537,-3.30626 -0.0371,-2.00132 -0.19448,-4.06207 -0.3545,-6.12159 -0.16003,-2.05951 -0.32257,-4.1186 -0.37052,-6.1159 -0.11288,-4.70202 0.0116,-9.92035 -0.10129,-14.62237 -0.0741,-3.31505 0.0822,-6.6708 0.18293,-10.18335 0.0504,-1.75916 0.0854,-3.52033 0.0661,-5.27668 -0.0192,-1.75636 -0.0927,-3.50838 -0.25786,-5.24981 -0.17714,-1.86734 -0.47351,-3.78639 -0.70022,-5.413114 -0.26008,-1.866158 -0.45081,-3.486801 -0.50591,-5.130436 -0.0955,-2.849153 -0.0694,-5.795301 -0.1974,-8.427392 -0.0931,-1.915531 -0.2523,-3.545308 -0.4718,-4.975407 -0.21951,-1.4301 -0.49931,-2.661199 -0.83406,-3.780131 -0.21322,-0.712507 -0.79046,-1.257239 -1.51412,-1.428854 -0.13982,-0.01535 -0.27959,-0.01629 -0.41755,-0.0036 -0.41386,0.03802 -0.81057,0.199402 -1.13584,0.468188 -0.26518,-0.316295 -0.50786,-0.658265 -0.79685,-0.946195 -0.55458,-0.552544 -1.15009,-1.054005 -1.77509,-1.508952 -0.64758,-0.47138 -1.32761,-0.893192 -2.02727,-1.270723 -0.69965,-0.377531 -1.41953,-0.711149 -2.14767,-1.00614 -0.80906,-0.327777 -1.6367,-0.611756 -2.47013,-0.857313 -0.83343,-0.245556 -1.67277,-0.453007 -2.50424,-0.628385 -1.66295,-0.350756 -3.29577,-0.572902 -4.79299,-0.715202 -1.47011,-0.139724 -2.88009,-0.20852 -4.15479,-0.235644 -1.27469,-0.02712 -2.41494,-0.01288 -3.34656,0.01344 -0.91341,0.0258 -1.78675,0.06807 -2.60708,0.119889 -2.14074,0.135228 -4.02621,0.343933 -5.5056,0.542086 -1.4794,0.198152 -2.55341,0.385764 -3.07113,0.478523 -0.15116,0.09531 -0.2884,0.211152 -0.40773,0.344165 -0.0982,-0.02731 -0.19846,-0.047 -0.29973,-0.05891 -0.12919,0.04429 -0.39675,0.115364 -0.86506,0.153479 -0.35347,0.02877 -0.74915,0.03542 -1.25625,0.03049 -0.47045,-0.0046 -0.99278,-0.01872 -1.49655,-0.01395 -0.38359,0.0036 -0.74198,0.0179 -1.08417,0.04909 -0.185,0.01686 -0.37287,0.03964 -0.56173,0.06976 -2.27957,0.289802 -4.5561,0.440539 -6.82129,0.491959 -2.26518,0.05142 -4.52022,0.0034 -6.75514,-0.103353 -2.31828,-0.11069 -4.71158,-0.29195 -7.05487,-0.49506 -2.34328,-0.20311 -4.63713,-0.42796 -6.75669,-0.624251 -2.21366,-0.205006 -4.27155,-0.38491 -6.32623,-0.5302 -2.52205,-0.17834 -5.10197,-0.307312 -7.71167,-0.324528 -1.63813,-0.01081 -3.15272,0.02498 -4.55218,0.0956 -1.39945,0.07062 -2.68409,0.17605 -3.8623,0.304374 -1.63815,0.178421 -2.82605,0.425247 -4.07675,0.660425 -0.001,-0.01604 -0.003,-0.03207 -0.005,-0.04806 -0.36315,-0.502246 -0.96685,-0.77257 -1.58336,-0.709001 -0.74424,0.07654 -1.52085,0.115893 -2.50011,0.108521 -0.97926,-0.0074 -2.16152,-0.06156 -3.71553,-0.171049 -0.0895,-0.0063 -0.61797,-0.04434 -0.70745,-0.05064 -1.68573,-0.121219 -3.87978,-0.274762 -5.96863,-0.221175 -1.69443,0.03245 -3.36702,0.117315 -5.10408,0.237195 -1.73706,0.11988 -3.53923,0.274709 -5.49321,0.447518 -0.8796,0.07779 -1.81003,0.160379 -2.72283,0.238228 -2.22859,0.190067 -4.96919,0.40613 -7.68273,0.500228 -1.62312,0.05602 -3.24054,-0.01274 -4.91908,-0.162781 -1.67854,-0.150042 -3.41898,-0.381502 -5.28702,-0.65164 -1.69955,-0.245773 -3.45517,-0.515143 -5.23844,-0.736906 -1.78327,-0.221763 -3.59485,-0.396144 -5.40535,-0.452169 -0.73094,-0.02452 -1.45629,-0.02577 -2.17248,-0.0088 z m -149.886977,0.946713 c 0.01434,7.87e-4 0.02805,0.0066 0.04237,0.0078 -0.02668,-0.0021 -0.05336,-0.0042 -0.0801,-0.0052 0.01261,4.42e-4 0.02513,-0.0033 0.03772,-0.0026 z M 136.5188,72.622957 c -0.0447,0.93218 -0.0489,1.808405 0.0336,2.910934 0.0885,1.182973 0.26182,2.618153 0.54363,4.634859 -6.7e-4,-0.0048 0.0162,0.117978 0.0155,0.113171 0.11249,0.806437 0.27846,1.932015 0.38602,3.17345 0.10756,1.241435 0.15668,2.599103 0.0362,3.869531 -0.0668,0.704072 -0.18019,1.389951 -0.32917,2.122351 -0.14899,0.732401 -0.33333,1.511583 -0.54157,2.401404 -0.18579,0.793857 -0.37721,1.626523 -0.5333,2.48667 -0.1561,0.860148 -0.27676,1.748221 -0.32247,2.653068 -0.0138,0.272457 -0.004,0.564887 0.009,0.819072 0.0141,0.267958 0.0367,0.567548 0.0574,0.84646 0.0473,0.637059 0.0879,1.207629 0.093,1.766303 0.006,0.64485 -0.0404,1.06655 -0.10438,1.3286 -0.0346,0.14192 -0.0658,0.19307 -0.0568,0.17777 0.006,-0.01 0.0238,-0.0382 0.0584,-0.0754 0.0423,-0.0455 0.0964,-0.0908 0.1602,-0.13023 -0.26072,0.26494 -0.44053,0.59875 -0.51832,0.96222 -0.074,0.004 -0.14775,0.0133 -0.22066,0.0269 -0.50142,0.37774 -0.76324,0.99437 -0.68678,1.61747 0.0707,0.57673 0.15153,1.33734 0.19689,2.33423 0.0454,0.99688 0.0553,2.23 -0.015,3.75171 -0.0688,1.48871 -0.19099,2.92469 -0.40462,5.23378 -0.15292,1.65292 -0.34501,3.60203 -0.4377,5.66736 -0.0464,1.03266 -0.0676,2.09469 -0.047,3.16311 0.0206,1.06843 0.0831,2.14361 0.20516,3.20291 0.0449,0.5569 0.12092,1.19863 0.20205,1.82676 0.0836,0.64726 0.19853,1.46984 0.26924,1.98283 0.0311,0.2254 0.12241,0.89804 0.15348,1.12344 0.033,0.24182 0.0604,0.44244 0.0863,0.6382 0.0338,0.25589 0.0554,0.43538 0.0729,0.5917 0.006,0.73567 0.0123,1.50652 -0.0176,2.60449 -0.0374,1.3742 -0.11535,3.05588 -0.26562,5.10408 -0.22885,3.11937 -0.84993,8.57682 -1.36581,14.48284 -0.17471,2.00018 -0.31702,3.96253 -0.40462,5.89783 -0.0876,1.93531 -0.1205,3.84376 -0.0754,5.73505 0.0318,1.33328 0.10106,2.56437 0.19689,3.699 0.0958,1.13463 0.21826,2.17317 0.35656,3.12126 0.19971,1.36895 0.44059,2.34911 0.67387,3.36 -8.16074,0.0162 -16.15078,0.11232 -23.0141,0.23358 -7.41751,0.13104 -13.666137,0.27112 -17.853178,0.3085 -7.37695,0.0659 -11.67206,0.0103 -14.941723,-0.0362 -0.07262,-0.0493 -0.148798,-0.0932 -0.227893,-0.13126 -1.878977,0 -4.925343,-0.13376 -8.671306,-0.27853 -1.381666,-0.0534 -3.19837,-0.0773 -4.746997,-0.12764 0.0038,-0.30999 0.0077,-0.63501 0.0078,-0.63821 4.07e-4,-0.0343 0.03473,-3.08021 0.03514,-3.11454 -1.55e-4,0.0147 0.01152,-1.15675 0.01137,-1.14205 -4.9e-5,0.005 0.0031,-0.3731 0.0031,-0.36793 -1.3e-5,0.002 0.001,-0.12309 0.001,-0.12144 1.94e-4,-0.0323 5.16e-4,-0.0602 5.16e-4,-0.0811 10e-7,-1.94326 0.09488,-3.87377 0.235128,-5.81412 0.140249,-1.94035 0.32574,-3.89112 0.506946,-5.87458 0.197929,-2.16651 0.371317,-4.20058 0.480074,-6.18825 0.108758,-1.98767 0.152694,-3.92914 0.0925,-5.91023 -0.03325,-1.09439 -0.01076,-2.42154 -0.0031,-3.10989 0.0019,-0.16674 0.0038,-0.33018 0.0052,-0.49351 0.01628,-1.90023 -0.0308,-2.93108 -0.109037,-3.83232 -0.08861,-0.19728 -0.213618,-0.37611 -0.368453,-0.5271 0.02125,-0.0343 0.04142,-0.0693 0.06046,-0.10491 0,-2.81583 0.100358,-4.74814 0.340031,-9.84849 0.06981,-1.48567 0.142739,-3.12961 0.182418,-4.84932 0.03968,-1.7197 0.04569,-3.51542 -0.01757,-5.30458 -0.07878,-2.22807 -0.324858,-4.43808 -0.593762,-6.53552 -0.268904,-2.09744 -0.560439,-4.08304 -0.729155,-5.86166 -0.07146,-0.75331 -0.106151,-1.47616 -0.125573,-1.96009 -0.03465,-0.86319 -0.06483,-2.36993 -0.06873,-2.53628 -0.02251,-0.0403 -0.04647,-0.0798 -0.07183,-0.11833 0.06754,-0.0965 0.126509,-0.19867 0.176216,-0.30541 0,-3.473462 0.294229,-15.824617 0.56534,-21.025075 0.156681,-3.00545 0.305261,-5.229496 0.405144,-6.69985 11.705074,-0.176371 20.608266,-0.305884 27.701668,-0.383439 7.488126,-0.08187 13.457576,-0.115755 20.120736,-0.115755 0.3633,-0.08614 0.69353,-0.276768 0.94982,-0.548287 0.0752,0.03612 0.15276,0.06737 0.23202,0.09353 0.81411,-0.114453 1.6947,-0.156231 3.54397,-0.126607 0.98038,0.0157 2.20435,0.04636 3.38791,-0.02584 0.20732,-0.01265 0.42514,-0.02907 0.65009,-0.05064 2.7248,-0.244009 4.9053,-0.626241 8.06204,-1.082105 1.2438,-0.179616 2.51643,-0.349092 3.80804,-0.470772 0.82891,-0.07809 1.67574,-0.08973 2.51819,-0.118856 z m 3.9026,0.09405 c 0.86409,0.05736 1.72347,0.07534 2.59416,0.166915 1.70877,0.179722 3.43334,0.410119 5.18366,0.631486 1.8842,0.238299 3.69181,0.44966 5.4715,0.580843 1.7797,0.131184 3.5322,0.182117 5.30666,0.100253 2.76517,-0.128138 5.61461,-0.372329 7.81761,-0.559139 0.93978,-0.07969 1.82415,-0.154863 2.72283,-0.227893 1.93905,-0.157576 3.72002,-0.285227 5.42034,-0.371554 1.70032,-0.08633 3.32106,-0.131506 4.93975,-0.12454 1.8814,0.02325 3.95224,0.246462 5.67149,0.392741 0.23622,0.0201 0.47691,0.04019 0.71933,0.05943 1.60136,0.127048 2.87541,0.18343 3.96565,0.185518 0.49223,9.43e-4 0.86274,-0.04349 1.29346,-0.06305 0.0133,0.145057 0.0445,0.287936 0.093,0.425297 0.42372,0.46494 1.06347,0.668469 1.67794,0.533817 1.46103,-0.32 3.26965,-0.653344 5.4963,-0.901237 1.11333,-0.123946 2.33166,-0.226732 3.66283,-0.295589 1.33116,-0.06886 2.77626,-0.10396 4.34288,-0.09302 1.43033,0.01 2.84424,0.118417 4.26589,0.191719 -0.0156,0.06886 -0.034,0.135276 -0.0481,0.205156 -0.068,0.336878 -0.12376,0.706186 -0.17053,1.089339 -0.045,0.368287 -0.0823,0.755525 -0.1142,1.1467 -0.0616,0.754491 -0.10092,1.498791 -0.13333,2.117183 -0.0154,0.294447 -0.0291,0.552055 -0.0419,0.741557 -0.006,0.09386 -0.0125,0.171507 -0.0181,0.221692 -0.003,0.02484 -0.005,0.04347 -0.007,0.05013 -0.002,0.0066 -0.004,0.0034 -0.001,-0.03101 -0.30673,2.361694 -0.53259,4.697582 -0.69402,6.996989 -0.16142,2.299407 -0.25859,4.562847 -0.30799,6.780465 -0.0494,2.217618 -0.0511,4.389736 -0.0217,6.506063 0.0294,2.116322 0.09,4.177732 0.16485,6.173262 0.0126,0.80211 -0.0899,2.11841 -0.11989,2.75591 -10e-4,0.0306 -0.003,0.0614 -0.004,0.092 -0.0373,0.84464 -0.0267,1.51387 0.0155,2.07481 0.0423,0.56094 0.11587,1.01336 0.20463,1.4242 0.0225,0.0259 0.0456,0.0512 0.0692,0.076 -0.0766,0.13009 -0.13651,0.26935 -0.17828,0.41444 0.1104,0.93386 0.29139,2.68769 0.34623,5.24102 0.0341,1.58669 0.0221,3.06432 -0.0367,4.85966 -0.0588,1.79533 -0.16458,3.90894 -0.31884,6.76547 -0.0987,1.82837 -0.18847,3.56705 -0.24702,5.26325 -0.0585,1.6962 -0.0861,3.34997 -0.061,5.00744 0.0249,1.64084 0.0999,3.03922 0.19689,4.22249 0.0181,0.22066 0.0421,0.34132 0.0615,0.54725 -0.37293,0.42515 -0.57025,0.97628 -0.55191,1.54151 0.0751,0.41257 0.16944,1.00715 0.24081,1.82108 0.0714,0.81392 0.11971,1.84709 0.10284,3.13624 -0.009,0.67728 -0.036,1.49806 -0.0982,2.51096 -0.17148,2.79209 -0.43737,4.84285 -0.82476,8.69249 -0.15478,1.53806 -0.29055,3.0521 -0.37776,4.53512 -0.0872,1.48303 -0.1258,2.93541 -0.0858,4.34961 0.0286,1.01206 0.0969,1.92979 0.19431,2.76314 0.0974,0.83334 0.22432,1.58279 0.37052,2.25877 0.21324,0.98598 0.48612,1.67115 0.75085,2.37815 -2.93053,-0.1034 -5.86639,-0.20613 -7.24503,-0.24494 -0.41129,0.0509 -0.78841,0.25479 -1.05627,0.57102 -0.78743,-0.0451 -1.36837,-0.0429 -2.73161,-0.20877 -1.43245,-0.17425 -3.105,-0.4014 -4.76664,-0.49041 -1.76778,-0.0947 -3.56629,-0.14511 -5.34748,-0.16485 -1.78118,-0.0197 -3.54542,-0.009 -5.24309,0.0207 -3.39533,0.0584 -6.527,0.18834 -9.00668,0.28629 -2.08589,0.0824 -3.42335,0.13639 -5.01262,0.19275 -3.61762,0.1283 -6.40877,0.17976 -8.68474,0.18345 -2.27597,0.004 -4.03747,-0.0402 -5.59552,-0.10283 -0.0393,0.0189 -0.0779,0.0392 -0.11576,0.061 -0.0765,-0.22868 -0.20207,-0.43788 -0.36793,-0.61289 -0.25822,-0.14334 -0.54504,-0.21255 -0.83044,-0.20774 -0.28541,0.005 -0.56946,0.0837 -0.82269,0.23565 0.0266,-0.0159 -0.0157,0.0129 -0.15917,0.0574 -0.11781,0.0365 -0.29207,0.0812 -0.54156,0.12712 -0.42117,0.0774 -1.00417,0.1492 -1.79783,0.20412 -1.33318,0.0923 -3.04249,0.12136 -5.09478,0.0966 -1.81052,-0.0218 -3.64262,-0.0817 -5.33559,-0.14211 -0.57937,-0.0207 -1.07946,-0.0385 -1.57975,-0.0558 -0.26831,-1.06002 -0.55588,-2.32957 -0.79426,-3.9641 -0.1274,-0.87352 -0.24072,-1.8349 -0.3297,-2.89026 -0.089,-1.05537 -0.15368,-2.205 -0.18345,-3.45457 -0.0426,-1.78743 -0.0119,-3.6032 0.0724,-5.46375 0.0843,-1.86056 0.22191,-3.76652 0.39377,-5.73402 0.50632,-5.79663 1.13498,-11.33448 1.36994,-14.5371 0.15489,-2.11117 0.23645,-3.85358 0.27544,-5.28598 0.0187,-0.6852 0.008,-1.08934 0.0109,-1.63917 0.16662,-0.19626 0.29636,-0.42108 0.38292,-0.66353 0,-0.17943 -0.005,-0.4177 -0.0357,-0.76481 -0.0208,-0.23383 -0.0528,-0.50533 -0.0987,-0.82321 -0.0316,-0.21895 -0.0695,-0.45582 -0.11368,-0.70848 -0.056,-0.32009 -0.12928,-0.70416 -0.22221,-1.16685 -0.1259,-0.62682 -0.25347,-1.23029 -0.40308,-1.95182 -0.12823,-0.61843 -0.24154,-1.17494 -0.33021,-1.6521 -0.13364,-0.93698 -0.21518,-1.8941 -0.2589,-2.85616 -0.0437,-0.96205 -0.0494,-1.92957 -0.031,-2.88664 0.0368,-1.91414 0.16979,-3.78817 0.28836,-5.50199 0.16453,-2.37824 0.25541,-3.75508 0.31161,-5.38417 0.0562,-1.63028 0.0463,-2.95799 0.002,-4.04626 -0.0264,-0.64094 -0.078,-1.04892 -0.12196,-1.53634 0.1917,-0.12846 0.38219,-0.2706 0.55759,-0.45941 0.17166,-0.18478 0.32234,-0.38982 0.45269,-0.61288 0.2212,-0.37853 0.37441,-0.79252 0.47955,-1.22318 0.17285,-0.70795 0.22338,-1.49214 0.21601,-2.29185 -0.006,-0.703802 -0.0575,-1.396045 -0.10387,-2.020545 -0.0216,-0.291422 -0.0402,-0.545285 -0.0517,-0.762744 -0.0117,-0.221699 -0.0126,-0.351547 -0.009,-0.415996 0.0357,-0.707366 0.13152,-1.416959 0.2651,-2.150773 0.13359,-0.733813 0.30509,-1.492038 0.493,-2.29495 0.19997,-0.854495 0.39824,-1.684501 0.56689,-2.516642 0.16864,-0.832142 0.30785,-1.6663 0.38964,-2.528528 0.0734,-0.773559 0.0949,-1.56631 0.0832,-2.342493 -0.0118,-0.776182 -0.057,-1.536215 -0.11783,-2.245341 -0.12172,-1.418252 -0.30563,-2.632702 -0.40772,-3.364652 -5.6e-4,-0.004 -0.0155,-0.110736 -0.016,-0.114722 -0.27582,-1.973814 -0.43569,-3.313305 -0.51522,-4.364591 -0.0768,-1.015818 -0.0733,-1.756483 -0.032,-2.545582 z M -16.0538,73.14954 c -0.0068,0.779362 -0.03955,1.49833 0.03824,2.473751 0.120541,1.511524 0.363266,3.306895 0.791683,5.533512 0.1396,0.725549 0.293027,1.475271 0.480591,2.361613 0.310383,1.466729 0.717463,3.255807 1.069185,5.142322 0.175861,0.943258 0.337993,1.911507 0.467155,2.875794 0.129162,0.964286 0.225311,1.925237 0.269751,2.854606 0.05712,1.302633 0.06102,2.618919 0.03721,3.895369 -0.02381,1.27645 -0.07493,2.513963 -0.127124,3.659213 -0.08707,1.91036 -0.12913,2.62555 -0.178284,3.91965 -0.07271,1.91442 -0.07235,3.10602 -0.07235,3.86953 0.08809,0.24926 0.221427,0.48019 0.393258,0.6811 0.131573,4.46927 0.106935,3.49863 0.264067,8.85786 0.133036,4.78848 0.371092,14.35058 0.700732,23.95822 -0.0041,0.35028 -0.01752,0.74144 -0.03359,1.19941 -0.01736,0.49458 -0.03369,0.9681 -0.03876,1.44229 -0.0029,0.27216 0.01268,0.43927 0.01757,0.66456 -0.03524,0.0642 -0.06664,0.1305 -0.09405,0.19844 0.100972,1.24268 0.163308,2.61588 0.149345,4.32738 -0.01396,1.71151 -0.10415,3.76117 -0.307992,6.35621 -0.0721,0.91785 -0.152019,1.83714 -0.23306,2.7528 -0.172455,1.94849 -0.492563,5.31898 -0.624768,8.24239 -0.08716,1.92732 -0.02431,3.98181 -0.02274,5.82858 0.0012,1.35646 -0.03484,2.4039 -0.09767,3.2613 -0.0022,0.0301 -0.007,0.0448 -0.0093,0.0744 -1.035292,0.12612 -2.035742,0.25264 -3.011703,0.27543 -2.230187,0.0521 -4.959674,-0.0839 -7.560262,-0.25579 -2.600587,-0.17192 -5.072673,-0.37997 -6.789249,-0.47129 -2.725187,-0.14498 -5.41209,-0.19986 -7.841899,-0.20929 -2.429809,-0.009 -4.602781,0.0266 -6.300391,0.063 -9.449007,0.20294 -16.254098,0.50875 -19.95072,0.57981 -0.197088,-0.19588 -0.441831,-0.33713 -0.710034,-0.40979 -0.620554,0 -1.56654,-0.0122 -2.661853,-0.10077 -1.095313,-0.0886 -2.340755,-0.2536 -3.561023,-0.55914 -0.130548,-0.0327 -0.261376,-0.0669 -0.392224,-0.10284 -0.654973,-0.18006 -1.412952,-0.42717 -2.261361,-0.80098 -0.848409,-0.37382 -1.787446,-0.87463 -2.80448,-1.5627 -0.800775,-0.51778 -1.649966,-0.84298 -2.436027,-1.13739 -0.809878,-0.30334 -1.414159,-0.52892 -1.964738,-0.85887 -0.354481,-0.23703 -0.673521,-0.49552 -0.961181,-0.77204 -0.287661,-0.27652 -0.544016,-0.57113 -0.774113,-0.87954 -0.492503,-0.66011 -0.871317,-1.39539 -1.166337,-2.16886 -0.345835,-0.90669 -0.579666,-1.87832 -0.740007,-2.83445 -0.160341,-0.95613 -0.247236,-1.89704 -0.299723,-2.74195 -0.01918,-0.30883 -0.03402,-0.61056 -0.04548,-0.89969 -0.07126,-1.79921 -0.03574,-3.84308 -0.02894,-5.34076 0.0056,-1.23481 -0.02174,-2.08884 -0.05529,-2.90318 -0.0075,-0.18264 -0.0029,-0.48423 -0.0124,-0.65112 -0.03069,-0.54042 -0.09267,-0.90624 -0.143661,-1.3255 -0.08947,-0.14041 -0.203641,-0.26351 -0.33693,-0.36329 0.05479,0.0169 0.123623,0.049 0.184485,0.10232 0.03936,0.0345 0.05812,0.0667 0.05271,0.0558 -0.0048,-0.01 -0.0242,-0.0485 -0.04703,-0.13229 -0.0204,-0.0749 -0.04202,-0.17901 -0.05891,-0.31936 -0.0099,-0.0823 -0.0013,-0.23252 -0.0067,-0.33279 -0.01134,-0.20864 -0.02828,-0.39844 -0.01447,-0.69247 0.0025,-0.0541 0.0053,-0.10936 0.0088,-0.16588 0.01971,-0.31806 0.05638,-0.69527 0.116789,-1.14618 0.113486,-0.84707 0.281932,-1.73958 0.489893,-2.73627 0.08386,-0.40193 0.167098,-0.78781 0.237195,-1.1281 0.03317,-0.16104 0.06411,-0.31532 0.08992,-0.45475 0.02473,-0.13362 0.04733,-0.26729 0.06305,-0.38912 0.176047,-1.24772 0.274807,-2.50162 0.314193,-3.76773 0.03938,-1.26611 0.01944,-2.54537 -0.04134,-3.8437 -0.116778,-2.49446 -0.379552,-4.97213 -0.62115,-7.45174 -0.242982,-2.49381 -0.452993,-4.88798 -0.481108,-7.26725 -0.01461,-1.23659 0.02077,-2.43706 0.119889,-3.61012 0.09912,-1.17306 0.261672,-2.31954 0.501779,-3.44785 0.105422,-0.52411 0.09668,-1.02679 0.07131,-1.4149 -0.02554,-0.39088 -0.09958,-0.98004 -0.12144,-1.18598 -0.0013,-0.0119 -0.0014,-0.0195 -0.0026,-0.031 0.545597,-0.34546 0.888269,-0.93569 0.917773,-1.58078 0.0027,-1.00754 -0.03839,-1.90265 -0.148311,-3.00189 -0.109922,-1.09924 -0.288392,-2.40318 -0.559656,-4.2292 -0.08065,-0.54286 -0.162161,-1.0999 -0.236161,-1.65416 -0.0937,-0.70184 -0.188707,-1.486068 -0.250631,-2.317687 -0.06192,-0.831619 -0.09091,-1.711086 -0.05374,-2.602942 0.02746,-0.723432 0.111953,-1.454215 0.241846,-2.248441 0.129894,-0.794227 0.305152,-1.652221 0.514181,-2.629297 0.17378,-0.812311 0.371915,-1.710466 0.545186,-2.64635 0.173271,-0.935884 0.321816,-1.909972 0.397392,-2.873727 0.02375,-0.321885 0.02443,-0.655462 0.01654,-0.975134 -0.0079,-0.319775 -0.02535,-0.654357 -0.04393,-0.979268 -0.03838,-0.671266 -0.07991,-1.303662 -0.08217,-1.927015 -0.0023,-0.62882 0.03792,-1.14443 0.130224,-1.549776 0.04548,-0.199696 0.09841,-0.349419 0.150896,-0.459403 0.04044,-0.08476 0.07852,-0.141932 0.11007,-0.180868 0.0093,-0.01145 0.01856,-0.02171 0.02739,-0.03101 0.664025,-0.654571 1.355488,-1.206295 2.082043,-1.668632 0.726555,-0.462336 1.488762,-0.83587 2.294434,-1.134297 0.754033,-0.279301 1.540019,-0.490465 2.368331,-0.649056 0.828312,-0.158592 1.699107,-0.264703 2.623096,-0.332797 1.800996,-0.132724 3.597729,-0.113606 5.66322,-0.129707 0.971687,-0.0076 1.981544,-0.02328 3.012736,-0.07441 1.031191,-0.05113 2.084482,-0.137844 3.142444,-0.286288 1.234044,-0.17333 2.413607,-0.503361 3.449918,-0.785482 1.129251,-0.307422 2.051588,-0.546808 2.998784,-0.660424 1.182557,-0.143562 2.657572,-0.264438 4.220931,-0.358118 1.709558,-0.102441 3.491977,-0.170294 5.167643,-0.206189 1.943657,-0.04164 3.693361,-0.03996 5.161959,-0.0083 0.779343,0.01682 1.080742,0.06099 1.6769,0.09043 0.06803,0.387248 0.252041,0.74482 0.527616,1.025261 0.583273,0.375758 1.322878,0.411812 1.939933,0.09457 0.250198,-0.128664 0.718663,-0.402367 1.208195,-0.677478 0.06385,-0.03589 0.128177,-0.07149 0.192237,-0.105937 0.198196,-0.106582 0.432648,-0.224125 0.660941,-0.301274 0.376285,-0.12716 0.90788,-0.227627 1.65623,-0.275435 0.672327,-0.04295 1.42621,-0.03842 2.300118,-0.0088 0.910964,0.03089 1.613947,0.07195 2.524911,0.102836 0.807066,0.02579 1.6799,0.0349 2.481502,-0.03617 1.730511,-0.153434 3.46782,-0.255861 5.215185,-0.315227 1.612361,-0.05478 3.236615,-0.06486 4.869471,-0.05219 z m 3.816304,0.146761 c 2.4545299,0.08337 4.8958926,0.149736 7.4217693,0.328146 7.1344296,0.503924 14.3951004,1.295125 21.5966147,1.769917 1.72787,0.113918 3.495679,0.09373 5.180562,0.02274 1.684883,-0.07099 3.288059,-0.193225 4.687569,-0.283187 1.411499,-0.09073 2.846264,-0.107266 4.2323,-0.08682 1.386037,0.02045 2.724005,0.07807 3.941878,0.136942 3.702365,0.178963 5.413568,0.268121 7.631059,0.288872 0.09392,0.0092 0.188575,0.01203 0.283187,0.0072 0.379565,0.186458 0.810325,0.241893 1.224731,0.157613 0.199178,-0.08322 0.584052,-0.275428 0.8816,-0.417028 0.02646,-0.01259 0.05215,-0.02479 0.077,-0.03617 0.141707,-0.06489 0.241111,-0.101081 0.303341,-0.113688 0.284279,-0.05759 0.636951,-0.08698 1.091406,-0.07493 0.418621,0.0111 0.875717,0.05512 1.413351,0.123507 0.869587,0.110613 2.234727,0.340218 3.368269,0.353467 3.592662,0.04199 7.002931,0.02879 10.40505,0 -0.101297,1.501 -0.239904,3.566882 -0.39119,6.468855 -0.27361,5.24837 -0.571025,17.722539 -0.571025,21.234883 0.05458,0.1204 0.120884,0.23518 0.197921,0.34261 -0.03405,0.0552 -0.06527,0.11214 -0.09354,0.17053 0.0029,0.12317 0.03445,1.69471 0.0708,2.60036 0.02039,0.50798 0.0583,1.31148 0.139526,2.16783 0.178997,1.88701 0.470429,3.91504 0.734839,5.97845 0.26441,2.0634 0.501846,4.16267 0.573609,6.19238 0.06016,1.70152 0.05445,3.41783 0.01602,5.08031 -0.03843,1.66248 -0.10942,3.27145 -0.179317,4.75889 -0.238896,5.08381 -0.343648,7.10717 -0.343648,10.02832 0.06974,0.48749 0.324824,0.92934 0.712101,1.23352 0.05709,0.72922 0.102098,1.53869 0.08785,3.20136 -0.0014,0.15921 -0.0033,0.31945 -0.0052,0.48472 -0.0072,0.64401 -0.03137,2.06687 0.0047,3.25251 0.05673,1.86723 0.01541,3.70613 -0.0894,5.61878 -0.104808,1.91266 -0.273195,3.8995 -0.470772,6.06217 -0.178803,1.95714 -0.367695,3.93833 -0.512114,5.93968 -0.144418,2.00136 -0.244429,4.02342 -0.244429,6.06217 0,0.01 1.87e-4,0.0293 0,0.0605 l -10e-4,0.11524 c -1.7e-5,0.002 -0.0031,0.36011 -0.0031,0.36225 -8.1e-5,0.009 -0.01129,1.13037 -0.01137,1.13895 3.57e-4,-0.034 -0.03498,3.14337 -0.03462,3.10937 4.2e-5,-0.004 -0.0038,0.30609 -0.0072,0.58653 -1.617676,-0.0399 -2.979687,-0.10958 -4.681368,-0.12609 -7.491305,-0.0727 -14.284022,-0.0753 -20.897949,-0.13643 -3.306964,-0.0306 -6.56955,-0.0757 -9.852629,-0.15141 -3.283078,-0.0757 -6.587151,-0.18197 -9.976652,-0.33487 -1.249147,-0.0564 -2.375864,-0.15369 -3.355351,-0.26406 -0.979486,-0.11038 -1.811809,-0.23409 -2.4722001,-0.34313 -2.0109807,-0.33204 -3.5440714,-0.7194 -4.2271322,-0.89814 -0.6150701,-0.16084 -1.2692607,0.0186 -1.7161743,0.47077 -0.1459226,0.26244 -0.2230778,0.55755 -0.2242757,0.85783 -0.3881686,0.0783 -0.7556273,0.16063 -1.2293823,0.22169 -1.0613363,0.1368 -2.24621937,0.20924 -3.6468059,0.22738 -2.273069,0.0294 -4.945173,-0.12718 -7.5364909,-0.0693 -0.2550797,0.006 -0.4968654,0.0529 -0.7487915,0.0672 0.051721,-0.86768 0.0925,-1.78937 0.091467,-3.00447 -0.00171,-2.00812 -0.062987,-3.84191 0.01912,-5.65753 0.1275929,-2.82143 0.437186,-6.08592 0.613916,-8.08271 0.081332,-0.91893 0.1625939,-1.85294 0.2361613,-2.7895 0.2098848,-2.67195 0.3047114,-4.81054 0.3193604,-6.6213 0.00414,-0.5119 -0.037603,-0.85154 -0.045475,-1.31568 0.081904,-0.0212 0.1624869,-0.0473 0.241329,-0.078 0.5159493,-0.57233 0.6873362,-1.37647 0.4495849,-2.10943 -0.0081,-0.025 -0.036701,-0.1223 -0.090434,-0.48266 -0.00651,-0.0436 -0.013418,-0.0939 -0.021187,-0.15193 -0.035983,-0.26868 -0.072233,-0.62215 -0.1038696,-1.1684 -0.025136,-0.43403 -0.039752,-0.84215 -0.060461,-1.36323 -0.01768,-0.44484 -0.038271,-0.91976 -0.072864,-1.35082 -0.4482091,-9.59096 -0.800799,-19.11381 -0.9606649,-23.91069 -0.1374937,-4.12558 -0.2281232,-7.58962 -0.2728515,-9.14259 0.061289,-0.0896 0.1157141,-0.18379 0.1627807,-0.28164 0,-0.76366 0.019205,-1.81472 0.07028,-3.73 0.00972,-0.36467 0.07949,-2.89106 0.1023193,-3.91656 0.025659,-1.15261 0.046913,-2.434659 0.037724,-3.778063 -0.00919,-1.343403 -0.048886,-2.748783 -0.1462443,-4.1491 -0.067229,-1.027776 -0.1923809,-2.08938 -0.3513997,-3.145545 -0.1590189,-1.056165 -0.3523593,-2.107644 -0.5560385,-3.114538 -0.4073582,-2.01379 -0.8569162,-3.851517 -1.1601362,-5.202267 -0.19371,-0.862917 -0.350341,-1.592882 -0.487825,-2.278931 -0.4168,-2.079832 -0.63815,-3.730865 -0.742591,-5.088578 -0.06378,-0.829199 -0.03107,-1.393012 -0.02584,-2.035018 z m 280.906886,0.0832 c 1.19398,0.02539 2.50776,0.08902 3.87108,0.218592 1.40288,0.133334 2.88576,0.338918 4.36149,0.650089 0.73787,0.155586 1.47411,0.337485 2.1978,0.550354 0.72369,0.212869 1.43494,0.456655 2.12287,0.735356 0.61304,0.248364 1.20316,0.522797 1.76371,0.825272 0.56056,0.302475 1.09172,0.632852 1.5875,0.993738 0.47644,0.346806 0.91845,0.720429 1.32189,1.122412 0.40344,0.401984 0.76845,0.832653 1.0914,1.293978 0.056,0.07994 0.12288,0.196156 0.19431,0.359668 0.0711,0.162728 0.14024,0.357385 0.20619,0.585494 0.13774,0.476419 0.2423,1.032235 0.32814,1.62264 0.0922,0.634263 0.16554,1.333461 0.22583,1.884123 0.0971,0.886463 0.16062,1.384012 0.24391,1.855184 0.12029,0.679694 0.59408,1.243713 1.24282,1.479496 0.0767,-0.0089 0.15281,-0.02233 0.22789,-0.04031 0.0819,2.287599 0.0841,4.785975 0.17363,7.454843 0.0626,1.867263 0.2783,3.661596 0.54364,5.56555 0.23906,1.71537 0.5133,3.48456 0.67903,5.23172 0.15236,1.60625 0.22114,3.23716 0.23926,4.90255 0.0181,1.66539 -0.0145,3.36565 -0.0646,5.11131 -0.0489,1.70537 -0.1143,3.44063 -0.15762,5.18108 -0.0433,1.74046 -0.0645,3.48705 -0.0258,5.21467 0.11266,5.02776 -0.0114,9.60195 0.10129,14.6296 0.052,2.16637 0.2161,4.29471 0.37569,6.3438 0.15958,2.04909 0.31453,4.01932 0.34881,5.87044 0.0194,1.04653 0.006,2.04151 -0.0481,2.99465 -0.0537,0.95314 -0.14724,1.86523 -0.28732,2.74609 -0.15709,0.98784 -0.36927,1.91138 -0.63562,2.7807 -0.0573,0.18699 -0.14439,0.34609 -0.2067,0.52814 -0.0483,-0.0266 -0.0807,-0.0564 -0.13126,-0.0811 -0.15278,-0.0749 -0.34823,-0.15643 -0.57723,-0.21291 -0.25803,-0.0636 -0.60304,-0.10623 -0.99425,-0.0372 -0.21995,0.0388 -0.43961,0.11019 -0.64957,0.21859 -0.22955,0.11852 -0.42188,0.26796 -0.57878,0.42788 -0.17245,0.17578 -0.29462,0.35629 -0.38034,0.51315 -0.0979,0.17917 -0.1582,0.34525 -0.19689,0.47439 -0.21362,0.71253 -0.0308,1.48505 0.47956,2.02623 0.40255,0.3074 0.90344,0.45752 1.4087,0.4222 0.15603,0.0323 0.36157,0.0674 0.64079,0.0181 0.0576,-0.0102 0.11549,-0.0428 0.17363,-0.0589 0.0524,-0.0448 0.10264,-0.0923 0.15038,-0.14211 -0.0291,0.0386 -0.0565,0.0784 -0.0822,0.11937 -0.17786,0.1661 -0.31783,0.36865 -0.41031,0.59376 -0.0476,0.0598 -0.0911,0.12288 -0.13022,0.18862 -0.0688,0.84961 -0.21384,1.95535 -0.54725,3.05769 -0.23837,0.7881 -0.55714,1.52458 -0.97876,2.18747 -0.37017,0.582 -0.81089,1.09373 -1.33376,1.5415 -0.5002,0.42836 -1.07307,0.79572 -1.72548,1.11105 -0.72956,0.35262 -1.53687,0.62939 -2.40761,0.85111 -0.68466,0.17434 -1.45118,0.3258 -2.33112,0.45579 -1.79313,0.26489 -3.70745,0.39474 -6.08077,0.53846 -2.1205,0.14483 -4.29185,0.39165 -6.06888,0.51677 -1.00603,0.0708 -1.82075,0.10343 -2.52077,0.10955 -1.56066,0.0136 -2.65166,-0.10272 -3.28611,-0.17983 -0.53684,-0.0653 -1.0678,0.1609 -1.39268,0.59324 -0.32471,0.43221 -0.39425,1.00488 -0.18241,1.50224 0.0122,0.009 0.0247,0.0188 0.0372,0.0279 -0.19748,0.0789 -0.33779,0.16383 -0.60254,0.23255 -0.43826,0.11374 -0.93943,0.19931 -1.51154,0.25579 -0.57211,0.0565 -1.21506,0.0843 -1.93787,0.0816 -1.27837,-0.005 -2.58719,-0.0994 -3.95118,-0.20567 -0.63357,-0.0494 -1.27034,-0.10034 -1.8557,-0.13642 -0.58489,-0.0361 -1.15154,-0.0595 -1.66398,-0.0522 -3.37087,0.0481 -7.10192,0.0285 -10.86962,-0.0305 -3.76769,-0.059 -7.57309,-0.15717 -11.09131,-0.26665 -6.31398,-0.19647 -10.93791,-0.40144 -13.53974,-0.50591 0.12096,-0.3302 0.16205,-0.6844 0.11989,-1.03353 -0.25023,-0.57906 -0.53265,-1.36233 -0.76533,-2.43913 -0.11634,-0.53839 -0.22035,-1.15028 -0.30128,-1.84691 -0.0809,-0.69663 -0.13898,-1.47802 -0.16381,-2.35541 -0.0357,-1.26312 -0.002,-2.58028 0.0796,-3.96204 0.0814,-1.38175 0.21012,-2.8286 0.36329,-4.35063 0.3767,-3.74341 0.66014,-5.95806 0.83871,-8.86561 0.0665,-1.08202 0.0966,-1.97404 0.10645,-2.72542 0.0189,-1.44613 -0.0359,-2.62951 -0.11989,-3.58634 -0.084,-0.95683 -0.19738,-1.68744 -0.29559,-2.22726 -0.0488,-0.0645 -0.10107,-0.12622 -0.15658,-0.185 -0.0535,-0.46245 -0.11033,-0.82992 -0.1571,-1.40043 -0.0907,-1.1069 -0.16138,-2.42477 -0.185,-3.98219 -0.0241,-1.588 0.002,-3.17868 0.0589,-4.82967 0.0571,-1.651 0.14506,-3.36297 0.24392,-5.19349 0.1544,-2.85911 0.26218,-5.00314 0.32246,-6.84712 0.0603,-1.84399 0.0729,-3.38845 0.0372,-5.04879 -0.0474,-2.20918 -0.18902,-3.49224 -0.30334,-4.57853 0.53921,-0.50339 0.77918,-1.25028 0.63407,-1.97353 -0.0886,-0.40988 -0.1622,-1.01172 -0.12557,-2.45049 2e-5,-9e-4 0.003,-0.0823 0.003,-0.0832 0.012,-0.44433 0.0825,-2.01551 0.0171,-3.09077 -0.093,-1.97406 -0.1725,-4.00287 -0.22273,-6.078181 -0.0502,-2.075307 -0.0709,-4.19763 -0.046,-6.358269 0.0249,-2.160638 0.0955,-4.360241 0.22789,-6.590295 0.13243,-2.230055 0.32662,-4.491227 0.59893,-6.77478 0.006,-0.0619 0.009,-0.118321 0.0109,-0.159164 0.002,-0.04366 0.003,-0.08872 0.004,-0.131258 0.002,-0.0828 0.003,-0.186966 0.004,-0.287321 0.002,-0.224113 0.004,-0.455905 0.008,-0.756543 0.009,-0.604375 0.025,-1.306171 0.061,-1.99161 0.0187,-0.355897 0.0415,-0.692492 0.0698,-0.999422 0.0298,-0.32358 0.0634,-0.593529 0.0992,-0.809769 7.2e-4,-0.0043 0.001,-0.0061 0.002,-0.01034 -0.0351,0.01157 -0.0591,0.01882 -0.0935,0.03049 -0.14875,0.05048 -0.28087,0.101408 -0.39067,0.15658 -0.0355,0.01784 -0.0705,0.03718 -0.10387,0.05788 0.17186,-0.08148 0.301,-0.180082 0.39119,-0.26355 0.0872,-0.08069 0.1465,-0.155431 0.18345,-0.206706 0.0747,-0.103597 0.0884,-0.144764 0.0899,-0.142627 0.001,0.0021 -0.0114,0.04346 -0.0269,0.111621 -0.0148,0.06524 -0.0319,0.150665 -0.0496,0.256315 0.2501,-0.08234 0.5211,-0.164482 0.66559,-0.217558 0.12522,-0.113278 0.23395,-0.243578 0.32298,-0.387056 1.58574,0.134465 3.16522,0.273962 4.8829,0.452686 2.07856,0.216271 4.38587,0.473375 6.76393,0.712618 2.37807,0.239242 4.82828,0.460837 7.19181,0.607198 2.29639,0.142202 4.64333,0.225476 7.0249,0.201021 1.19078,-0.01223 2.39064,-0.0515 3.59719,-0.123507 1.20655,-0.07201 2.4199,-0.177036 3.63854,-0.32091 0.10896,-0.0063 0.22477,-0.01114 0.34933,-0.01499 0.23593,-0.0073 0.49122,-0.0096 0.82373,-0.0067 0.42915,0.0037 0.93514,0.01723 1.46554,0.01912 0.55848,0.002 1.10761,-0.01113 1.64951,-0.06511 0.78906,-0.0786 1.35434,-0.224458 1.7849,-0.37207 0.0808,-0.07815 0.15478,-0.16305 0.22118,-0.253731 0.50437,-0.08993 1.43699,-0.253156 2.78381,-0.433565 1.40457,-0.188146 3.19792,-0.38703 5.23534,-0.515731 0.77954,-0.04924 1.60803,-0.08875 2.47272,-0.113172 0.88647,-0.02504 1.96138,-0.03831 3.15536,-0.01292 z M -10.367326,144.73432 c 0.0065,-5.3e-4 0.01265,0.004 0.01912,0.004 -0.01295,9.2e-4 -0.02583,0.002 -0.03876,0.003 0.0069,-6.4e-4 0.01274,-0.006 0.01964,-0.007 z m 72.008008,34.432 c -0.2998,0.256 -0.50266,0.60718 -0.574642,0.99478 0.0041,-0.022 0.0085,-0.0439 0.01344,-0.0656 0.0048,-0.0233 0.01766,-0.0685 0.02997,-0.11317 3.58e-4,-10e-4 6.73e-4,-0.002 10e-4,-0.004 0.01375,-0.0456 0.0291,-0.0907 0.04651,-0.13488 0.0045,-0.0113 0.0093,-0.0224 0.01395,-0.0336 0.103442,-0.24687 0.263624,-0.46788 0.469739,-0.64389 z m 2.24069,0.007 c 0.07141,0.0649 0.165242,0.13507 0.207739,0.18655 0.147321,0.17849 0.223411,0.34513 0.254248,0.41703 0.03714,0.0866 0.05989,0.15928 0.07235,0.20258 0.02477,0.0861 0.03726,0.15511 0.04238,0.185 7.86e-4,0.005 3.11e-4,0.005 0.001,0.009 0.0074,0.0123 0.01463,0.0247 0.0217,0.0372 0,0.0529 -1.81e-4,0.0975 0,0.13229 1.23e-4,0.0237 4.41e-4,0.0334 5.16e-4,0.0398 -1.7e-4,-0.005 -9.31e-4,-0.0174 -0.0021,-0.0362 -5.9e-4,-0.01 -0.0015,-0.0279 -0.0036,-0.0506 -0.0013,-0.0147 -0.007,-0.0638 -0.01654,-0.12247 -0.07158,-0.39007 -0.275672,-0.74349 -0.577743,-1.00046 z"
         style="fill:#666666;stroke-width:1px"
         id="path41" />
    </g>
  </g>
</svg>
