<?xml version="1.0" encoding="UTF-8" standalone="no"?>
<!-- Created with Inkscape (http://www.inkscape.org/) -->

<svg
   width="385.19104mm"
   height="118.84446mm"
   viewBox="0 0 385.19104 118.84446"
   version="1.1"
   id="svg1"
   inkscape:version="1.3 (0e150ed6c4, 2023-07-21)"
   sodipodi:docname="Board.svg"
   xmlns:inkscape="http://www.inkscape.org/namespaces/inkscape"
   xmlns:sodipodi="http://sodipodi.sourceforge.net/DTD/sodipodi-0.dtd"
   xmlns:xlink="http://www.w3.org/1999/xlink"
   xmlns="http://www.w3.org/2000/svg"
   xmlns:svg="http://www.w3.org/2000/svg">
  <sodipodi:namedview
     id="namedview1"
     pagecolor="#ffffff"
     bordercolor="#666666"
     borderopacity="1.0"
     inkscape:showpageshadow="2"
     inkscape:pageopacity="0.0"
     inkscape:pagecheckerboard="0"
     inkscape:deskcolor="#d1d1d1"
     inkscape:document-units="mm"
     inkscape:zoom="0.56252586"
     inkscape:cx="490.64411"
     inkscape:cy="887.95917"
     inkscape:window-width="1920"
     inkscape:window-height="1017"
     inkscape:window-x="2552"
     inkscape:window-y="-8"
     inkscape:window-maximized="1"
     inkscape:current-layer="layer1" />
  <defs
     id="defs1">
    <linearGradient
       id="linearGradient131"
       inkscape:collect="always">
      <stop
         style="stop-color:#f9f9f9;stop-opacity:1"
         offset="0"
         id="stop130" />
      <stop
         style="stop-color:#00ffff;stop-opacity:1"
         offset="1"
         id="stop131" />
    </linearGradient>
    <linearGradient
       id="linearGradient129"
       inkscape:collect="always">
      <stop
         style="stop-color:#f9f9f9;stop-opacity:1"
         offset="0"
         id="stop128" />
      <stop
         style="stop-color:#00ffff;stop-opacity:1"
         offset="1"
         id="stop129" />
    </linearGradient>
    <linearGradient
       id="linearGradient127"
       inkscape:collect="always">
      <stop
         style="stop-color:#f9f9f9;stop-opacity:1"
         offset="0"
         id="stop126" />
      <stop
         style="stop-color:#00ffff;stop-opacity:1"
         offset="1"
         id="stop127" />
    </linearGradient>
    <linearGradient
       id="linearGradient125"
       inkscape:collect="always">
      <stop
         style="stop-color:#f9f9f9;stop-opacity:1"
         offset="0"
         id="stop124" />
      <stop
         style="stop-color:#00ffff;stop-opacity:1"
         offset="1"
         id="stop125" />
    </linearGradient>
    <linearGradient
       id="linearGradient112"
       inkscape:collect="always">
      <stop
         style="stop-color:#f9f9f9;stop-opacity:1"
         offset="0"
         id="stop112" />
      <stop
         style="stop-color:#00ffff;stop-opacity:1"
         offset="1"
         id="stop113" />
    </linearGradient>
    <radialGradient
       inkscape:collect="always"
       xlink:href="#linearGradient112"
       id="radialGradient113"
       cx="81.960892"
       cy="259.31775"
       fx="81.960892"
       fy="259.31775"
       r="39.237202"
       gradientTransform="matrix(8.4973176,-0.04926554,0.01502902,2.5922064,-618.38421,-407.89884)"
       gradientUnits="userSpaceOnUse" />
    <radialGradient
       inkscape:collect="always"
       xlink:href="#linearGradient131"
       id="radialGradient114"
       cx="81.960892"
       cy="258.26419"
       fx="81.960884"
       fy="258.26419"
       r="36.356651"
       gradientTransform="matrix(9.1705623,-0.05316948,0.01621996,2.7975883,-673.8557,-457.89059)"
       gradientUnits="userSpaceOnUse" />
    <radialGradient
       inkscape:collect="always"
       xlink:href="#linearGradient129"
       id="radialGradient115"
       cx="81.960892"
       cy="258.62976"
       fx="81.960892"
       fy="258.62976"
       r="35.317223"
       gradientTransform="matrix(9.4404644,-0.05472904,0.01669575,2.8799248,-696.10608,-480.08016)"
       gradientUnits="userSpaceOnUse" />
    <radialGradient
       inkscape:collect="always"
       xlink:href="#linearGradient127"
       id="radialGradient116"
       cx="81.960892"
       cy="258.31146"
       fx="81.960892"
       fy="258.31146"
       r="35.561329"
       gradientTransform="matrix(9.3756613,-0.05435308,0.01658104,2.8601557,-690.75981,-474.08771)"
       gradientUnits="userSpaceOnUse" />
    <radialGradient
       inkscape:collect="always"
       xlink:href="#linearGradient125"
       id="radialGradient117"
       cx="81.960899"
       cy="258.30417"
       fx="81.960899"
       fy="258.30417"
       r="39.189533"
       gradientTransform="matrix(8.5076534,-0.04932332,0.01504663,2.5953597,-619.2207,-406.08117)"
       gradientUnits="userSpaceOnUse" />
  </defs>
  <g
     inkscape:label="Layer 1"
     inkscape:groupmode="layer"
     id="layer1"
     transform="translate(94.955454,-195.8914)">
    <path
       d="m 212.96891,188.10997 c -2.49137,-0.0141 -4.9699,0.0386 -7.37474,0.19533 -1.95223,0.12715 -3.88209,0.35499 -5.78673,0.62735 -1.90463,0.27236 -3.78409,0.58948 -5.63635,0.89556 -1.81232,0.29947 -3.58852,0.58645 -5.34024,0.81493 -1.75172,0.22848 -3.47938,0.3987 -5.19555,0.46406 -1.43268,0.0546 -2.86691,0.0473 -4.33875,0.01 -1.47184,-0.0375 -2.98194,-0.1056 -4.56716,-0.1726 -1.51596,-0.0641 -3.09474,-0.12668 -4.70721,-0.14676 -1.61247,-0.0201 -3.25889,0.002 -4.90978,0.10903 -1.67341,0.108 -3.33569,0.29615 -4.97127,0.52194 -1.63558,0.22578 -3.24429,0.48931 -4.81108,0.74724 -1.58213,0.26045 -3.11652,0.51441 -4.62349,0.73122 -1.50696,0.21681 -2.98693,0.39621 -4.46174,0.50798 -3.71134,0.27968 -7.42658,0.47002 -11.14609,0.58756 -3.71951,0.11754 -7.44398,0.1622 -11.17451,0.15193 -3.73053,-0.0103 -7.46784,-0.0756 -11.21224,-0.17932 -3.7444,-0.10376 -7.49658,-0.24586 -11.25771,-0.40876 -7.517065,-0.32558 -15.067514,-0.7348 -22.632725,-1.08521 -3.782605,-0.1752 -7.569294,-0.33568 -11.357446,-0.46353 -3.788151,-0.12786 -7.57841,-0.22339 -11.367781,-0.2682 -4.993269,-0.0577 -10.196174,-0.28795 -15.439885,-0.39843 -2.621855,-0.0552 -5.254376,-0.0804 -7.876005,-0.0393 -2.621629,0.0412 -5.232933,0.14902 -7.812443,0.35966 -2.195971,0.17951 -4.37826,0.47588 -6.501412,0.81236 -2.123152,0.33648 -4.187677,0.71315 -6.148462,1.05316 -2.064305,0.35797 -4.0473828,0.68219 -5.9975666,0.92553 -1.9501837,0.24334 -3.8674301,0.40585 -5.80016273,0.43925 -9.62800517,0.16257 -18.62863967,0.25549 -27.48721067,0.39377 -8.858572,0.13829 -17.577197,0.32169 -26.642302,0.6656 -2.383208,0.0911 -4.737978,0.30539 -7.02231,0.57619 -2.284332,0.2708 -4.498667,0.59833 -6.600114,0.91674 -2.315331,0.35081 -4.477039,0.68694 -6.582544,0.9741 -2.105505,0.28716 -4.15502,0.52508 -6.24613,0.68006 -1.578962,0.11737 -2.925421,0.0556 -4.174939,-0.0315 -1.229044,-0.0857 -2.681208,-0.22962 -4.041097,-0.17725 -0.747567,0.0288 -1.527796,0.1156 -2.333191,0.30799 -0.831874,0.19872 -1.643426,0.49916 -2.441712,0.92036 -0.814989,0.43001 -1.574996,0.96397 -2.2965,1.58801 -0.739414,0.63954 -1.442815,1.37762 -2.126486,2.19884 -0.171636,0.2078 -0.32887,0.36058 -0.601513,0.62941 -0.132596,0.13075 -0.322391,0.31826 -0.512114,0.52969 -0.206665,0.23031 -0.442671,0.52032 -0.666109,0.8754 -0.240607,0.38236 -0.442647,0.80303 -0.592212,1.26607 -0.156808,0.48547 -0.236878,0.95903 -0.268718,1.4056 -0.0132,0.18509 0.0113,0.35701 0.0129,0.53847 -0.0122,0.0104 -0.024,0.0163 -0.0362,0.0269 -0.26317,0.22819 -0.52389,0.4945 -0.77102,0.80977 -0.45964,0.58638 -0.78341,1.23027 -1.0051,1.88619 -0.20746,0.6138 -0.31753,1.21515 -0.37104,1.73736 -0.0249,0.24253 -0.0381,0.47452 -0.0424,0.69091 -0.0137,0.70115 0.0564,1.43144 0.11989,2.07171 0.10836,1.09269 0.13398,1.52212 0.108,1.81901 -0.0857,0.97992 0.2214,1.95381 0.85369,2.70733 0.2365,0.16016 0.49072,0.29247 0.75758,0.39429 -0.0489,0.45613 -0.13884,0.8641 -0.15865,1.35547 -0.0468,1.16017 -0.008,2.42689 0.14056,3.83905 0.21753,2.07332 0.602784,3.95939 1.031982,6.17585 0.625992,3.22275 1.242385,6.68037 1.794722,10.29808 0.552337,3.6177 1.040641,7.39602 1.411284,11.26081 0.185321,1.93239 0.341313,3.88644 0.460953,5.85287 0.11964,1.96643 0.202942,3.94581 0.243396,5.9278 0.04046,1.98199 0.03777,3.96735 -0.01447,5.94641 -0.05224,1.97906 -0.15421,3.95207 -0.312643,5.90972 -0.06148,0.76093 -0.166153,1.69868 -0.30179,2.82618 -0.198334,1.64869 -0.251251,2.04567 -0.449585,3.69435 -0.312303,2.63326 -0.639603,5.71068 -0.771012,8.79378 -0.06442,1.51134 -0.08411,3.06674 -0.02584,4.60799 0.05827,1.54124 0.194913,3.06866 0.44235,4.52478 0.123557,0.72712 0.277347,1.45352 0.469222,2.16731 0.191874,0.71379 0.421445,1.41518 0.696598,2.09342 0.201052,0.49558 0.429588,0.98614 0.689364,1.46451 0.259775,0.47836 0.550846,0.94457 0.877982,1.39164 0.240024,0.32802 0.50149,0.64861 0.785999,0.95705 0.395438,0.42891 0.820391,0.83221 1.27124,1.21181 0.450849,0.37961 0.927643,0.73546 1.42627,1.06919 0.997253,0.66746 2.082562,1.24674 3.225126,1.75131 1.104033,0.48756 2.286981,0.91627 3.534151,1.29295 1.24717,0.37667 2.558793,0.70127 3.921208,0.97978 1.298098,0.26537 2.654146,0.49136 4.057116,0.6811 1.402971,0.18974 2.853415,0.34351 4.340304,0.46405 2.973777,0.24109 6.094253,0.3501 9.277987,0.35295 3.01509,0.003 6.07556,-0.0906 9.0873,-0.25528 3.011741,-0.1647 5.975758,-0.40103 8.797396,-0.68523 2.711543,-0.27311 5.271032,-0.58821 7.571114,-0.91984 2.246296,-0.32387 4.252429,-0.66431 5.892664,-0.99477 1.630121,-0.33073 3.190996,-0.73678 4.720642,-1.17306 1.529645,-0.43628 3.028165,-0.90281 4.533056,-1.35444 1.405978,-0.42194 2.796847,-0.8244 4.198711,-1.16582 1.401863,-0.34142 2.814929,-0.62193 4.265372,-0.79995 1.692442,-0.20227 3.4140123,-0.35486 5.1629926,-0.46147 1.7489803,-0.10661 3.525546,-0.16741 5.3288737,-0.18707 1.8033277,-0.0197 3.63358672,0.002 5.4890706,0.0605 1.855484,0.0586 3.736584,0.15405 5.6420329,0.28216 3.7445162,0.25175 7.5473052,0.62671 11.4034382,1.0852 3.856134,0.4585 7.766536,1.00091 11.72745,1.58802 7.572712,1.12246 15.471619,2.44057 23.296769,3.55792 3.912575,0.55868 7.807328,1.06712 11.633398,1.47588 3.826071,0.40877 7.584299,0.71771 11.224121,0.87747 1.115332,0.0469 2.214395,0.0402 3.29799,-0.0109 1.083595,-0.0511 2.151932,-0.14661 3.206006,-0.27595 2.108148,-0.25866 4.159578,-0.65389 6.162931,-1.10742 3.947979,-0.89378 7.727014,-2.0063 11.493358,-2.80913 2.12967,-0.45314 4.30504,-0.84146 6.50503,-1.16272 2.19999,-0.32127 4.42486,-0.57566 6.65489,-0.76068 2.23003,-0.18502 4.46557,-0.30081 6.68538,-0.3452 2.21981,-0.0444 4.4246,-0.0174 6.59391,0.0832 0.91372,0.0419 1.87506,0.152 2.8851,0.31988 1.01004,0.16787 2.06874,0.39348 3.17655,0.66714 2.22372,0.54932 4.55304,1.26745 7.00009,2.03863 2.44012,0.769 4.99164,1.5889 7.54786,2.29495 1.29126,0.35666 2.59751,0.68826 3.91035,0.97359 1.31285,0.28532 2.63229,0.52469 3.95067,0.6966 3.78601,0.49564 7.61641,0.86365 11.45201,1.12758 3.83561,0.26393 7.67745,0.42351 11.48716,0.50281 3.8097,0.0793 7.58764,0.0784 11.29595,0.0202 3.70831,-0.0582 7.3475,-0.17373 10.87892,-0.32246 1.85446,-0.0799 3.69133,-0.27882 5.47047,-0.53278 1.77913,-0.25397 3.50077,-0.56275 5.12423,-0.86197 1.80011,-0.33177 3.46331,-0.648 5.07204,-0.91829 1.60874,-0.27028 3.16312,-0.49504 4.74597,-0.6444 2.55109,-0.23992 5.15883,-0.3946 7.72666,-0.51315 2.56783,-0.11855 5.09662,-0.20068 7.48998,-0.2961 2.78742,-0.11114 5.43845,-0.24044 8.03465,-0.43822 2.5962,-0.19777 5.13789,-0.46449 7.70547,-0.84956 1.03164,-0.15444 2.12272,-0.24801 3.25097,-0.30231 1.12825,-0.0543 2.29363,-0.0692 3.47524,-0.0651 0.2836,9.9e-4 0.5685,0.003 0.85318,0.006 3.09635,0.0314 5.75143,0.13867 8.74933,0.0754 1.59887,-0.0337 3.15269,-0.11731 4.66173,-0.27957 1.50905,-0.16227 2.97346,-0.40313 4.39353,-0.75241 0.76905,-0.18915 1.52186,-0.40932 2.2562,-0.66404 0.73434,-0.25473 1.45062,-0.54414 2.14767,-0.87178 0.73547,-0.3457 1.44509,-0.73219 2.12752,-1.16169 0.68243,-0.4295 1.33787,-0.90233 1.96422,-1.42058 0.53405,-0.44365 1.02237,-0.94047 1.46968,-1.47278 0.4473,-0.53232 0.85327,-1.10012 1.2237,-1.68517 0.38044,-0.60088 0.73503,-1.2393 1.06608,-1.90583 0.33105,-0.66653 0.6388,-1.36129 0.92553,-2.07532 0.58718,-1.4623 1.10987,-3.06293 1.57561,-4.7594 0.46574,-1.69648 0.87482,-3.48928 1.23558,-5.33559 0.37299,-1.90884 0.70118,-3.91118 0.98909,-5.97587 0.28791,-2.06468 0.53527,-4.19203 0.74724,-6.35051 0.43103,-4.38905 0.72218,-8.9828 0.89969,-13.57282 0.17577,-4.54516 0.24274,-9.15165 0.21962,-13.62862 -0.0231,-4.47698 -0.13622,-8.82537 -0.32091,-12.85503 -0.17853,-3.89527 -0.42635,-7.53283 -0.72812,-10.67532 -0.14675,-1.52819 -0.30719,-2.95143 -0.48059,-4.23178 -0.16893,-1.2474 -0.35419,-2.3899 -0.55604,-3.37241 -0.16992,-0.84812 -0.3786,-1.71637 -0.62838,-2.60087 -0.24979,-0.88451 -0.5407,-1.78526 -0.87489,-2.69958 -0.33418,-0.91432 -0.71167,-1.84211 -1.13481,-2.77967 -0.42314,-0.93757 -0.89206,-1.88538 -1.4087,-2.83962 -0.70059,-1.29402 -1.50033,-2.61966 -2.4014,-3.9486 -0.90108,-1.32894 -1.90347,-2.66129 -3.00861,-3.96823 -0.40075,-0.47394 -0.81748,-0.94701 -1.24901,-1.41646 -0.4785,-0.52701 -0.88697,-1.05079 -1.33171,-1.66604 -0.44473,-0.61526 -0.9258,-1.32212 -1.54771,-2.21589 -0.46791,-0.67246 -1.03266,-1.47336 -1.70583,-2.3027 -0.67318,-0.82935 -1.45471,-1.68737 -2.35542,-2.47323 -0.67247,-0.5846 -1.40989,-1.09226 -2.19004,-1.53479 -0.78016,-0.44254 -1.60296,-0.82004 -2.44637,-1.14464 -0.82806,-0.31869 -1.69874,-0.59482 -2.60035,-0.83457 -0.90161,-0.23975 -1.83467,-0.44304 -2.78846,-0.61599 -1.84885,-0.33523 -3.8249,-0.56489 -5.87148,-0.71675 -2.04658,-0.15185 -4.16404,-0.22578 -6.29471,-0.24959 -4.13914,-0.0463 -8.30157,0.0967 -12.11864,0.23047 -1.84988,0.0648 -3.59489,0.1261 -5.16247,0.15917 -1.55433,0.0328 -2.89804,0.0368 -3.99097,-0.007 -4.06754,-0.16367 -8.79921,-0.50453 -13.71596,-0.72605 -2.45838,-0.11076 -4.96295,-0.19162 -7.45433,-0.20567 z m -0.66662,7.7711 c 0.24021,-0.001 0.48084,-8.1e-4 0.72192,5.1e-4 -0.42526,-0.002 -0.84446,0.0117 -1.26711,0.0165 0.18311,-0.002 0.3616,-0.0162 0.54519,-0.0171 z m 1.08003,0.0103 c 2.21867,0.0182 4.4524,0.0849 6.68022,0.18552 4.69449,0.21197 9.35751,0.54148 13.77022,0.71314 1.32951,0.0518 2.85744,0.0423 4.46484,0.007 1.63249,-0.0362 3.43628,-0.10186 5.26996,-0.16795 3.83791,-0.13832 7.82778,-0.27839 11.76156,-0.23874 2.03739,0.0205 3.98573,0.0898 5.80998,0.22273 1.82425,0.13292 3.52474,0.33 5.06687,0.60719 1.57914,0.28384 2.9119,0.63752 3.99718,1.05265 0.55857,0.21367 1.02574,0.4338 1.41386,0.65268 0.38812,0.21887 0.6969,0.43694 0.93896,0.64595 0.51365,0.4413 0.9881,0.94846 1.45263,1.51205 0.46453,0.56359 0.91944,1.18341 1.39371,1.85054 0.55433,0.77974 1.09562,1.56331 1.67432,2.33939 0.57869,0.77608 1.19492,1.54486 1.89911,2.29598 0.3621,0.38764 0.71311,0.77953 1.05213,1.17357 0.93796,1.09022 1.79066,2.201 2.56005,3.30936 0.76938,1.10836 1.4556,2.21438 2.05982,3.29541 0.88742,1.5877 1.60527,3.13349 2.17506,4.6116 0.56979,1.47812 0.99158,2.88909 1.28571,4.20853 0.16545,0.76417 0.33312,1.72956 0.49713,2.87321 0.16698,1.16437 0.32664,2.48947 0.47594,3.94446 0.30718,2.99365 0.56728,6.50621 0.76171,10.3079 0.20121,3.93421 0.33306,8.185 0.37672,12.56151 0.0437,4.37651 -10e-4,8.87974 -0.15193,13.31857 -0.15227,4.47963 -0.41394,8.9339 -0.80873,13.1625 -0.19452,2.08343 -0.42189,4.11706 -0.68472,6.07301 -0.26282,1.95596 -0.56117,3.83484 -0.89813,5.60896 -0.3289,1.73169 -0.6928,3.35246 -1.09141,4.83795 -0.39861,1.4855 -0.8323,2.83558 -1.30121,4.0256 -0.45464,1.15378 -0.92525,2.11403 -1.40147,2.87941 -0.46931,0.75429 -0.9037,1.25499 -1.27279,1.56889 -0.77754,0.66001 -1.64835,1.22374 -2.62774,1.69757 -0.93217,0.45099 -1.96941,0.82368 -3.12901,1.12035 -1.08296,0.27707 -2.24252,0.48067 -3.49901,0.62528 -1.25649,0.14461 -2.60984,0.23029 -4.08141,0.27027 -2.84814,0.0774 -5.21733,-0.0141 -8.53591,-0.0346 -0.29686,-0.002 -0.59635,-0.003 -0.89659,-0.003 -1.22315,3.5e-4 -2.51104,0.0181 -3.81475,0.0853 -1.30371,0.0671 -2.62341,0.18325 -3.90932,0.37931 -2.37972,0.36322 -4.75443,0.61779 -7.22385,0.80925 -2.46942,0.19146 -5.03384,0.31994 -7.79229,0.43098 -2.32112,0.0934 -4.88125,0.1767 -7.52667,0.29817 -2.64543,0.12148 -5.37661,0.28106 -8.03931,0.52865 -1.76241,0.16345 -3.49203,0.41038 -5.21518,0.69505 -0.88426,0.14608 -1.7725,0.31299 -2.6572,0.47284 -0.31482,-0.77778 -0.63297,-1.59269 -0.90331,-2.60553 -0.32834,-1.23018 -0.59987,-2.64346 -0.75499,-4.2633 -0.11251,-1.1749 -0.1603,-2.40644 -0.14263,-3.72484 0.0177,-1.31839 0.10081,-2.724 0.25063,-4.24832 0.26613,-2.70763 0.69771,-5.40428 1.2113,-8.53384 0.46347,-2.82414 0.98049,-5.92461 1.30638,-8.99894 0.22284,-2.08453 0.3171,-4.19768 0.33693,-6.27403 0.0198,-2.07635 -0.0351,-4.11568 -0.11059,-6.05235 -0.18186,-4.66464 -0.42632,-8.74333 -0.47645,-11.69179 -0.007,-1.10446 -0.009,-2.17207 -0.009,-3.18378 -7.7e-4,-11.14774 0.16323,-20.311 0.11679,-28.38897 -0.0259,-4.50688 -0.0946,-8.63628 -0.20205,-12.64471 -0.11845,-4.41847 -0.28796,-8.13247 -0.48834,-11.2975 -0.12284,-1.94013 -0.2718,-3.34279 -0.41342,-4.90616 z m -6.07353,0.1447 c 0.15813,1.6001 0.32022,3.08018 0.46251,5.15937 0.21349,3.11984 0.3838,6.786 0.43408,11.01793 0.0466,3.92047 -0.0237,7.99639 -0.16433,12.44369 -0.12621,3.99248 -0.32712,8.26711 -0.5178,12.95838 -0.19068,4.69127 -0.37076,9.7996 -0.45475,15.45901 -0.0153,1.02802 -0.0275,2.11204 -0.0341,3.23804 -0.0298,1.90146 0.005,3.61098 0.0698,5.487 0.0649,1.87603 0.16039,3.9188 0.25322,6.48643 0.0689,1.9065 0.11841,3.81955 0.1049,5.70818 -0.0135,1.88862 -0.0902,3.75317 -0.27285,5.56193 -0.2885,2.82428 -0.75311,5.70558 -1.21078,8.58811 -0.49465,3.11549 -0.94841,6.03971 -1.22318,9.02012 -0.15678,1.70062 -0.24403,3.31718 -0.25528,4.87464 -0.0112,1.55746 0.0537,3.05606 0.20257,4.52065 0.10392,1.02231 0.24481,1.98531 0.41393,2.89182 0.16912,0.9065 0.36667,1.75646 0.58291,2.55281 0.20145,0.74189 0.44977,1.2853 0.67696,1.93632 -0.0328,0.005 -0.0659,0.012 -0.0987,0.0165 -1.6135,0.2246 -3.21961,0.39116 -4.81728,0.45321 -3.49534,0.14033 -7.07975,0.24583 -10.71717,0.29507 -3.63743,0.0492 -7.32858,0.0417 -11.03809,-0.0439 -3.70951,-0.0857 -7.4376,-0.2493 -11.14919,-0.51366 -3.71159,-0.26436 -7.40733,-0.62936 -11.05101,-1.11621 -1.10356,-0.14838 -2.23242,-0.35664 -3.38687,-0.61237 -1.15445,-0.25572 -2.33452,-0.55862 -3.54138,-0.8971 -2.40592,-0.67477 -4.80966,-1.45765 -7.30447,-2.25516 -0.92895,-0.29696 -1.87829,-0.54325 -2.82153,-0.83302 0.3927,-0.41065 0.69218,-0.90121 0.87798,-1.43816 0.16191,-1.0348 -0.0939,-2.09158 -0.71107,-2.9378 -0.0551,-0.0756 -0.21772,-0.3079 -0.42323,-0.97824 -0.1519,-0.4955 -0.30503,-1.18053 -0.42478,-2.1177 -0.10553,-0.82597 -0.17347,-1.75048 -0.20722,-2.77347 -0.0338,-1.02299 -0.0338,-2.14455 -0.004,-3.36414 0.0575,-2.32491 0.21725,-4.74229 0.34365,-6.79235 0.0717,-1.16316 0.1293,-2.1513 0.1664,-3.05821 l 0.002,-0.0398 c 0.0391,-0.97051 0.0548,-1.8839 0.0295,-2.70061 -0.0262,-3.51683 -0.11642,-7.09318 -0.24805,-10.66808 -0.13163,-3.5749 -0.30496,-7.14851 -0.49713,-10.66034 -0.38434,-7.02364 -0.84462,-13.80036 -1.20199,-19.84478 -0.0769,-1.30105 -0.15076,-2.5847 -0.22066,-3.85661 -0.19383,-3.52696 -0.36673,-7.07882 -0.50436,-10.62778 -0.13764,-3.54895 -0.24003,-7.09494 -0.29197,-10.60917 -0.0524,-3.5477 -0.0469,-6.60918 -0.0134,-9.20822 0.0265,-2.05745 0.0753,-3.60393 0.12144,-5.09426 3.19238,-0.12125 6.38658,-0.26303 9.58391,-0.50333 1.67677,-0.12543 3.34602,-0.32722 4.98161,-0.56069 1.63559,-0.23347 3.23776,-0.49861 4.78059,-0.75138 1.58966,-0.26044 3.11846,-0.50799 4.61315,-0.71365 1.49469,-0.20566 2.95529,-0.36952 4.40852,-0.4625 1.41737,-0.0907 2.85083,-0.11059 4.31136,-0.0915 1.46053,0.0191 2.94863,0.0771 4.47673,0.14211 1.53439,0.0653 3.10584,0.13787 4.69946,0.17828 1.59362,0.0404 3.20954,0.0489 4.83226,-0.0129 1.99471,-0.076 3.97603,-0.27236 5.90661,-0.524 1.93059,-0.25164 3.81091,-0.55848 5.60328,-0.85525 1.90755,-0.31584 3.71205,-0.61947 5.46995,-0.8723 1.7579,-0.25283 3.46938,-0.45512 5.1909,-0.56844 0.39561,-0.026 0.80833,-0.0123 1.20664,-0.0325 z m -174.309254,2.99568 c 2.478708,-0.0354 4.971757,-0.007 7.489982,0.0506 5.036451,0.11536 10.175923,0.34694 15.513782,0.4129 0.864912,0.0105 1.726486,0.046 2.59054,0.0615 -0.375155,5.3836 -0.939694,13.3826 -1.572514,22.61929 -0.203397,2.96879 -0.431997,6.27186 -0.647506,9.82421 -0.215509,3.55234 -0.418063,7.35455 -0.569474,11.32024 -0.151412,3.96569 -0.251412,8.09534 -0.262517,12.30416 -0.0111,4.20882 0.06692,8.4968 0.272335,12.77855 0.0029,1.36061 0.104443,2.70701 0.276469,4.04833 0.139606,1.08852 0.322151,2.17944 0.541569,3.42769 0.188351,1.07152 0.386023,2.15592 0.552938,3.24063 0.166915,1.08472 0.303325,2.16967 0.370003,3.2427 0.0543,0.89319 0.05444,1.94802 0.01292,3.16053 -0.04168,1.2174 -0.123603,2.54061 -0.222208,3.94085 -0.212277,3.01439 -0.467321,5.9833 -0.587045,9.0842 -0.06695,1.73399 -0.08432,3.37436 -0.03462,4.92579 0.0497,1.55144 0.166293,3.01394 0.36742,4.39302 0.103296,0.70828 0.236391,1.36415 0.380338,2.00297 -0.590864,-0.0831 -1.160186,-0.14001 -1.753381,-0.22582 -7.650909,-1.10683 -15.48698,-2.42435 -23.256979,-3.5879 -3.994485,-0.59817 -7.976823,-1.15725 -11.932088,-1.63349 -3.955265,-0.47624 -7.884127,-0.86961 -11.7713743,-1.13688 -1.9783404,-0.13602 -3.9438252,-0.23921 -5.8942138,-0.30386 -1.95038869,-0.0646 -3.8859807,-0.0908 -5.8037801,-0.0729 -1.9177995,0.0179 -3.8183043,0.08 -5.698877,0.19172 -0.9069351,0.0539 -1.7938308,0.15851 -2.6913088,0.23616 -0.06066,-0.4798 -0.21425,-0.94321 -0.452169,-1.36426 0.0078,0.009 -0.112477,-0.10451 -0.30334,-0.64492 -0.144411,-0.40888 -0.291908,-0.97365 -0.432532,-1.77147 -0.122925,-0.6974 -0.218789,-1.44117 -0.321427,-2.3151 -0.08671,-0.73836 -0.187498,-1.66036 -0.304375,-2.44171 -0.280444,-1.87485 -0.495168,-3.60406 -0.650606,-5.22346 -0.155438,-1.6194 -0.251807,-3.12916 -0.296106,-4.56458 -0.04386,-1.42123 -0.03668,-2.76968 0.01447,-4.08243 0.05115,-1.31275 0.146562,-2.58984 0.278536,-3.8685 0.270105,-2.617 0.697227,-5.26141 1.217496,-8.18555 0.549109,-3.08623 1.197423,-6.47551 1.852084,-10.26294 0.4767,-2.75786 0.8272614,-5.50512 1.0815874,-8.18348 0.254326,-2.67835 0.412009,-5.28797 0.5033284,-7.77007 0.091319,-2.48209 0.1161895,-4.83721 0.1038697,-7.00629 -0.01232,-2.16908 -0.061747,-4.15232 -0.1183391,-5.89163 -0.056589,-1.73921 -0.1275201,-3.36177 -0.1968872,-4.77232 -0.2791277,-5.67593 -0.6025612,-10.58482 -0.8857342,-14.55156 -0.244669,-3.42737 -0.426159,-5.78184 -0.555521,-7.69049 3.8278737,-0.0496 7.4088733,-0.0914 11.4432287,-0.1571 2.2535221,-0.0361 4.4572385,-0.22195 6.6182007,-0.48834 2.1609622,-0.26639 4.2795056,-0.61323 6.3639526,-0.97203 2.057046,-0.35409 4.059803,-0.71534 6.042008,-1.02785 1.982206,-0.3125 3.94445,-0.5766 5.921086,-0.73587 2.463079,-0.19876 4.928076,-0.29791 7.406783,-0.33331 z m 31.685921,0.67024 c 0.84876,0.0254 1.69955,0.0321 2.548165,0.061 3.740026,0.12735 7.480407,0.28665 11.228255,0.46147 7.495697,0.34964 15.024602,0.76011 22.655463,1.09244 3.78157,0.16469 7.57259,0.3093 11.37037,0.41548 3.79777,0.10618 7.60326,0.17373 11.41429,0.185 2.11398,0.006 4.23367,-0.0536 6.35103,-0.0853 -0.0411,1.45697 -0.0852,2.89239 -0.10387,4.84777 -0.0255,2.66116 -0.0204,5.78875 0.0403,9.39633 0.12187,7.23986 0.42678,14.30208 0.76223,21.48241 0.0213,0.4568 0.16056,3.41737 0.1819,3.87418 0.28825,6.12326 0.61226,12.86445 0.85111,19.80396 0.11942,3.46975 0.21792,6.98946 0.27957,10.50633 0.0616,3.51687 0.0869,7.03097 0.0605,10.49032 -0.0269,0.61697 -0.0741,1.33753 -0.14004,2.26704 l -0.003,0.0367 c -0.0454,0.63948 -0.17212,2.32107 -0.21756,2.96055 -0.14772,2.02611 -0.32434,4.60676 -0.38188,7.13806 -0.03,1.31841 -0.0281,2.60495 0.0196,3.84008 0.0477,1.23512 0.14082,2.41886 0.29249,3.53157 0.17601,1.29125 0.42377,2.43541 0.74776,3.45095 0.12428,0.38954 0.27198,0.68381 0.41031,1.01802 -0.29262,-0.0567 -0.5826,-0.13746 -0.8754,-0.18758 -1.23468,-0.21135 -2.46953,-0.36162 -3.69176,-0.42427 -2.31817,-0.11914 -4.67224,-0.15983 -7.04092,-0.12454 -2.36867,0.0353 -4.75234,0.14653 -7.13083,0.33177 -2.37848,0.18524 -4.75222,0.44446 -7.09982,0.77514 -2.3476,0.33069 -4.66982,0.73295 -6.94583,1.20458 -4.118319,0.85214 -7.937615,1.95295 -11.596193,2.75746 -1.867733,0.4107 -3.675583,0.74344 -5.462716,0.95188 -0.893566,0.10421 -1.782416,0.17754 -2.670638,0.21394 -0.888222,0.0364 -1.77634,0.0362 -2.669087,-0.007 -3.516579,-0.16031 -7.1416,-0.46468 -10.843783,-0.86713 -0.293732,-0.0319 -0.602414,-0.0826 -0.897103,-0.11576 -0.21659,-0.33974 -0.438146,-0.64083 -0.67231,-1.31516 -0.253641,-0.73042 -0.486596,-1.67414 -0.655774,-2.90112 -0.144512,-1.04808 -0.231321,-2.21263 -0.26355,-3.51968 -0.03223,-1.30705 -0.01003,-2.75644 0.06304,-4.37338 0.132943,-2.94183 0.386232,-5.66284 0.626319,-8.83563 0.108141,-1.42911 0.204709,-2.86531 0.257348,-4.22765 0.05207,-1.34751 0.06369,-2.67666 -0.0078,-3.91656 -0.07777,-1.37639 -0.249421,-2.73862 -0.452686,-4.01061 -0.203265,-1.27199 -0.438321,-2.45368 -0.643371,-3.46904 -0.305079,-1.51067 -0.405651,-1.96985 -0.642855,-3.18378 -0.228593,-1.16986 -0.424956,-2.22891 -0.568958,-3.27577 -0.308814,-4.17375 -0.508283,-8.35162 -0.623217,-12.45712 -0.114935,-4.1055 -0.145232,-8.13914 -0.116272,-12.02407 0.02896,-3.88493 0.116909,-7.62164 0.239778,-11.13369 0.12287,-3.51205 0.280206,-6.80015 0.447001,-9.787 0.3021,-5.4098 0.688659,-10.95849 1.037663,-15.70757 0.228543,-3.1099 0.370067,-4.98435 0.532267,-7.1453 z m -82.937573,3.14658 c 0.128589,1.9462 0.328968,4.52675 0.584977,8.1163 0.283018,3.96824 0.604546,8.8396 0.877466,14.3893 0.06787,1.38003 0.136779,2.95972 0.19172,4.6483 0.05561,1.7091 0.102663,3.6312 0.114205,5.71334 0.01154,2.08215 -0.0124,4.32488 -0.0987,6.67402 -0.08631,2.34913 -0.234902,4.80525 -0.47284,7.31531 -0.237937,2.51006 -0.564857,5.07441 -1.008207,7.63933 -0.642059,3.71451 -1.283532,7.06612 -1.845882,10.22676 -0.529454,2.97577 -0.994959,5.83292 -1.293461,8.72505 -0.147467,1.42878 -0.25399,2.86425 -0.311609,4.34289 -0.05762,1.47864 -0.06596,3.00035 -0.01654,4.60179 0.04968,1.60976 0.157145,3.28079 0.326596,5.0462 0.16945,1.76541 0.400768,3.62555 0.698148,5.61361 0.09401,0.62851 0.17443,1.36622 0.273368,2.20865 0.105834,0.90115 0.221567,1.82049 0.38344,2.73885 0.186479,1.05797 0.422632,2.0467 0.744657,2.95848 0.08121,0.22993 0.185312,0.40007 0.273885,0.61081 -0.159878,0.0362 -0.340447,0.0521 -0.498677,0.0894 -1.621497,0.38198 -3.156081,0.81707 -4.586801,1.23559 -1.605301,0.46959 -3.048724,0.90699 -4.44624,1.29656 -1.397515,0.38957 -2.749383,0.73131 -4.171321,1.01079 -1.475561,0.29263 -3.342619,0.60692 -5.490105,0.91209 -2.191887,0.31148 -4.647036,0.60942 -7.257955,0.86816 -2.722706,0.26982 -5.572815,0.49267 -8.458398,0.64648 -2.885583,0.1538 -5.807185,0.23873 -8.672856,0.23254 -3.045963,-0.007 -5.96105,-0.11587 -8.679573,-0.33951 -1.359262,-0.11182 -2.669574,-0.25213 -3.922241,-0.42272 -1.252668,-0.17059 -2.447976,-0.37122 -3.57756,-0.60358 -1.181083,-0.24295 -2.266454,-0.51584 -3.254065,-0.81545 -0.987611,-0.29961 -1.877639,-0.62622 -2.669604,-0.9772 -0.827063,-0.36654 -1.514,-0.74481 -2.07946,-1.12448 -0.56546,-0.37967 -1.009802,-0.7607 -1.350822,-1.13172 -0.08047,-0.0878 -0.162037,-0.18721 -0.243913,-0.29972 -0.225305,-0.3096 -0.452057,-0.7168 -0.664559,-1.24333 -0.293537,-0.72733 -0.536616,-1.6251 -0.716752,-2.69338 -0.182968,-1.08508 -0.290318,-2.27872 -0.33693,-3.5481 -0.04661,-1.26939 -0.03234,-2.61458 0.02791,-4.00286 0.121213,-2.79296 0.422998,-5.64481 0.730705,-8.22741 0.120298,-1.00966 0.329804,-2.67176 0.450102,-3.68142 0.137417,-1.13786 0.258161,-2.20064 0.332796,-3.11971 0.169266,-2.08683 0.27828,-4.18563 0.334347,-6.28592 0.05607,-2.1003 0.05876,-4.20289 0.01654,-6.29678 -0.04223,-2.09388 -0.129674,-4.17955 -0.255282,-6.24716 -0.125608,-2.06761 -0.289091,-4.11718 -0.483174,-6.13864 -0.388167,-4.04294 -0.89861,-7.97437 -1.471228,-11.7135 -0.572619,-3.73913 -1.207561,-7.28682 -1.845366,-10.56318 -0.454912,-2.3299 -0.766785,-3.85176 -0.946195,-5.52886 -0.113526,-1.06123 -0.140683,-1.96212 -0.110588,-2.74505 0.03009,-0.78294 0.117604,-1.44787 0.234611,-2.0376 0.194197,-0.9784 -0.0082,-1.99394 -0.562756,-2.82309 -0.360018,-0.36497 -0.790889,-0.65251 -1.266073,-0.84491 -0.0024,-0.50193 0.04458,-0.8966 -0.01292,-1.56218 -0.05532,-0.64044 -0.139529,-1.38713 -0.179317,-1.65674 -0.01217,-0.0824 -0.02667,-0.15229 -0.04082,-0.22169 0.782579,-0.22943 1.470248,-0.7054 1.960604,-1.35703 0.523823,-0.82888 0.705744,-1.82871 0.507462,-2.78897 -0.07673,0.0752 -0.225965,0.24272 -0.275952,0.29145 -0.117548,0.1146 -0.179681,0.1789 -0.188102,0.18759 -0.0088,0.009 0.04143,-0.0461 0.109037,-0.154 0.07712,-0.12315 0.150784,-0.27431 0.205155,-0.44338 0.05587,-0.17375 0.07346,-0.31058 0.07855,-0.38499 0.01104,-0.16144 -0.0036,0.0416 0.08268,0.4408 -0.0036,0.0209 -0.0074,0.0417 -0.01137,0.0625 0.234932,-0.23039 0.494283,-0.47306 0.84491,-0.89246 0.480543,-0.57574 0.897948,-0.99917 1.259871,-1.31103 0.347646,-0.29955 0.635645,-0.48864 0.872815,-0.61288 0.225733,-0.11825 0.438328,-0.19503 0.661458,-0.24753 0.223826,-0.0527 0.495574,-0.0898 0.857829,-0.10284 0.82198,-0.0295 1.635081,0.0581 3.217375,0.17157 0.696059,0.0499 1.485705,0.0979 2.36523,0.1142 0.879526,0.0163 1.849362,9.9e-4 2.906283,-0.076 2.269821,-0.16541 4.49154,-0.42145 6.711218,-0.72089 2.219678,-0.29944 4.437761,-0.6427 6.698816,-0.98237 2.106922,-0.3165 4.22749,-0.62538 6.357235,-0.87539 2.129745,-0.25002 4.268693,-0.44112 6.413045,-0.52039 9.012415,-0.3363 17.658539,-0.5129 26.473836,-0.64492 2.755795,-0.0413 5.789843,-0.0817 8.595341,-0.11782 z m -77.393209,10.84998 c -0.0336,0.0312 -0.06789,0.0617 -0.102836,0.0915 -0.203685,0.0419 -0.105812,0.007 -0.08682,5.2e-4 0.0097,-0.003 0.02057,-0.007 0.03256,-0.0114 0.04297,-0.0156 0.108786,-0.0584 0.157096,-0.0806 z"
       style="fill:#4d4d4d;stroke-width:1px"
       id="path102" />
    <g
       id="g150">
      <path
         d="m 213.38232,195.8914 c 0.14162,1.56339 0.29058,2.96601 0.41342,4.90616 0.20038,3.16506 0.36989,6.87899 0.48834,11.2975 0.10745,4.00847 0.17615,8.13779 0.20205,12.64471 0.0464,8.07805 -0.11756,17.24112 -0.11679,28.38897 7e-5,1.01172 0.003,2.07931 0.009,3.18378 0.0501,2.94849 0.29459,7.02711 0.47645,11.69179 0.0755,1.93669 0.13042,3.97598 0.11059,6.05235 -0.0198,2.07637 -0.11408,4.18948 -0.33693,6.27403 -0.32589,3.07436 -0.84291,6.17477 -1.30638,8.99894 -0.51359,3.12959 -0.94517,5.82619 -1.2113,8.53384 -0.14982,1.52433 -0.23295,2.92992 -0.25063,4.24832 -0.0177,1.31841 0.0301,2.54993 0.14263,3.72484 0.15512,1.61986 0.42664,3.03311 0.75499,4.2633 0.27034,1.01285 0.58848,1.82774 0.90331,2.60553 0.88473,-0.15985 1.77291,-0.32675 2.6572,-0.47284 1.7232,-0.28468 3.45272,-0.53159 5.21518,-0.69505 2.66278,-0.2476 5.3938,-0.40717 8.03931,-0.52865 2.6455,-0.12148 5.20549,-0.20474 7.52667,-0.29817 2.75854,-0.11104 5.3228,-0.23952 7.79229,-0.43098 2.46949,-0.19147 4.84406,-0.44602 7.22385,-0.80925 1.28595,-0.19607 2.60557,-0.31219 3.90932,-0.37931 1.30374,-0.0671 2.59157,-0.0849 3.81475,-0.0853 0.30025,-8e-5 0.59972,7.6e-4 0.89659,0.003 3.31868,0.0205 5.68768,0.112 8.53591,0.0346 1.47161,-0.04 2.82488,-0.12565 4.08141,-0.27027 1.25653,-0.14461 2.41602,-0.34821 3.49901,-0.62528 1.15963,-0.29668 2.19681,-0.66935 3.12901,-1.12035 0.97942,-0.47384 1.85018,-1.03754 2.62774,-1.69757 0.3691,-0.31391 0.80346,-0.81458 1.27279,-1.56889 0.47623,-0.76541 0.94682,-1.7256 1.40147,-2.87941 0.46892,-1.19005 0.90259,-2.54006 1.30121,-4.0256 0.39862,-1.48554 0.7625,-3.10621 1.09141,-4.83795 0.33697,-1.77417 0.6353,-3.65294 0.89813,-5.60896 0.26284,-1.95601 0.4902,-3.98952 0.68472,-6.07301 0.3948,-4.22873 0.65645,-8.68273 0.80873,-13.1625 0.15089,-4.43897 0.19559,-8.94193 0.15193,-13.31857 -0.0437,-4.37664 -0.1755,-8.62718 -0.37672,-12.56151 -0.19444,-3.8018 -0.45452,-7.31416 -0.76171,-10.3079 -0.1493,-1.45504 -0.30895,-2.78006 -0.47594,-3.94446 -0.16402,-1.14369 -0.33167,-2.10902 -0.49713,-2.87321 -0.29414,-1.31948 -0.7159,-2.73037 -1.28571,-4.20853 -0.5698,-1.47815 -1.28762,-3.02385 -2.17506,-4.6116 -0.60423,-1.08106 -1.29041,-2.18701 -2.05982,-3.29541 -0.76941,-1.10839 -1.62206,-2.2191 -2.56005,-3.30936 -0.33903,-0.39405 -0.69001,-0.78592 -1.05213,-1.17357 -0.70422,-0.75114 -1.3204,-1.51988 -1.89911,-2.29598 -0.57872,-0.77611 -1.11997,-1.55962 -1.67432,-2.33939 -0.47428,-0.66715 -0.92917,-1.28693 -1.39371,-1.85054 -0.46454,-0.5636 -0.93897,-1.07074 -1.45263,-1.51205 -0.24206,-0.20901 -0.55082,-0.42707 -0.93896,-0.64595 -0.38813,-0.21889 -0.85527,-0.439 -1.41386,-0.65268 -1.08531,-0.41515 -2.41799,-0.7688 -3.99718,-1.05265 -1.54218,-0.27719 -3.24256,-0.47427 -5.06687,-0.60719 -1.82431,-0.13293 -3.77253,-0.20219 -5.80998,-0.22273 -3.9339,-0.0397 -7.92353,0.10042 -11.76156,0.23874 -1.83374,0.0661 -3.63742,0.13176 -5.26996,0.16795 -1.60745,0.0356 -3.13529,0.0451 -4.46484,-0.007 -4.41284,-0.17167 -9.07559,-0.50117 -13.77022,-0.71314 -2.22789,-0.10059 -4.46148,-0.16728 -6.68022,-0.18552 z"
         style="fill:url(#radialGradient117);fill-opacity:1;stroke-width:1px"
         id="path107" />
      <path
         d="m 137.24382,201.66418 c -0.0462,1.49035 -0.095,3.03678 -0.12144,5.09426 -0.0334,2.59908 -0.039,5.66047 0.0134,9.20822 0.0519,3.51428 0.15433,7.06017 0.29197,10.60917 0.13763,3.54901 0.31053,7.10077 0.50436,10.62778 0.0699,1.27193 0.14373,2.55554 0.22066,3.85661 0.35738,6.04451 0.81765,12.82104 1.20199,19.84478 0.19217,3.51188 0.3655,7.08539 0.49713,10.66034 0.13163,3.57495 0.22181,7.1512 0.24805,10.66808 0.0253,0.81672 0.01,1.73009 -0.0295,2.70061 l -0.002,0.0398 c -0.0371,0.90692 -0.0947,1.89503 -0.1664,3.05821 -0.1264,2.05009 -0.28619,4.46741 -0.34365,6.79235 -0.0301,1.21961 -0.0301,2.34113 0.004,3.36414 0.0338,1.023 0.10169,1.94749 0.20722,2.77347 0.11975,0.93719 0.27287,1.62219 0.42478,2.1177 0.20551,0.67035 0.36809,0.90262 0.42323,0.97824 a 3.949468,3.949468 0 0 1 0.71107,2.9378 3.949468,3.949468 0 0 1 -0.87798,1.43816 c 0.94327,0.28978 1.89255,0.53606 2.82153,0.83302 2.49489,0.79754 4.89848,1.58036 7.30447,2.25516 1.2069,0.33849 2.3869,0.64137 3.54138,0.8971 1.15448,0.25574 2.28328,0.46398 3.38687,0.61237 3.64379,0.48686 7.33931,0.85185 11.05101,1.11621 3.7117,0.26436 7.43957,0.428 11.14919,0.51366 3.70962,0.0857 7.40055,0.0932 11.03809,0.0439 3.63753,-0.0492 7.22172,-0.15473 10.71717,-0.29507 1.59771,-0.0621 3.20373,-0.22861 4.81728,-0.45321 0.0328,-0.005 0.0659,-0.0119 0.0987,-0.0165 -0.22719,-0.65103 -0.47551,-1.19443 -0.67696,-1.93632 -0.21624,-0.79636 -0.41379,-1.6463 -0.58291,-2.55281 -0.16912,-0.90652 -0.31001,-1.8695 -0.41393,-2.89182 -0.14888,-1.4646 -0.21382,-2.96317 -0.20257,-4.52065 0.0112,-1.55748 0.0985,-3.174 0.25528,-4.87464 0.27477,-2.98044 0.72852,-5.9046 1.22318,-9.02012 0.45767,-2.88255 0.92227,-5.7638 1.21078,-8.58811 0.18265,-1.80878 0.25934,-3.67329 0.27285,-5.56193 0.0135,-1.88865 -0.036,-3.80166 -0.1049,-5.70818 -0.0928,-2.56765 -0.18832,-4.61038 -0.25322,-6.48643 -0.0649,-1.87604 -0.0995,-3.58552 -0.0698,-5.487 0.007,-1.12601 0.0188,-2.21001 0.0341,-3.23804 0.084,-5.65946 0.26407,-10.7677 0.45475,-15.45901 0.19068,-4.69131 0.39159,-8.96586 0.5178,-12.95838 0.14058,-4.44735 0.21091,-8.52318 0.16433,-12.44369 -0.0503,-4.23197 -0.22058,-7.89806 -0.43408,-11.01793 -0.14229,-2.07921 -0.30438,-3.55926 -0.46251,-5.15937 -0.39832,0.0202 -0.81101,0.007 -1.20664,0.0325 -1.72157,0.11332 -3.43295,0.31561 -5.1909,0.56844 -1.75795,0.25284 -3.56234,0.55645 -5.46995,0.8723 -1.79242,0.29678 -3.67263,0.6036 -5.60328,0.85525 -1.93064,0.25164 -3.91184,0.44799 -5.90661,0.524 -1.62277,0.0618 -3.2386,0.0533 -4.83226,0.0129 -1.59367,-0.0404 -3.16502,-0.11298 -4.69946,-0.17828 -1.52814,-0.065 -3.01615,-0.12298 -4.47673,-0.14211 -1.46058,-0.0191 -2.89394,7.9e-4 -4.31136,0.0915 -1.45327,0.093 -2.91379,0.25684 -4.40852,0.4625 -1.49473,0.20567 -3.02344,0.45321 -4.61315,0.71365 -1.54288,0.25278 -3.14495,0.5179 -4.78059,0.75138 -1.63564,0.23347 -3.30479,0.43526 -4.98161,0.56069 -3.19743,0.2403 -6.39143,0.38208 -9.58391,0.50333 z"
         style="fill:url(#radialGradient116);fill-opacity:1;stroke-width:1px"
         id="path106" />
      <path
         d="m 64.685457,199.70202 c -0.162203,2.16099 -0.30372,4.03535 -0.532267,7.1453 -0.34901,4.74917 -0.735557,10.29767 -1.037663,15.70757 -0.166798,2.98691 -0.324129,6.27489 -0.447001,9.787 -0.122872,3.51211 -0.210818,7.24869 -0.239778,11.13369 -0.02896,3.885 0.0013,7.9185 0.116272,12.02407 0.114936,4.10557 0.314398,8.28329 0.623217,12.45712 0.144005,1.04688 0.340361,2.10589 0.568958,3.27577 0.237208,1.21395 0.337771,1.67309 0.642855,3.18378 0.205053,1.01538 0.440102,2.19703 0.643371,3.46904 0.203269,1.27202 0.374914,2.6342 0.452686,4.01061 0.07144,1.23992 0.05982,2.56903 0.0078,3.91656 -0.05264,1.36237 -0.149205,2.79852 -0.257348,4.22765 -0.240092,3.17285 -0.493373,5.89374 -0.626319,8.83563 -0.07307,1.61697 -0.09528,3.0663 -0.06304,4.37338 0.03223,1.30708 0.119035,2.47158 0.26355,3.51968 0.169181,1.227 0.402129,2.17069 0.655774,2.90112 0.234168,0.67434 0.455716,0.97541 0.67231,1.31516 0.294698,0.0332 0.603362,0.0838 0.897103,0.11576 3.702294,0.40246 7.327098,0.70682 10.843783,0.86713 0.892774,0.0429 1.780839,0.0431 2.669087,0.007 0.888249,-0.0364 1.777045,-0.10972 2.670638,-0.21394 1.787187,-0.20845 3.594927,-0.54116 5.462716,-0.95188 3.658687,-0.80454 7.47775,-1.90529 11.596189,-2.75746 2.27608,-0.47165 4.59816,-0.87388 6.94583,-1.20458 2.34767,-0.33069 4.72126,-0.5899 7.09982,-0.77514 2.37856,-0.18525 4.76209,-0.29647 7.13083,-0.33177 2.36875,-0.0353 4.72268,0.005 7.04092,0.12454 1.22227,0.0627 2.45705,0.21291 3.69176,0.42427 0.29281,0.0501 0.58278,0.13092 0.8754,0.18758 -0.13833,-0.33421 -0.28603,-0.62848 -0.41031,-1.01802 -0.324,-1.01555 -0.57175,-2.15968 -0.74776,-3.45095 -0.15167,-1.11272 -0.2448,-2.29643 -0.29249,-3.53157 -0.0477,-1.23514 -0.0496,-2.52165 -0.0196,-3.84008 0.0575,-2.53133 0.23416,-5.11192 0.38188,-7.13806 0.0454,-0.63949 0.17213,-2.32106 0.21756,-2.96055 l 0.003,-0.0367 c 0.0659,-0.92952 0.1131,-1.65006 0.14004,-2.26704 0.0264,-3.4594 0.001,-6.9734 -0.0605,-10.49032 -0.0617,-3.51692 -0.16015,-7.03653 -0.27957,-10.50633 -0.23885,-6.93961 -0.56285,-13.68061 -0.85111,-19.80396 -0.0213,-0.45682 -0.16056,-3.41737 -0.1819,-3.87418 -0.33545,-7.18043 -0.64036,-14.24245 -0.76223,-21.48241 -0.0607,-3.60763 -0.0658,-6.73514 -0.0403,-9.39633 0.0187,-1.9554 0.0628,-3.39078 0.10387,-4.84777 -2.11742,0.0317 -4.23698,0.0915 -6.35103,0.0853 -3.81114,-0.0113 -7.6164,-0.0788 -11.41429,-0.185 -3.79789,-0.10619 -7.58869,-0.25078 -11.37037,-0.41548 -7.631086,-0.33234 -15.159537,-0.74279 -22.655459,-1.09244 -3.74796,-0.17482 -7.488117,-0.33412 -11.228255,-0.46147 -0.848641,-0.0289 -1.69938,-0.0356 -2.548165,-0.061 z"
         style="fill:url(#radialGradient115);fill-opacity:1;stroke-width:1px"
         id="path105" />
      <path
         d="m -10.795723,202.74628 c 0.129364,1.90869 0.310847,4.26304 0.555521,7.69049 0.2831792,3.96682 0.6066003,8.87551 0.8857342,14.55156 0.069369,1.41058 0.1402975,3.03307 0.1968872,4.77232 0.056593,1.73935 0.106019,3.7225 0.1183391,5.89163 0.01232,2.16913 -0.012548,4.52414 -0.1038697,7.00629 -0.091321,2.48215 -0.2489968,5.09166 -0.5033284,7.77007 -0.2543316,2.67842 -0.6048774,5.42556 -1.0815874,8.18348 -0.654676,3.78751 -1.302963,7.17665 -1.852084,10.26294 -0.52028,2.9242 -0.947385,5.56849 -1.217496,8.18555 -0.131977,1.27869 -0.227381,2.55572 -0.278536,3.8685 -0.05115,1.31277 -0.05833,2.66117 -0.01447,4.08243 0.0443,1.43545 0.140665,2.94515 0.296106,4.56458 0.155442,1.61944 0.370156,3.34857 0.650606,5.22346 0.11688,0.78137 0.217658,1.70334 0.304375,2.44171 0.10264,0.87395 0.1985,1.61769 0.321427,2.3151 0.140628,0.79784 0.288118,1.36258 0.432532,1.77147 0.190867,0.54042 0.311159,0.65397 0.30334,0.64492 a 3.7221137,3.7221137 0 0 1 0.452169,1.36426 c 0.897505,-0.0777 1.7843465,-0.18226 2.6913088,-0.23616 1.8806292,-0.11176 3.78102,-0.17378 5.698877,-0.19172 1.9178569,-0.0179 3.85333289,0.008 5.8037801,0.0729 1.9504472,0.0647 3.9158141,0.16784 5.8942138,0.30386 3.8873643,0.26728 7.8159913,0.66063 11.7713743,1.13688 3.955384,0.47625 7.937484,1.03531 11.932088,1.63349 7.770232,1.16359 15.605841,2.48103 23.256979,3.5879 0.593213,0.0858 1.162499,0.14271 1.753381,0.22582 -0.14395,-0.63883 -0.27704,-1.29468 -0.380338,-2.00297 -0.201131,-1.37911 -0.317717,-2.84155 -0.36742,-4.39302 -0.0497,-1.55146 -0.03233,-3.19177 0.03462,-4.92579 0.119726,-3.10096 0.374764,-6.06975 0.587045,-9.0842 0.09861,-1.40026 0.180523,-2.72343 0.222208,-3.94085 0.04152,-1.21253 0.04138,-2.26732 -0.01292,-3.16053 -0.06668,-1.07305 -0.203085,-2.15796 -0.370003,-3.2427 -0.166918,-1.08473 -0.364583,-2.16909 -0.552938,-3.24063 -0.219422,-1.24828 -0.40196,-2.33915 -0.541569,-3.42769 -0.172029,-1.34134 -0.273569,-2.68769 -0.276469,-4.04833 -0.205416,-4.28182 -0.283439,-8.56966 -0.272335,-12.77855 0.01111,-4.2089 0.111103,-8.3384 0.262517,-12.30416 0.151414,-3.96576 0.353961,-7.76783 0.569474,-11.32024 0.215513,-3.55241 0.444106,-6.85537 0.647506,-9.82421 0.632832,-9.23685 1.197353,-17.23559 1.572514,-22.61929 -0.86408,-0.0155 -1.725602,-0.051 -2.59054,-0.0615 -5.338019,-0.066 -10.47718,-0.29753 -15.513782,-0.4129 -2.518301,-0.0577 -5.0112,-0.086 -7.489982,-0.0506 -2.478782,0.0354 -4.94363,0.13455 -7.406783,0.33331 -1.976695,0.15927 -3.938821,0.42336 -5.921086,0.73587 -1.982265,0.31252 -3.9849,0.67375 -6.042008,1.02785 -2.08451,0.35881 -4.2029256,0.70563 -6.3639526,0.97203 -2.161027,0.2664 -4.364611,0.45228 -6.6182007,0.48834 -4.0344765,0.0657 -7.6152401,0.1075 -11.4432287,0.1571 z"
         style="fill:url(#radialGradient114);fill-opacity:1;stroke-width:1px"
         id="path104" />
      <path
         d="m -94.722384,217.25392 a 3.7610888,3.7610888 0 0 1 1.266073,0.84491 3.7610888,3.7610888 0 0 1 0.562756,2.82309 c -0.117011,0.58975 -0.204515,1.25464 -0.234611,2.0376 -0.0301,0.78295 -0.0029,1.68379 0.110588,2.74505 0.179415,1.67715 0.49127,3.19889 0.946195,5.52886 0.637825,3.27646 1.27273,6.82394 1.845366,10.56318 0.572635,3.73924 1.08305,7.67044 1.471228,11.7135 0.194089,2.02152 0.357563,4.07097 0.483174,6.13864 0.125612,2.06768 0.213056,4.15321 0.255282,6.24716 0.04223,2.09396 0.03953,4.19642 -0.01654,6.29678 -0.05607,2.10036 -0.165075,4.19902 -0.334347,6.28592 -0.07464,0.91909 -0.195374,1.98182 -0.332796,3.11971 -0.120302,1.00969 -0.3298,2.67173 -0.450102,3.68142 -0.307716,2.58268 -0.609488,5.43437 -0.730705,8.22741 -0.06025,1.38833 -0.07452,2.73343 -0.02791,4.00286 0.04661,1.26942 0.153957,2.46299 0.33693,3.5481 0.180141,1.06831 0.423206,1.96602 0.716752,2.69338 0.212509,0.52655 0.439247,0.93372 0.664559,1.24333 0.08188,0.11251 0.163442,0.21193 0.243913,0.29972 0.34103,0.37103 0.785345,0.75204 1.350822,1.13172 0.565477,0.37968 1.252373,0.75793 2.07946,1.12448 0.791989,0.35099 1.681964,0.67758 2.669604,0.9772 0.987641,0.29962 2.072947,0.57249 3.254065,0.81545 1.129618,0.23237 2.324854,0.43299 3.57756,0.60358 1.252705,0.1706 2.562938,0.31089 3.922241,0.42272 2.718605,0.22364 5.633518,0.33293 8.679573,0.33951 2.865757,0.006 5.787186,-0.0787 8.672856,-0.23254 2.88567,-0.15381 5.73561,-0.37665 8.458398,-0.64648 2.610997,-0.25875 5.066002,-0.55667 7.257955,-0.86816 2.14755,-0.30518 4.0145,-0.61945 5.490105,-0.91209 1.42198,-0.27949 2.773764,-0.62121 4.171321,-1.01079 1.397558,-0.38958 2.84089,-0.82696 4.44624,-1.29656 1.430763,-0.41853 2.965256,-0.8536 4.586801,-1.23559 0.158235,-0.0373 0.338794,-0.0532 0.498677,-0.0894 -0.08858,-0.21074 -0.192675,-0.38087 -0.273885,-0.61081 -0.322032,-0.9118 -0.558174,-1.90048 -0.744657,-2.95848 -0.161876,-0.91838 -0.277603,-1.83768 -0.38344,-2.73885 -0.09894,-0.84245 -0.179351,-1.58012 -0.273368,-2.20865 -0.297387,-1.98811 -0.528694,-3.84816 -0.698148,-5.61361 -0.169455,-1.76545 -0.276915,-3.43641 -0.326596,-5.0462 -0.04942,-1.60147 -0.04108,-3.12312 0.01654,-4.60179 0.05762,-1.47867 0.164139,-2.91408 0.311609,-4.34289 0.298508,-2.89219 0.763995,-5.74922 1.293461,-8.72505 0.562362,-3.16071 1.203809,-6.51216 1.845882,-10.22676 0.443359,-2.56498 0.770265,-5.12922 1.008207,-7.63933 0.237943,-2.51011 0.386531,-4.96613 0.47284,-7.31531 0.08631,-2.34919 0.110244,-4.59182 0.0987,-6.67402 -0.01154,-2.08219 -0.0586,-4.0042 -0.114205,-5.71334 -0.05494,-1.68862 -0.123852,-3.26824 -0.19172,-4.6483 -0.272926,-5.54983 -0.594442,-10.42097 -0.877466,-14.3893 -0.256014,-3.58962 -0.456385,-6.17006 -0.584977,-8.1163 -2.805583,0.0361 -5.839464,0.0765 -8.595341,0.11782 -8.815561,0.13203 -17.46115,0.30861 -26.473836,0.64492 -2.144416,0.0793 -4.283236,0.27036 -6.413045,0.52039 -2.129809,0.25002 -4.25025,0.55888 -6.357235,0.87539 -2.261123,0.33968 -4.479072,0.68292 -6.698816,0.98237 -2.219744,0.29945 -4.441329,0.55547 -6.711218,0.72089 -1.056953,0.077 -2.026731,0.0923 -2.906283,0.076 -0.879552,-0.0163 -1.66915,-0.0643 -2.36523,-0.1142 -1.582342,-0.11351 -2.39537,-0.20103 -3.217375,-0.17157 -0.362266,0.013 -0.633996,0.0502 -0.857829,0.10284 -0.223136,0.0525 -0.435718,0.12927 -0.661458,0.24753 -0.237177,0.12425 -0.525159,0.31332 -0.872815,0.61288 -0.361934,0.31187 -0.779313,0.73527 -1.259871,1.31103 -0.350638,0.41941 -0.60997,0.66207 -0.84491,0.89246 a 3.7870721,3.7870721 0 0 1 -0.507462,2.78897 3.7870721,3.7870721 0 0 1 -1.960604,1.35703 c 0.01416,0.0694 0.02866,0.13925 0.04082,0.22169 0.03979,0.26961 0.12399,1.01628 0.179317,1.65674 0.0575,0.66559 0.01053,1.06024 0.01292,1.56218 z"
         style="fill:url(#radialGradient113);fill-opacity:1;stroke-width:1px"
         id="path103" />
      <g
         id="g149"
         transform="matrix(1.1665905,0.10167608,-0.10167608,1.1665905,13.188672,-210.58129)"
         style="opacity:0.5">
        <path
           style="opacity:1;fill:#000000;stroke:#000000;stroke-width:0.787;stroke-linejoin:round;paint-order:markers fill stroke"
           id="path135"
           d="m -36.122247,396.87015 c 0.147381,0.52507 0.284517,1.05312 0.44214,1.5752 0.929285,3.078 0.839549,2.43903 1.880468,6.04777 0.49327,1.7101 0.970124,3.42524 1.415147,5.14852 1.104091,4.27543 2.04329,8.46929 3.036954,12.77152 1.67432,7.41204 0.882549,3.87252 2.379162,10.61765 0.765852,3.4516 5.647137,2.36852 4.881284,-1.08307 v 0 c -1.50255,-6.77167 -0.707597,-3.21805 -2.388737,-10.65996 -1.956216,-8.46719 -3.899926,-16.94984 -6.705843,-25.18621 -0.543473,-3.49351 -5.484048,-2.72492 -4.940575,0.76858 z" />
        <path
           style="opacity:1;fill:#000000;stroke:#000000;stroke-width:0.787;stroke-linejoin:round;paint-order:markers fill stroke"
           id="path136"
           d="m -35.293461,395.40307 c 2.300581,-0.77637 4.532167,-1.7285 6.934282,-2.17911 0.642485,-0.12052 1.295096,-0.17886 1.942645,-0.26826 0.613913,-0.01 1.232683,-0.10724 1.841739,-0.0295 1.213919,0.15486 2.319761,0.95999 2.830536,2.06449 0.436661,0.94424 0.365395,1.5072 0.430611,2.54497 -0.350507,3.1849 -1.668177,6.12614 -3.287229,8.8537 -0.298939,0.45739 -0.365624,0.57865 -0.660327,0.97295 -0.179021,0.23953 -0.248394,0.28956 -0.235268,0.27499 0.01464,-0.0161 0.03069,-0.0312 0.04603,-0.0467 4.351085,4.7743 2.779635,4.13959 4.278493,2.69637 -0.03851,0.41465 -0.707019,0.1937 -0.812088,0.49231 -0.04113,0.11692 0.247956,0 0.37177,0.004 0.366137,0.0159 0.734067,0.0151 1.097841,0.0596 1.639092,0.2005 1.707122,0.31657 3.381974,0.85135 2.084266,0.94517 4.192863,2.14077 5.61548,4.00066 0.535687,0.70035 0.932987,1.49886 1.334464,2.28388 1.034301,2.0224 1.5105155,3.45646 2.3106078,5.57112 0.866258,2.47568 1.6412938,4.98142 2.5389967,7.44598 1.21203,3.32129 5.90904664,1.60721 4.69701655,-1.71407 v 0 c -0.90864055,-2.48481 -1.67767685,-5.01685 -2.56288795,-7.5101 -1.2888108,-3.36991 -2.5311444,-6.84493 -4.8540378,-9.68232 -1.9816753,-2.42059 -4.7949083,-3.97877 -7.6174793,-5.1766 -0.838151,-0.24802 -1.662686,-0.54782 -2.514452,-0.74406 -1.612645,-0.3715 -4.130076,-0.71776 -5.733468,0.007 -0.238089,0.10769 -0.4326,0.29321 -0.648899,0.43984 -1.922094,1.85169 -0.803775,1.35666 2.592436,4.56849 0.667603,-0.66406 1.178953,-1.4641 1.680408,-2.25526 2.164946,-3.68911 3.84803,-7.67458 3.941481,-12.01835 -0.357857,-2.25333 -0.253961,-3.1809 -1.566376,-5.14065 -1.55597,-2.32341 -4.050657,-3.5711 -6.782525,-3.84286 -0.805274,-0.0801 -1.617643,0.0525 -2.426465,0.0788 -0.80074,0.11883 -1.607476,0.20259 -2.402224,0.35647 -2.315196,0.44831 -4.550558,1.23476 -6.72434,2.13329 -3.469579,0.67971 -2.508327,5.58644 0.961255,4.90672 z" />
        <path
           style="opacity:1;fill:#000000;stroke:#000000;stroke-width:0.787;stroke-linejoin:round;paint-order:markers fill stroke"
           id="path137"
           d="m 5.8620916,412.37045 c 1.6698269,-1.55586 3.5362827,-3.043 4.9484094,-4.85045 0.218582,-0.27977 0.394672,-0.59028 0.592007,-0.88543 0.124014,-0.54112 0.70014,-1.17554 0.37204,-1.62335 -0.793374,-1.08283 -1.9965464,-1.93725 -3.2767313,-2.34116 -0.5490207,-0.1732 -1.0459577,0.49548 -1.5148811,0.82944 -1.2180461,0.86752 -2.1064667,2.47401 -2.8366923,3.71303 -0.6924519,1.66822 -1.1363783,2.48005 -1.431091,4.3207 -0.4972497,3.10563 -0.2300653,6.37238 0.3455029,9.44523 0.1986251,1.06039 0.4986962,2.09928 0.7480441,3.14891 0.3539519,0.96591 0.5447969,2.0084 1.0618554,2.89772 1.9147697,3.29334 4.8443388,4.99758 8.5782583,5.4161 2.361088,0.26466 3.671753,-0.14489 5.919188,-0.5714 2.767835,-0.8496 1.481215,-0.38989 3.872831,-1.34231 3.278905,-1.32241 1.408733,-5.9595 -1.870173,-4.63709 v 0 c -1.853242,0.75952 -0.859113,0.39148 -2.991858,1.07823 -0.645571,0.14129 -1.282635,0.32949 -1.936711,0.42389 -1.874518,0.27049 -3.922048,0.23731 -5.561491,-0.85984 -0.505749,-0.33846 -1.0055538,-0.73776 -1.3254879,-1.25542 -0.4356391,-0.70488 -0.5906053,-1.54845 -0.8859081,-2.3227 -0.2193946,-0.89294 -0.4824561,-1.77631 -0.6581836,-2.67888 -0.4706038,-2.4171 -0.7706273,-5.06926 -0.4450318,-7.53025 0.1692783,-1.27947 0.4776811,-1.89622 0.924234,-3.05702 0.5792216,-1.07498 0.4118388,-0.89173 1.1158792,-1.76406 0.1186587,-0.14703 0.4417462,-0.24707 0.3759604,-0.42418 -0.059374,-0.15984 -0.3694115,0.17505 -0.5062757,0.0733 -3.1285452,-2.325 -3.0475157,-1.4338 -2.3175137,-3.58211 -0.2186918,0.49924 -0.084945,0.2541 -0.7491933,0.96461 -1.1548997,1.23534 -2.3977362,2.38882 -3.6656349,3.50624 -2.76351527,2.20522 0.3551328,6.11341 3.118648,3.90821 z" />
        <path
           style="opacity:1;fill:#000000;stroke:#000000;stroke-width:0.787;stroke-linejoin:round;paint-order:markers fill stroke"
           id="path138"
           d="m 10.448083,422.26904 c 1.444559,-1.74887 3.158266,-3.23405 4.900779,-4.67389 2.721465,-2.2569 -0.470284,-6.10563 -3.191749,-3.84873 v 0 c -2.246239,1.86875 -4.5248489,3.79364 -6.1600847,6.24488 -1.6106066,3.14737 2.8404486,5.42512 4.4510547,2.27774 z" />
        <path
           style="opacity:1;fill:#000000;stroke:#000000;stroke-width:0.787;stroke-linejoin:round;paint-order:markers fill stroke"
           id="path139"
           d="m 36.273311,402.0096 c -0.52886,-1.78773 -1.37391,-3.90532 -3.348337,-4.54506 -0.685093,-0.22199 -1.435338,-0.11965 -2.153007,-0.17947 -0.694915,0.29475 -1.45955,0.46125 -2.084744,0.88421 -0.66176,0.44771 -1.22454,1.04558 -1.70796,1.68175 -2.167762,2.8526 -2.528254,6.6058 -1.914308,10.04414 0.253048,1.41716 0.838961,2.75423 1.258442,4.13133 0.90373,1.28297 1.619717,2.72135 2.711189,3.84892 3.281823,3.39037 7.824176,4.85741 12.423749,5.08233 2.9928,0.14637 4.431892,-0.26839 7.27385,-0.78512 0.870313,-0.24535 1.740625,-0.49073 2.610938,-0.7361 3.39907,-0.97277 2.02334,-5.7798 -1.37573,-4.807 v 0 c -0.720231,0.20984 -1.440461,0.41968 -2.160691,0.62949 -2.268358,0.44569 -3.369469,0.77867 -5.751478,0.73449 -3.253981,-0.0603 -6.535999,-0.88392 -9.017386,-3.11375 -0.765239,-0.68768 -1.303822,-1.59184 -1.955731,-2.38776 -0.343662,-0.98949 -0.79714,-1.94744 -1.030984,-2.96849 -0.371493,-1.62206 -0.433856,-3.36503 -7.93e-4,-4.9847 0.485812,-1.81668 0.504279,-0.77613 1.059825,-1.99586 0.03719,-0.0817 -0.0019,-0.17941 -0.0028,-0.26913 -0.05962,-0.0521 -0.60506,-0.44649 -0.509135,-0.6531 0.04412,-0.095 0.164603,0.13332 0.226814,0.21762 0.284991,0.38621 0.43778,0.85582 0.579059,1.30749 0.803431,3.44302 5.672619,2.3068 4.869191,-1.13623 z" />
        <path
           style="opacity:1;fill:#000000;stroke:#000000;stroke-width:0.787;stroke-linejoin:round;paint-order:markers fill stroke"
           id="path140"
           d="m 46.771808,399.2808 c 2.841863,4.63949 5.378529,9.45488 7.935156,14.25477 0.351639,0.65008 0.703276,1.30016 1.054915,1.95024 1.682178,3.1097 6.079966,0.73073 4.39779,-2.37897 v 0 c -0.346564,-0.64064 -0.693129,-1.28125 -1.039691,-1.92188 -2.582317,-4.84796 -5.145135,-9.71135 -8.014454,-14.39794 -1.763366,-3.06438 -6.097082,-0.5706 -4.333716,2.49378 z" />
        <path
           style="opacity:1;fill:#000000;stroke:#000000;stroke-width:0.787;stroke-linejoin:round;paint-order:markers fill stroke"
           id="path141"
           d="m 51.239777,394.8404 c 2.110009,-1.69042 5.162785,-2.80347 7.855098,-2.97394 0.505864,-0.032 1.011981,0.06 1.517972,0.09 0.531157,0.26411 1.006377,0.31129 1.17593,0.93118 0.03263,0.1193 -0.197022,0.95819 -0.203231,0.97964 -0.334693,1.15618 -0.314431,0.99211 -0.84586,2.25851 -0.744463,1.54734 -1.550334,3.06369 -2.294985,4.61098 -0.356846,0.74147 -0.860304,1.7254 -1.016744,2.55077 -0.09237,0.48733 -0.06846,0.98964 -0.102695,1.48447 0.25006,0.61372 0.32141,1.33585 0.750181,1.84118 1.40762,1.65891 3.571253,1.42793 5.476671,1.53702 2.456193,0.1406 2.096011,0.14584 4.656595,0.50144 4.574929,0.74826 8.823047,2.61495 12.952802,4.6428 0.332763,0.17171 0.665525,0.3434 0.998288,0.51512 3.142631,1.61983 5.433428,-2.82451 2.290797,-4.44434 v 0 c -0.3624,-0.18661 -0.724802,-0.37322 -1.087202,-0.55984 -4.61129,-2.25954 -9.367276,-4.29913 -14.477158,-5.10762 -2.240558,-0.30223 -4.461317,-0.5888 -6.726537,-0.59671 -0.144867,0 -0.443118,-0.0989 -0.432207,0.0456 0.04193,0.55515 1.142135,0.77375 0.597337,1.55969 -0.295757,0.15267 -0.242512,0.16296 0.0531,-0.57851 0.586594,-1.47132 1.405281,-2.87163 2.105422,-4.2889 0.308885,-0.62526 0.606509,-1.256 0.909767,-1.88401 0.578855,-1.53816 1.148014,-2.66359 1.185248,-4.3555 0.05733,-2.60487 -1.068067,-4.74424 -3.441845,-5.92968 -0.740873,-0.36999 -1.586926,-0.47413 -2.38039,-0.7112 -0.826469,-0.008 -1.655657,-0.0922 -2.4794,-0.0246 -3.33756,0.27366 -6.853957,1.6409 -9.593318,3.54825 -0.386659,0.26922 -0.715613,0.61307 -1.073417,0.91959 -2.431532,2.56664 1.198253,6.00535 3.629782,3.43871 z" />
        <path
           style="opacity:1;fill:#000000;stroke:#000000;stroke-width:0.787;stroke-linejoin:round;paint-order:markers fill stroke"
           id="path144"
           d="m 90.797845,381.26812 c -2.810042,-0.04 -4.825453,1.45746 -6.388153,3.72047 -0.39986,0.57904 -0.70756,1.21661 -1.061339,1.82488 -1.715162,3.6031 -2.072069,7.15206 -0.888312,11.00984 0.808384,2.63446 1.48658,3.36823 2.934858,5.64224 0.672214,0.73928 1.267794,1.55631 2.016641,2.21785 2.338957,2.06626 5.268542,3.30655 8.303289,3.91025 2.499572,0.49723 3.384405,0.37224 5.904441,0.36811 1.04666,-0.1665 2.11456,-0.23161 3.13996,-0.4995 4.32274,-1.1293 8.53874,-3.78482 11.60184,-7.01821 0.66186,-0.69866 1.21974,-1.48894 1.82961,-2.23343 0.44322,-0.78671 0.98541,-1.52537 1.32965,-2.36013 1.32076,-3.20289 1.12541,-7.00122 -0.65771,-9.99429 -0.41285,-0.693 -0.98418,-1.27836 -1.47628,-1.91752 -0.63843,-0.50736 -1.22025,-1.09556 -1.91531,-1.52204 -2.91558,-1.78895 -7.06559,-2.43493 -10.42848,-2.60033 -0.97761,-0.0481 -1.95755,-0.0116 -2.93632,-0.0177 -4.221288,0.254 -8.458894,1.15083 -12.255702,3.06903 -0.490866,0.248 -0.954659,0.54629 -1.431991,0.81942 -0.36004,0.26598 -0.72008,0.53194 -1.08012,0.7979 -2.813801,2.14069 0.21358,6.12 3.027381,3.97933 v 0 c 0.189294,-0.15197 0.378587,-0.30392 0.567884,-0.45587 3.404145,-2.02936 7.224339,-2.94291 11.158908,-3.20985 0.83274,0 1.66623,-0.0381 2.49822,-0.003 2.39726,0.10165 5.71015,0.52813 7.88774,1.62642 0.37137,0.1873 0.69442,0.45799 1.04163,0.68702 0.27448,0.29556 0.59193,0.55639 0.82344,0.8867 1.0612,1.51405 1.41609,3.71221 0.78451,5.46523 -0.20516,0.56944 -0.55476,1.07593 -0.83214,1.6139 -0.45092,0.57317 -0.85925,1.18256 -1.35275,1.71948 -2.33621,2.54182 -5.68777,4.77639 -9.0187,5.73783 -0.76407,0.22053 -1.56453,0.28633 -2.34679,0.4295 -0.77034,0.013 -1.54133,0.0731 -2.311003,0.0388 -2.84163,-0.12692 -5.953228,-0.87529 -8.197326,-2.72611 -0.55136,-0.45471 -0.992249,-1.02886 -1.488371,-1.54328 -0.426043,-0.63035 -0.906913,-1.2269 -1.278128,-1.89103 -0.681713,-1.21958 -1.32623,-2.85613 -1.523347,-4.25575 -0.261691,-1.85811 0.17236,-3.63529 0.925679,-5.31799 0.5309,-0.99333 1.105728,-2.2256 2.106798,-2.86152 0.09142,-0.0581 0.201102,-0.0805 0.301651,-0.12073 0.02389,-0.018 0.04779,-0.0359 0.07169,-0.0538 3.508909,0.43307 4.121364,-4.5293 0.612455,-4.96237 z" />
        <path
           style="opacity:1;fill:#000000;stroke:#000000;stroke-width:0.787;stroke-linejoin:round;paint-order:markers fill stroke"
           id="path145"
           d="m 132.69943,369.24649 c -0.91096,-0.0183 -1.47101,-0.1079 -2.38354,0.27752 -2.032,0.85826 -3.55046,2.56712 -4.6598,4.42278 -0.43616,0.72958 -0.75913,1.52114 -1.1387,2.28171 -1.46412,3.72713 -1.88238,7.29157 -0.81904,11.2059 0.68805,2.5328 1.19363,3.08697 2.47852,5.33125 0.59291,0.73945 1.11867,1.5382 1.77875,2.21837 2.03988,2.10206 4.65333,3.64368 7.45827,4.47222 0.91244,0.26953 1.84679,0.507 2.7958,0.57463 1.09457,0.078 2.19269,-0.094 3.28903,-0.14097 1.00582,-0.23884 2.04153,-0.37555 3.01747,-0.71652 2.82916,-0.98849 5.37604,-2.74095 7.25674,-5.07241 1.46326,-1.81396 1.7409,-2.73444 2.70285,-4.80552 0.24524,-0.84309 0.55894,-1.66923 0.73571,-2.52931 0.70067,-3.40889 0.22718,-7.15814 -1.49923,-10.20559 -0.44553,-0.78642 -1.04652,-1.47399 -1.56978,-2.21099 -0.69747,-0.63151 -1.33769,-1.33265 -2.0924,-1.8945 -3.79627,-2.82604 -8.51488,-3.64265 -13.07678,-4.26616 -0.72101,-0.0667 -1.44201,-0.13338 -2.16301,-0.20008 -3.52085,-0.32189 -3.97607,4.65733 -0.45522,4.97922 v 0 c 0.6494,0.0586 1.29881,0.11718 1.94821,0.17576 3.6041,0.48152 7.37264,1.01502 10.46994,3.0878 0.48134,0.32213 0.90046,0.72868 1.35069,1.09304 0.34729,0.43889 0.74382,0.84296 1.04187,1.3167 1.23727,1.96644 1.63112,4.51178 1.22958,6.78138 -0.10882,0.61507 -0.31695,1.20838 -0.47542,1.81258 -0.65897,1.5131 -0.82374,2.1241 -1.81133,3.46379 -1.19682,1.62354 -2.92655,2.89555 -4.80934,3.62463 -0.68914,0.26686 -1.42694,0.38516 -2.14041,0.57775 -0.66787,0.0732 -1.33208,0.2409 -2.00362,0.2196 -2.50109,-0.0792 -5.55894,-1.57768 -7.33165,-3.30544 -0.4953,-0.48273 -0.89178,-1.05743 -1.33767,-1.58615 -0.9617,-1.57292 -1.33517,-1.96122 -1.8795,-3.74943 -0.86114,-2.82906 -0.61205,-5.33448 0.41023,-8.07056 0.63199,-1.36039 0.70424,-1.7199 1.57402,-2.87412 0.2259,-0.29977 0.50619,-0.55446 0.75405,-0.83635 0.17839,-0.20288 0.29102,-0.41309 0.54283,-0.5189 3.48861,0.57409 4.30049,-4.35954 0.81188,-4.93363 z" />
        <path
           style="opacity:1;fill:#000000;stroke:#000000;stroke-width:0.787;stroke-linejoin:round;paint-order:markers fill stroke"
           id="path146"
           d="m 167.43937,359.32157 c -2.38172,0.13653 -4.66629,1.3335 -6.41702,2.92243 -0.45747,0.41518 -0.84779,0.89884 -1.27167,1.34824 -0.36072,0.58213 -0.80815,1.11879 -1.08214,1.74641 -1.33421,3.0563 -1.21024,6.72862 -0.29102,9.87538 0.23725,0.81217 0.59584,1.58388 0.89376,2.3758 0.43269,0.74369 0.78116,1.54327 1.29807,2.23108 2.5092,3.33877 6.44665,5.02536 10.35798,6.10571 0.88728,0.24508 1.7954,0.40724 2.69311,0.61087 3.16805,0.55038 6.46668,0.5951 9.50982,-0.59021 1.90698,-0.74279 2.25656,-1.16636 3.88547,-2.36704 0.52879,-0.54544 1.10062,-1.05225 1.58639,-1.63637 1.85299,-2.22811 3.06178,-5.05584 3.52104,-7.90996 0.12002,-0.74594 0.14,-1.50455 0.21,-2.25681 0.0287,-2.78146 -0.33647,-5.60015 -1.79452,-8.02939 -0.99657,-1.66037 -1.44457,-1.8831 -2.86028,-3.18625 -0.64469,-0.39494 -1.25673,-0.84897 -1.93406,-1.18485 -2.99227,-1.48389 -6.97741,-1.9366 -10.27892,-1.97044 -0.98858,-0.01 -1.97653,0.0541 -2.9648,0.0811 -3.56352,0.28382 -7.11904,0.89511 -10.51041,2.04864 -0.58098,0.19762 -1.14514,0.44165 -1.71771,0.66244 -3.29383,1.28479 -1.47686,5.94297 1.81697,4.65818 v 0 c 3.377,-1.33599 6.93494,-2.10312 10.55949,-2.37146 2.59103,-0.0839 4.64699,-0.11848 7.21788,0.31379 1.25053,0.21027 2.20606,0.3968 3.3536,0.89403 0.40012,0.17335 0.76806,0.41317 1.15209,0.61976 0.31383,0.25561 0.65429,0.48162 0.9415,0.76681 1.68009,1.66825 2.01615,4.02347 2.03602,6.28754 -0.035,0.52313 -0.0323,1.05015 -0.10491,1.5694 -0.35241,2.52074 -1.47573,4.86235 -3.26343,6.66964 -0.9333,0.75369 -1.20753,1.08022 -2.32032,1.56189 -2.2012,0.95284 -4.63668,0.86873 -6.95217,0.48956 -3.20473,-0.7008 -7.6679,-1.743 -9.85352,-4.41095 -0.36682,-0.44778 -0.61647,-0.97988 -0.92471,-1.46984 -0.22452,-0.55068 -0.49175,-1.08585 -0.67357,-1.65208 -0.53309,-1.66026 -0.67216,-3.38265 -0.48199,-5.11017 0.0429,-0.38975 0.0904,-0.78435 0.21239,-1.15699 0.10495,-0.32052 0.30758,-0.60032 0.46137,-0.90046 0.22487,-0.26371 0.42663,-0.54898 0.67461,-0.79108 0.87802,-0.85719 2.08704,-1.65314 3.31561,-1.84433 3.53554,0 3.53554,-4.99999 0,-4.99999 z" />
        <path
           style="opacity:1;fill:#000000;stroke:#000000;stroke-width:0.787;stroke-linejoin:round;paint-order:markers fill stroke"
           id="path147"
           d="m 200.30355,357.4511 c 4.0115,-2.22885 8.24136,-4.03971 12.43833,-5.88534 1.56599,-0.68956 3.11792,-1.40348 4.76356,-1.8782 3.38619,-1.01668 1.94837,-5.80551 -1.43783,-4.7888 v 0 c -1.83174,0.56465 -3.59827,1.2826 -5.33865,2.09008 -4.41816,1.94329 -8.87421,3.84815 -13.08072,6.22559 -2.99577,1.87757 -0.34047,6.11423 2.65531,4.23667 z" />
        <path
           style="opacity:1;fill:#000000;stroke:#000000;stroke-width:0.787;stroke-linejoin:round;paint-order:markers fill stroke"
           id="path148"
           d="m 204.71783,356.28987 c 2.00669,2.85782 3.8077,5.84578 5.52589,8.88336 1.71854,3.20778 3.32153,6.4765 4.88647,9.76151 0.33583,0.7134 0.18502,0.39045 0.45347,0.96832 1.48981,3.20633 6.02423,1.0994 4.53442,-2.1069 v 0 c -0.2824,-0.60767 -0.12474,-0.27019 -0.47399,-1.01193 -1.61567,-3.39103 -3.27064,-6.76526 -5.04922,-10.07425 -1.78465,-3.14999 -3.65133,-6.25101 -5.73212,-9.21646 -1.97733,-2.9309 -6.12225,-0.13455 -4.14492,2.79635 z" />
        <path
           style="opacity:1;fill:#000000;stroke:#000000;stroke-width:0.787;stroke-linejoin:round;paint-order:markers fill stroke"
           id="path149"
           d="m 226.21156,350.72513 c 1.61018,-1.35734 3.17344,-2.81639 5.03874,-3.82688 0.33103,-0.17931 0.68674,-0.30877 1.03011,-0.46316 0.21549,-0.0396 0.4275,-0.12692 0.64645,-0.11893 0.0483,0.003 0.0689,0.13354 0.0216,0.1433 -0.20438,0.0422 -0.42105,0.022 -0.62579,-0.0185 -0.19309,-0.0381 -0.42028,-0.36121 -0.55044,-0.2136 -0.18731,0.21244 -0.006,0.56642 -0.0104,0.84963 -0.008,0.55161 -0.016,1.10318 -0.024,1.65479 -0.24305,4.44426 -0.28813,8.8887 -0.0836,13.33436 0.12664,1.9082 0.16708,4.32784 2.05063,5.47934 1.66721,1.01922 2.42643,0.6097 4.18202,0.36324 0.7019,-0.26392 1.42055,-0.48699 2.1057,-0.79176 2.06138,-0.91697 3.78705,-2.00967 5.71562,-3.21953 3.12182,-1.95842 6.16741,-4.03992 9.2183,-6.10598 1.58269,-1.0837 3.15985,-2.17522 4.74997,-3.248 2.93075,-1.97754 0.13408,-6.12224 -2.79667,-4.14472 v 0 c -1.59231,1.07461 -3.17233,2.16694 -4.75699,3.25276 -2.98423,2.02113 -5.96537,4.05133 -9.0141,5.9748 -1.97539,1.24629 -2.98101,1.89542 -4.94833,2.83845 -0.42593,0.20417 -0.87017,0.36771 -1.30525,0.5516 -0.12961,0.0763 -0.39203,0.0784 -0.38883,0.22881 0.004,0.19611 0.30048,0.26165 0.40284,0.42897 0.0926,0.15134 0.16105,0.32758 0.16838,0.50482 0.003,0.0753 -0.1331,-0.0931 -0.15433,-0.16539 -0.0801,-0.27302 -0.11085,-0.55893 -0.14128,-0.84182 -0.0478,-0.4441 -0.062,-0.89117 -0.093,-1.33676 -0.20289,-4.35533 -0.14402,-8.70852 0.0888,-13.06255 0.003,-1.01402 0.0982,-3.21636 -0.25067,-4.20955 -0.27742,-0.78986 -0.6515,-1.59081 -1.24506,-2.18117 -0.94515,-0.94007 -2.33263,-1.07262 -3.55039,-0.91059 -0.52715,0.0701 -1.02289,0.29138 -1.53434,0.43709 -0.51943,0.25029 -1.05439,0.47059 -1.55829,0.75086 -2.06003,1.14572 -3.82831,2.72256 -5.6109,4.24384 -2.70268,2.27938 0.52083,6.10155 3.22351,3.82217 z" />
      </g>
    </g>
  </g>
</svg>
