<?xml version="1.0" encoding="UTF-8" standalone="no"?>
<!-- Created with Inkscape (http://www.inkscape.org/) -->

<svg
   width="86.362953mm"
   height="102.06283mm"
   viewBox="0 0 86.362953 102.06283"
   version="1.1"
   id="svg1"
   inkscape:version="1.3 (0e150ed6c4, 2023-07-21)"
   sodipodi:docname="title.svg"
   xmlns:inkscape="http://www.inkscape.org/namespaces/inkscape"
   xmlns:sodipodi="http://sodipodi.sourceforge.net/DTD/sodipodi-0.dtd"
   xmlns="http://www.w3.org/2000/svg"
   xmlns:svg="http://www.w3.org/2000/svg">
  <sodipodi:namedview
     id="namedview1"
     pagecolor="#ffffff"
     bordercolor="#666666"
     borderopacity="1.0"
     inkscape:showpageshadow="2"
     inkscape:pageopacity="0.0"
     inkscape:pagecheckerboard="0"
     inkscape:deskcolor="#d1d1d1"
     inkscape:document-units="mm"
     inkscape:zoom="0.94163159"
     inkscape:cx="622.32406"
     inkscape:cy="307.44508"
     inkscape:window-width="2400"
     inkscape:window-height="1271"
     inkscape:window-x="3191"
     inkscape:window-y="-9"
     inkscape:window-maximized="1"
     inkscape:current-layer="layer1" />
  <defs
     id="defs1" />
  <g
     inkscape:label="Layer 1"
     inkscape:groupmode="layer"
     id="layer1"
     transform="translate(-1.5147215,-114.62024)">
    <g
       id="g105"
       inkscape:export-filename="g105.png"
       inkscape:export-xdpi="134.81363"
       inkscape:export-ydpi="134.81363">
      <g
         id="g100"
         style="fill:#000000">
        <path
           style="fill:#000000;stroke:#000000;stroke-width:0.1;stroke-linejoin:round;stroke-opacity:0;paint-order:markers fill stroke"
           id="path92"
           d="m 18.669422,144.07148 c -0.620714,-0.0206 -1.284009,-0.11663 -1.867223,0.21299 -2.313047,1.30725 -3.075718,3.98762 -3.820022,6.33626 -0.632697,2.86466 -0.96852,5.72281 0.849148,8.27518 1.173323,1.64758 2.007568,1.90905 3.693929,2.92122 0.791825,0.24443 1.556797,0.60485 2.375476,0.73329 3.617733,0.56758 7.359267,-0.84602 9.916316,-3.40897 0.614498,-0.61591 1.085522,-1.35995 1.628283,-2.03993 0.372584,-0.76089 0.879219,-1.46973 1.117746,-2.28267 0.998349,-3.40251 -0.03476,-7.29097 -2.328474,-9.9346 -0.536331,-0.61814 -1.210744,-1.10142 -1.816116,-1.65214 -0.784275,-0.38043 -1.525571,-0.86659 -2.352826,-1.1413 -3.143637,-1.04396 -6.757839,-0.52424 -9.241467,1.74582 -0.520038,0.47531 -0.889505,1.09281 -1.334258,1.63922 -0.255478,0.57096 -0.510957,1.14192 -0.766436,1.71288 -0.814217,1.95883 1.955999,3.11031 2.770217,1.15147 v 0 c 0.125972,-0.34673 0.251943,-0.69346 0.377915,-1.0402 0.23792,-0.34492 0.422261,-0.73375 0.71376,-1.03476 1.643762,-1.69736 4.021751,-2.04081 6.238023,-1.44372 0.561478,0.15127 1.075713,0.44205 1.61357,0.66307 0.449208,0.377 0.946413,0.70328 1.347624,1.131 1.296683,1.38237 2.041798,3.22177 2.165295,5.1062 0.03964,0.60485 0.04594,1.22727 -0.09943,1.81574 -0.151162,0.61191 -0.516784,1.14981 -0.775176,1.72471 -0.391012,0.52325 -0.726869,1.09266 -1.173036,1.56975 -1.78723,1.91111 -4.520359,3.13124 -7.165824,2.83718 -0.588699,-0.0654 -1.145328,-0.30269 -1.717992,-0.45403 -0.485454,-0.26053 -1.002483,-0.46929 -1.456363,-0.7816 -0.72646,-0.49986 -1.487201,-1.27238 -1.814828,-2.11824 -0.59821,-1.54444 -0.183227,-3.25137 0.09875,-4.80098 0.396089,-1.29345 0.492587,-1.80768 1.075214,-2.99254 0.163649,-0.33281 0.391851,-0.63048 0.565235,-0.95832 0.06638,-0.12552 0.06772,-0.28366 0.152031,-0.39791 0.05903,-0.08 0.273321,-0.13508 0.376342,-0.16636 2.070205,0.46287 2.724804,-2.46484 0.654599,-2.92771 z" />
        <path
           style="fill:#000000;stroke:#000000;stroke-width:0.1;stroke-linejoin:round;stroke-opacity:0;paint-order:markers fill stroke"
           id="path93"
           d="m 39.584831,137.55282 c -0.300996,0.26484 -0.629944,0.50094 -0.902986,0.79452 -1.413357,1.51964 -2.299602,3.65532 -2.701714,5.66837 -0.119776,0.59962 -0.155032,1.21307 -0.23255,1.81962 0.01611,0.62543 -0.06358,1.26075 0.04836,1.87629 0.140737,0.77389 0.366516,1.54153 0.702543,2.25272 1.003927,2.12479 3.061427,4.23028 5.194553,5.23421 0.761434,0.35836 1.605783,0.50426 2.408672,0.75639 0.907367,-0.0671 1.835705,0.004 2.722099,-0.20134 2.974557,-0.68874 5.980166,-3.42889 7.049545,-6.28072 0.275622,-0.73503 0.343236,-1.53204 0.514856,-2.29807 -0.04064,-0.766 0.01071,-1.54249 -0.121928,-2.29801 -0.387104,-2.20488 -1.578256,-4.14453 -3.23818,-5.61765 -1.286719,-1.14191 -1.834396,-1.28199 -3.340351,-2.0082 -2.50711,-0.49386 -1.23556,-0.49165 -3.814453,0.0394 -2.041991,0.5747 -1.229241,3.46251 0.812747,2.88781 v 0 c 0.978146,-0.4963 0.412459,-0.36094 1.732412,-0.20894 0.4147,0.18497 0.848074,0.33275 1.244103,0.5549 1.765178,0.99017 3.145065,2.58281 3.612488,4.58186 0.114149,0.48819 0.112424,0.99639 0.168638,1.49459 -0.07288,0.48764 -0.06434,0.99463 -0.218641,1.46292 -0.680252,2.06446 -2.709448,4.01744 -4.749972,4.71047 -0.496282,0.16856 -1.029259,0.19863 -1.543889,0.29795 -0.543007,-0.13509 -1.114481,-0.18538 -1.629024,-0.40528 -1.909731,-0.81615 -4.05489,-2.97844 -4.508074,-5.06043 -0.100563,-0.46201 -0.04497,-0.94458 -0.06746,-1.41686 0.04948,-0.46221 0.064,-0.92951 0.148442,-1.38662 0.311859,-1.6882 1.034706,-3.32478 2.160246,-4.62384 1.856893,-1.02564 0.406416,-3.65169 -1.45048,-2.62604 z" />
        <path
           style="fill:#000000;stroke:#000000;stroke-width:0.1;stroke-linejoin:round;stroke-opacity:0;paint-order:markers fill stroke"
           id="path94"
           d="m 33.386231,160.69658 c -1.405613,2.33467 -2.137998,4.97482 -2.73194,7.611 -0.295243,2.10442 -0.617156,4.79146 1.1596,6.39819 0.370843,0.33535 0.845516,0.5339 1.268275,0.80085 0.527886,0.14004 1.04372,0.33801 1.583658,0.42012 3.202784,0.48701 6.779951,-0.75722 9.764533,-1.80534 1.820299,-0.63509 3.49055,-1.57329 5.107273,-2.60547 1.787969,-1.14156 0.173553,-3.67013 -1.614416,-2.52857 v 0 c -1.423281,0.90877 -2.884932,1.74824 -4.490111,2.30465 -2.830635,1.00167 -5.868993,2.10187 -8.909662,1.5835 -0.183366,-0.0567 -0.592087,-0.13777 -0.734255,-0.32859 -0.679458,-0.912 -0.293608,-2.57792 -0.207415,-3.5837 0.504415,-2.26733 1.116452,-4.53696 2.277946,-6.56903 1.200388,-1.74902 -1.273098,-3.44663 -2.473486,-1.69761 z" />
        <path
           style="fill:#000000;stroke:#000000;stroke-width:0.1;stroke-linejoin:round;stroke-opacity:0;paint-order:markers fill stroke"
           id="path95"
           d="m 15.902711,178.50018 c 0.320842,-0.7656 0.397551,-1.67708 1.360045,-1.768 1.721201,0.1084 3.264958,0.99586 4.766825,1.76305 1.843795,0.95167 3.691384,1.93642 5.679226,2.56092 1.413404,0.44404 1.972881,0.50761 3.430884,0.78759 2.402832,0.37392 4.839009,0.5328 7.269577,0.42497 1.528191,-0.0678 2.088875,-0.16224 3.601231,-0.3415 3.182498,-0.53008 6.404554,-1.12119 9.439502,-2.25344 0.633865,-0.23647 1.247825,-0.52321 1.871739,-0.78482 2.862654,-1.39571 5.509088,-3.27297 7.681521,-5.61292 0.363437,-0.39146 0.692489,-0.81349 1.038736,-1.22024 1.929035,-2.54721 2.627942,-5.60492 3.097411,-8.69718 0.141689,-0.67535 0.04122,-1.49687 0.412514,-2.12022 0.160631,-0.26968 0.600731,-0.41092 0.854557,-0.52977 1.011343,-0.39302 2.197222,-0.65175 3.197897,-0.0665 0.179297,0.10486 0.328141,0.25474 0.492212,0.38211 1.565016,1.50689 2.187305,3.657 2.767526,5.68704 0.637048,2.35946 0.870204,4.79378 0.96402,7.22765 0.08076,2.70063 -1.196237,5.04658 -2.476132,7.333 -1.626902,2.68947 -3.485354,5.26633 -5.743414,7.46618 -0.439407,0.42808 -0.908791,0.82426 -1.363186,1.2364 -2.687378,2.2223 -5.722514,4.00884 -8.897908,5.44126 -0.713629,0.32192 -1.444072,0.60518 -2.166107,0.90777 -2.507274,0.94976 -5.086697,1.77923 -7.788106,1.86523 -1.474893,0.0469 -2.051568,-0.0629 -3.50358,-0.21555 -3.330491,-0.44193 -6.167933,-2.02315 -9.04889,-3.63274 -3.16311,-1.84901 -6.372675,-3.61354 -9.630506,-5.28946 -1.688135,-0.93153 -3.511525,-1.62596 -5.134801,-2.67599 -0.9536,-0.61684 -1.088531,-0.7931 -1.91296,-1.53084 -1.273743,-1.2616 -1.941141,-2.83962 -2.326212,-4.55608 -0.186507,-0.3181 -0.03572,-1.79849 -0.208351,-0.68217 0.749399,-1.98454 -2.057165,-3.04435 -2.806564,-1.05981 v 0 c -0.04231,0.1963 -0.100875,0.38978 -0.126941,0.58889 -0.07915,0.60457 0.162182,1.23267 0.217905,1.82429 0.562325,2.40776 1.473586,4.36715 3.265111,6.13423 1.060111,0.92532 1.189385,1.1057 2.394267,1.8774 1.670373,1.06983 3.528885,1.80142 5.266353,2.74787 3.227606,1.6599 6.406309,3.40949 9.540032,5.24095 1.018537,0.56851 2.382879,1.34879 3.437707,1.86545 2.137209,1.04683 4.410742,1.79434 6.769793,2.13257 1.68474,0.16684 2.353897,0.29106 4.070572,0.21944 3.010874,-0.12562 5.892991,-1.01452 8.687303,-2.08791 0.771453,-0.32495 1.551868,-0.6294 2.314358,-0.97485 3.434408,-1.55602 6.710479,-3.50237 9.607457,-5.92187 0.504659,-0.46125 1.025729,-0.90515 1.513975,-1.38374 2.432164,-2.38404 4.442201,-5.16552 6.192967,-8.07604 1.566672,-2.8203 2.963262,-5.59513 2.853537,-8.91188 -0.107281,-2.6744 -0.370666,-5.34825 -1.078614,-7.939 -0.78808,-2.72411 -1.726176,-5.49216 -3.991583,-7.35721 -0.386202,-0.23787 -0.747536,-0.5219 -1.158611,-0.71361 -1.826572,-0.85184 -3.872232,-0.50852 -5.644031,0.27319 -0.767193,0.45468 -1.114044,0.5689 -1.690706,1.27532 -0.823362,1.00864 -0.96666,2.30788 -1.089361,3.55197 -0.379695,2.54045 -0.883531,5.08118 -2.421908,7.20741 -0.28852,0.34409 -0.561687,0.70167 -0.865566,1.03228 -1.900092,2.06721 -4.222819,3.72941 -6.730902,4.9741 -0.545539,0.2323 -1.081643,0.48816 -1.63662,0.69692 -2.847459,1.0711 -5.876372,1.61962 -8.863182,2.12613 -1.374301,0.16548 -1.915734,0.25613 -3.300719,0.32084 -2.224572,0.10394 -4.454475,-0.0376 -6.65489,-0.37286 -1.210773,-0.22676 -1.799066,-0.2999 -2.966894,-0.66024 -1.873354,-0.57805 -3.60423,-1.52324 -5.340275,-2.4137 -1.83246,-0.93215 -3.831366,-2.0624 -5.955962,-2.05856 -0.365466,7.9e-4 -0.727106,0.0747 -1.09066,0.11204 -0.328586,0.12474 -0.676395,0.20742 -0.985758,0.37422 -1.258116,0.67836 -1.843421,1.96639 -2.285282,3.25004 -0.707117,2 2.121305,3.00002 2.828422,1.00002 z" />
        <path
           style="fill:#000000;stroke:#000000;stroke-width:0.1;stroke-linejoin:round;stroke-opacity:0;paint-order:markers fill stroke"
           id="path96"
           d="m 22.604117,129.5681 c -1.913756,-0.92367 -4.05126,-1.51779 -6.186857,-1.5604 -0.520056,-0.0104 -1.039206,0.0481 -1.558809,0.0722 -0.559177,0.14267 -1.136109,0.22827 -1.677533,0.428 -1.655379,0.61067 -3.135844,1.75671 -4.2729198,3.09171 -1.0050531,1.18 -1.3899034,1.96858 -2.17062,3.29779 -1.8856711,3.60348 -2.9743296,7.52166 -3.6909726,11.50404 -0.3675923,3.00452 -0.4386417,6.10215 0.1967328,9.08006 0.109189,0.51175 0.2667685,1.01198 0.4001526,1.51796 0.7636788,2.6516 2.4485772,4.83882 3.9872504,7.07644 0.6441509,1.05623 1.4442998,2.21296 1.6938876,3.45365 0.092989,0.46224 0.015753,1.07561 -0.015412,1.52895 -0.3071294,1.93807 -1.1347151,3.73353 -1.8837836,5.53067 -1.0790859,2.3921 -1.6803391,4.84199 -2.0603903,7.42667 -0.2924527,2.29649 -0.3474744,4.61208 -0.2351476,6.92182 0.1312645,2.34399 0.6356551,4.63134 1.345457,6.86151 0.7673853,2.47047 2.213947,4.58054 3.8461125,6.55121 2.115944,2.46126 4.971435,3.98 7.837832,5.38846 3.093878,1.53245 6.351964,2.67422 9.622712,3.75904 3.141924,1.04248 6.333521,1.92283 9.498771,2.88974 2.75852,0.88012 5.563622,1.57426 8.427376,1.99831 1.99431,0.25405 4.02167,0.36546 6.02047,0.0729 1.650288,-0.24157 2.348664,-0.50054 3.955306,-0.96055 3.920903,-1.30512 7.606239,-3.1891 11.156511,-5.28273 2.703287,-1.62253 5.262896,-3.46589 7.706939,-5.45392 1.567305,-1.29222 3.083576,-2.6423 4.398653,-4.19545 0.890077,-1.05121 1.307563,-1.65732 2.12131,-2.76273 1.806318,-2.59561 3.165962,-5.48597 4.14941,-8.48781 0.208635,-0.63682 0.383024,-1.28436 0.574535,-1.92654 0.942628,-3.61117 1.445927,-7.31636 1.80544,-11.02511 0.221358,-2.77554 0.376393,-5.57874 0.01818,-8.35087 -0.07092,-0.54884 -0.182856,-1.09159 -0.274283,-1.63739 -0.474679,-2.09491 -1.257858,-4.11868 -2.312795,-5.99093 -0.654155,-1.16097 -1.007647,-1.60866 -1.767204,-2.69076 -1.419644,-1.82511 -2.905607,-3.66425 -4.769821,-5.06112 -0.348928,-0.26146 -0.72154,-0.48971 -1.082308,-0.73457 -2.240565,-1.31805 -4.776311,-1.93504 -7.265947,-2.5898 -1.58083,-0.40705 -3.202665,-0.86372 -4.50445,-1.90059 -0.268639,-0.21397 -0.504163,-0.46651 -0.756245,-0.69976 -0.930693,-0.98792 -1.721964,-2.1173 -2.26324,-3.36664 -0.300718,-0.6941 -0.357611,-1.00798 -0.555475,-1.73682 -0.394065,-2.10333 -0.726974,-4.20771 -1.342202,-6.26115 -0.518602,-1.56764 -1.205719,-3.08986 -2.281412,-4.35958 -0.242636,-0.28641 -0.514591,-0.54662 -0.771885,-0.81993 -1.776566,-1.72465 -4.049924,-2.68574 -6.343009,-3.51107 -1.894213,-0.67888 -3.83758,-1.16519 -5.825601,-1.46059 -2.513349,-0.29551 -5.049126,-0.30367 -7.576333,-0.32895 -2.173582,-0.028 -4.346808,0.0285 -6.519857,0.0674 -1.755074,0.03 -3.510413,0.0365 -5.265697,0.0404 -2.099518,-0.0853 -4.163807,0.2829 -6.202664,0.73846 -1.828147,0.45448 -3.639474,1.01516 -5.328312,1.85759 -1.892866,0.95763 -0.538572,3.63455 1.354294,2.67692 v 0 c 1.45608,-0.75189 3.053373,-1.1908 4.630727,-1.60727 1.825382,-0.41134 3.67162,-0.75045 5.552748,-0.66571 1.770891,-0.004 3.541834,-0.0106 5.312511,-0.0409 2.145207,-0.0383 4.290589,-0.0945 6.436323,-0.067 2.391306,0.0238 4.790519,0.0292 7.169766,0.29718 1.792867,0.26052 3.541734,0.70783 5.249944,1.31662 1.855343,0.66175 3.72178,1.39712 5.186606,2.75997 1.193737,1.2223 1.832875,2.33914 2.350117,3.97434 0.619749,2.02999 0.892725,4.12552 1.324152,6.19901 0.28643,1.00688 0.335963,1.31528 0.765273,2.27933 0.706382,1.58624 1.731925,3.01267 2.940648,4.25219 0.36849,0.32309 0.71615,0.67161 1.105469,0.96928 1.580263,1.20824 3.494074,1.81713 5.394867,2.29867 2.166554,0.56964 4.380672,1.08662 6.357117,2.17946 0.284208,0.188 0.578072,0.36215 0.85262,0.56399 1.658432,1.21924 2.954017,2.86733 4.218702,4.46836 0.633418,0.89558 1.007533,1.3775 1.550217,2.33182 0.911162,1.60228 1.600219,3.33225 2.024835,5.12526 0.08167,0.47185 0.181825,0.94087 0.245015,1.41555 0.343752,2.58218 0.183978,5.19508 -0.01746,7.78098 -0.339043,3.51762 -0.813425,7.03184 -1.695183,10.45958 -0.988375,3.34223 -2.22922,6.6294 -4.265295,9.49167 -0.757044,1.03142 -1.121151,1.56266 -1.942317,2.54196 -1.205571,1.43774 -2.612385,2.67293 -4.054628,3.86668 -2.325807,1.89559 -4.764995,3.64923 -7.337862,5.1969 -3.331408,1.96881 -6.788983,3.74145 -10.463921,4.98398 -1.294786,0.37768 -2.066819,0.6517 -3.389366,0.8546 -1.765146,0.2708 -3.555087,0.17057 -5.317437,-0.0528 -2.715831,-0.39635 -5.37192,-1.06807 -7.987511,-1.89938 -3.14262,-0.95977 -6.311154,-1.83435 -9.43093,-2.86813 -3.142029,-1.04154 -6.27369,-2.13323 -9.245946,-3.60502 -2.487259,-1.21726 -4.997926,-2.49536 -6.852408,-4.61343 -1.394408,-1.66796 -2.64142,-3.44751 -3.295325,-5.54737 -0.6380247,-1.97987 -1.0840413,-4.01324 -1.2063264,-6.09581 -0.1077156,-2.11537 -0.053188,-4.23629 0.2074913,-6.34026 0.3336792,-2.31313 0.8860268,-4.56905 1.8608601,-6.70515 0.882794,-2.11823 1.839519,-4.24149 2.111382,-6.54437 0.03787,-1.1523 0.120246,-1.47811 -0.138512,-2.6278 -0.331195,-1.47152 -1.275385,-2.93591 -2.064716,-4.19506 -1.3448815,-1.95576 -2.8545754,-3.85188 -3.5616829,-6.154 -0.1130384,-0.41249 -0.2473198,-0.81973 -0.3391151,-1.23746 -0.5797185,-2.63808 -0.5108371,-5.38948 -0.2021774,-8.05488 0.6466904,-3.6385 1.6325421,-7.21947 3.3300524,-10.5222 1.180046,-2.04519 2.369259,-4.03541 4.650566,-5.00805 0.335098,-0.14287 0.695784,-0.21609 1.043677,-0.32414 0.383667,-0.0258 0.766471,-0.0794 1.151001,-0.0774 1.726892,0.009 3.468195,0.48591 5.020316,1.21877 1.872801,0.99629 3.281782,-1.65225 1.408981,-2.64855 z" />
        <path
           style="fill:#000000;stroke:#000000;stroke-width:0.1;stroke-linejoin:round;stroke-opacity:0;paint-order:markers fill stroke"
           id="path97"
           d="m 4.55907,121.30543 c 0.6314596,-1.22891 1.3491866,-2.49276 2.3973086,-3.42175 0.1500823,-0.13303 0.3307742,-0.22687 0.4961612,-0.34031 0.062801,0.017 0.1527747,-0.004 0.1884045,0.0508 0.05328,0.0814 -0.1587489,0.21382 -0.1600023,0.26288 -0.00241,0.0945 0.055782,0.18091 0.089615,0.26924 0.070555,0.1842 0.1568728,0.36227 0.2233996,0.54797 0.093541,0.2611 0.1709899,0.52768 0.256485,0.79153 0.4490299,1.64148 0.891935,3.31384 1.8864834,4.72508 0.199291,0.28278 0.434855,0.53818 0.652283,0.80727 1.343528,1.40296 3.190494,2.04526 4.96006,2.72696 0.714069,0.29653 1.47363,0.49269 2.147803,0.87615 1.873409,0.99515 3.280773,-1.65425 1.407364,-2.6494 v 0 c -0.798681,-0.40958 -1.632312,-0.72303 -2.477194,-1.02639 -1.287763,-0.49557 -2.670271,-0.92836 -3.72921,-1.84287 -0.411802,-0.47553 -0.482363,-0.51126 -0.803468,-1.08162 -0.607753,-1.07952 -0.833361,-2.3174 -1.199323,-3.48761 -0.366355,-1.06911 -0.719877,-2.29233 -1.6223366,-3.06232 -0.7329451,-0.62536 -1.4789468,-0.88175 -2.4415652,-0.74556 -0.4117787,0.0582 -0.780378,0.2878 -1.1705672,0.4317 -0.2971787,0.23103 -0.6145379,0.4382 -0.8915363,0.69307 -1.126794,1.03677 -2.2702253,2.712 -2.8654684,4.11895 -0.1384618,0.32728 -0.2168403,0.67683 -0.3252604,1.01525 -0.2410791,2.10758 2.7394848,2.44852 2.9805639,0.34094 z" />
        <path
           style="fill:#000000;stroke:#000000;stroke-width:0.1;stroke-linejoin:round;stroke-opacity:0;paint-order:markers fill stroke"
           id="path98"
           d="m 25.069821,145.44302 c -1.680795,0.96613 -2.569962,2.65091 -3.259482,4.38968 -0.60663,1.77152 -0.790526,3.66012 -0.341997,5.49399 0.08837,0.36133 0.226748,0.70856 0.340123,1.06284 0.731023,1.58209 1.84735,2.97081 3.44351,3.73609 0.301427,0.14453 0.623924,0.24021 0.935886,0.36031 1.53137,0.44151 3.176581,0.49055 4.584694,-0.35887 0.245885,-0.14832 0.459816,-0.3441 0.689723,-0.51615 1.29339,-1.43787 1.660639,-3.29574 1.837426,-5.16064 0.04508,-0.71771 0.01746,-1.43611 -0.03681,-2.1521 -0.163719,-2.115 -3.15477,-1.88346 -2.991051,0.23153 v 0 c 0.04363,0.54885 0.06655,1.09955 0.04008,1.65011 -0.09042,1.06615 -0.278886,2.10808 -0.724439,3.08906 -0.69052,0.67478 -1.461786,0.62292 -2.362158,0.40216 -0.247478,-0.0844 -0.750454,-0.23559 -0.990345,-0.3869 -0.693121,-0.43717 -1.188742,-1.14855 -1.581714,-1.84702 -0.563371,-1.57 -0.578413,-2.92865 -0.04682,-4.51731 0.398596,-1.05416 0.864086,-2.15575 1.835345,-2.80888 1.886492,-0.97013 0.514521,-3.63803 -1.371971,-2.6679 z" />
        <path
           style="fill:#000000;stroke:#000000;stroke-width:0.1;stroke-linejoin:round;stroke-opacity:0;paint-order:markers fill stroke"
           id="path99"
           d="m 38.71781,146.18091 c 1.281686,-0.29175 2.582124,-0.42807 3.871372,-0.13665 1.285343,0.41968 1.867826,1.26171 2.384822,2.45526 0.437602,1.27526 0.890667,2.62819 0.714949,3.99177 -0.110294,0.53544 -0.275227,1.05755 -0.478345,1.56452 -0.781397,1.97216 2.007661,3.07722 2.789057,1.10506 v 0 c 0.302842,-0.77009 0.549913,-1.56306 0.675593,-2.38323 0.02146,-0.27071 0.06056,-0.5406 0.06434,-0.81214 0.02265,-1.62641 -0.500902,-3.22419 -1.046173,-4.73276 -0.177779,-0.36591 -0.328494,-0.74626 -0.533334,-1.09774 -0.878742,-1.50781 -2.304145,-2.56785 -3.974447,-3.03085 -0.308184,-0.0583 -0.613367,-0.1357 -0.924554,-0.17498 -1.464284,-0.18482 -2.945313,0.0582 -4.373486,0.3689 -2.038474,0.58704 -1.208273,3.46988 0.830202,2.88284 z" />
        <path
           style="fill:#000000;stroke:#000000;stroke-width:0.1;stroke-linejoin:round;stroke-opacity:0;paint-order:markers fill stroke"
           id="path100"
           d="m 28.615081,193.19585 c 1.347724,-1.25692 2.895325,-2.24756 4.566066,-3.01153 1.959186,-0.44132 3.225699,0.0183 4.933624,0.94201 1.271389,0.75628 2.328312,1.78984 3.279119,2.91063 1.04753,0.685 0.992161,0.91955 2.610506,2.6e-4 0.258604,-0.14688 0.717428,-1.3234 0.841425,-1.6039 0.387737,-0.87712 0.334553,-0.74393 0.77642,-1.62942 0.881301,-1.52385 2.087949,-2.86879 3.60008,-3.79228 0.331589,-0.20251 0.687096,-0.36296 1.030647,-0.54444 2.112841,-0.83191 4.348816,-1.46903 6.626582,-1.60965 0.392396,-0.0242 0.786175,-0.0131 1.179261,-0.0196 2.172198,0.0304 4.159046,0.82338 6.097336,1.72101 1.574517,0.71438 3.037912,1.6521 4.648293,2.28311 1.984383,0.74982 3.044785,-2.05653 1.060402,-2.80634 v 0 c -1.558869,-0.55234 -2.917457,-1.58143 -4.45145,-2.20062 -2.378403,-1.09453 -4.756825,-1.98024 -7.41856,-1.99648 -0.478676,0.012 -0.958323,0.003 -1.436031,0.0361 -2.664463,0.18255 -5.281044,0.92622 -7.733824,1.95412 -0.449823,0.24793 -0.915101,0.46969 -1.349472,0.7438 -1.91257,1.20691 -3.434874,2.93641 -4.539094,4.89472 -0.461158,0.92902 -0.450654,0.87902 -0.849982,1.78878 -0.177189,0.40368 -0.330451,0.65385 -0.192717,0.64918 1.688094,-0.0571 1.087191,-0.47873 1.784008,0.18628 -1.201586,-1.40612 -2.547731,-2.68815 -4.160919,-3.61756 -0.388043,-0.20163 -0.764752,-0.42675 -1.164132,-0.60487 -2.057649,-0.91764 -4.279252,-1.10394 -6.431979,-0.40728 -1.954485,0.91392 -3.780853,2.06329 -5.359254,3.54699 -1.546373,1.45214 0.507272,3.63904 2.053645,2.1869 z" />
      </g>
      <path
         style="fill:#f9f9f9;stroke:#000000;stroke-width:0.401381;stroke-linejoin:round;stroke-opacity:0;paint-order:markers fill stroke"
         d="M 165.59731,804.45792 C 153.53175,801.85428 110.991,789.02667 94.924496,783.14746 88.275242,780.7143 77.108672,775.81643 70.109897,772.2633 54.749553,764.46517 45.755221,756.23911 39.701718,744.45251 c -6.679967,-13.00639 -7.847026,-18.88214 -7.804584,-39.2935 0.04314,-20.74487 0.713735,-24.05171 9.260558,-45.66542 5.02455,-12.70638 5.463296,-14.52469 5.509372,-22.83271 0.05763,-10.39058 -0.446754,-11.60506 -12.339143,-29.71075 -9.13236,-13.90365 -10.608506,-18.44024 -11.238669,-34.53943 -0.568119,-14.5141 0.598569,-22.84103 5.282226,-37.70052 8.539137,-27.09149 20.886909,-40.59903 35.538961,-38.87697 3.128064,0.36765 8.187845,1.61882 11.243959,2.78039 7.602227,2.88946 10.937327,2.7406 13.11664,-0.58545 2.496308,-3.80985 0.607488,-7.4714 -5.105842,-9.89786 l -4.455942,-1.89244 8.965757,-1.25286 c 11.178146,-1.56203 68.371709,-1.66482 80.495079,-0.14468 16.8955,2.11852 34.61437,9.15331 41.78532,16.58972 5.39133,5.5909 7.87761,11.77415 11.47841,28.5461 3.51733,16.38324 7.09013,24.14047 14.84257,32.22611 6.37614,6.6502 12.41135,9.68346 28.82004,14.48479 17.60408,5.15111 21.135,6.83884 28.1444,13.45259 11.70348,11.04285 19.75918,23.47835 23.94484,36.96338 4.53704,14.61706 2.75609,48.478 -3.95018,75.10446 -5.36811,21.31342 -15.30705,39.4756 -29.2111,53.37966 -18.34245,18.34245 -51.07973,38.51109 -76.93703,47.39903 -11.42581,3.9274 -27.47258,4.49662 -41.49005,1.47177 z m 16.21898,-44.62995 c 23.49386,-3.81293 56.46839,-20.63255 74.12245,-37.80835 4.08864,-3.97788 8.38545,-7.7382 9.54847,-8.35628 1.16301,-0.61807 2.28217,-1.9941 2.48703,-3.05783 0.20486,-1.06372 2.96961,-5.7482 6.1439,-10.40995 12.17156,-17.87509 16.33516,-29.06291 16.33516,-43.89355 0,-25.68546 -8.77414,-50.98775 -20.33051,-58.62786 -3.91284,-2.58684 -5.49734,-2.96126 -12.51794,-2.95792 -6.60726,0.003 -8.87194,0.47572 -12.7229,2.65496 -6.87083,3.88819 -8.41642,6.66831 -10.64422,19.14628 -2.89855,16.23495 -5.493,22.23757 -13.14883,30.42168 -6.79574,7.26466 -14.52478,13.03165 -23.65111,17.64717 -18.10574,9.15674 -52.415,14.48558 -73.80459,11.46317 -12.12421,-1.71317 -14.06545,-2.37153 -31.833249,-10.79604 -16.668247,-7.90315 -23.719347,-9.87752 -30.120137,-8.43391 -4.830882,1.08954 -9.705998,5.47843 -11.453551,10.3112 -1.022624,2.82801 -1.845897,3.51371 -4.21871,3.51371 -6.564554,0 -7.687957,7.61763 -3.063699,20.77447 4.59987,13.08745 13.548873,21.03899 36.70513,32.61394 6.425018,3.21162 21.042366,11.05851 32.483006,17.43752 11.44063,6.37901 23.84785,12.70908 27.5716,14.06683 13.2588,4.8344 28.92673,6.43077 42.1127,4.29076 z m -27.76277,-96.69951 c 14.55911,-3.80979 33.14962,-12.6326 35.84346,-17.01082 1.63911,-2.664 -0.0601,-7.28183 -3.10554,-8.43971 -2.28459,-0.86859 -4.08556,-0.29057 -11.38669,3.65462 -12.0934,6.53469 -27.95437,11.46791 -37.44666,11.64698 -9.45294,0.17834 -11.05071,-0.95434 -11.05071,-7.83399 0,-6.07038 4.28066,-21.3919 8.06085,-28.85175 3.15421,-6.22453 2.78218,-9.8905 -1.18724,-11.69908 -4.26505,-1.94329 -7.34696,0.26199 -10.96393,7.8453 -7.51439,15.75461 -10.33718,36.78284 -5.96028,44.40082 4.86006,8.45894 19.46482,10.92768 37.19674,6.28763 z M 90.754949,614.27828 c 2.603725,-0.60001 7.063508,-2.26095 9.910631,-3.69098 2.84712,-1.43003 6.73927,-2.60005 8.64923,-2.60005 7.97174,0 14.51949,-8.11979 16.48888,-20.44768 0.96893,-6.06524 0.82366,-8.67889 -0.95601,-17.20122 -2.53615,-12.14483 -5.02202,-17.26825 -11.91459,-24.55613 -7.63076,-8.0684 -13.758951,-10.51425 -26.381194,-10.52914 -12.221986,-0.0144 -17.36022,2.08364 -25.526216,10.42297 -11.206824,11.4447 -17.007913,33.01149 -12.820894,47.66443 4.377108,15.31818 24.330146,25.13654 42.550163,20.9378 z m 92.487221,-26.73427 c 3.08244,-1.8983 8.09612,-5.73466 11.14149,-8.52523 15.33368,-14.05072 15.34063,-37.10208 0.0156,-51.59589 -9.2109,-8.71129 -17.85319,-11.887 -26.32413,-9.67312 -5.02155,1.31238 -7.18415,3.41914 -7.18415,6.99866 0,4.29955 2.88823,5.99495 8.93759,5.24641 4.83877,-0.59874 6.00157,-0.30601 11.20201,2.82011 13.58466,8.16609 16.77738,25.41528 6.52269,35.23989 l -3.03562,2.90831 -0.6986,-4.65859 c -0.92433,-6.16386 -5.97362,-16.54675 -9.78535,-20.12169 -4.38379,-4.11144 -10.31874,-6.27287 -17.50406,-6.37475 -3.44219,-0.0488 -6.25674,-0.3795 -6.25455,-0.73487 0.007,-1.19903 4.47252,-8.06521 6.49002,-9.97987 2.4365,-2.31229 2.59338,-6.38384 0.33306,-8.64416 -6.70927,-6.70928 -18.64589,7.14607 -21.7618,25.25985 -2.25911,13.13298 0.51814,22.28328 9.71468,32.00727 8.05082,8.51255 16.14588,11.96038 30.85074,13.13988 0.95477,0.0766 4.25797,-1.41391 7.34041,-3.31221 z"
         id="path101"
         transform="scale(0.26458333)" />
      <path
         style="fill:#000000;stroke:#000000;stroke-width:0.401381;stroke-linejoin:round;stroke-opacity:0;paint-order:markers fill stroke"
         d="m 71.987855,612.88663 c -10.181046,-3.33685 -18.918816,-10.49764 -22.17662,-18.17421 -3.53644,-8.33314 -1.325705,-26.61115 4.624123,-38.23152 3.316175,-6.47668 11.032229,-14.25653 17.090227,-17.23152 5.128829,-2.51868 7.309348,-2.94622 15.026311,-2.94622 7.511458,0 10.007455,0.46304 14.867814,2.75817 11.97728,5.65585 18.77506,15.34012 22.38813,31.89462 1.6561,7.58799 1.87287,10.73027 1.07988,15.65426 -2.13417,13.25198 -6.47093,18.59465 -16.5651,20.40734 -2.33637,0.41956 -7.26231,2.03423 -10.946521,3.58815 -8.142654,3.43439 -18.915824,4.40228 -25.388244,2.28093 z m 17.469244,-9.81269 c 2.302701,-0.6172 2.250972,-0.77637 -1.717471,-5.28476 -5.171153,-5.87474 -6.919973,-11.99952 -6.278828,-21.98992 0.39509,-6.15633 1.230513,-9.12795 4.057085,-14.43114 3.648554,-6.84539 8.693898,-11.72303 12.285111,-11.87676 4.273484,-0.18294 -5.286625,-3.2241 -10.256189,-3.2626 -8.718785,-0.0675 -11.487931,0.9899 -13.176692,5.03167 -1.119512,2.67937 -2.172351,3.62749 -4.028126,3.62749 -2.517839,0 -2.688984,0.22246 -8.404137,10.924 -2.64747,4.95735 -4.625019,17.05764 -3.643117,22.29162 1.601568,8.53709 12.011051,15.61861 22.947229,15.61088 3.212509,-0.002 6.90932,-0.29048 8.215135,-0.64048 z m 16.816891,-10.22 c 3.29656,-3.89774 8.42966,-14.4162 7.49255,-15.35332 -0.33825,-0.33824 -0.90998,0.28973 -1.27052,1.3955 -1.88878,5.79273 -2.97806,7.76381 -6.64061,12.01635 l -4.00209,4.64677 -3.918948,-3.44089 c -4.516892,-3.96588 -6.614141,-10.05341 -5.615376,-16.29934 0.905632,-5.66351 5.239646,-13.87254 8.426554,-15.96068 1.45395,-0.95267 2.7978,-2.79082 2.98634,-4.08479 0.30401,-2.08654 0.66528,-1.86368 3.19393,1.9703 1.56813,2.37763 3.56589,6.65034 4.43947,9.49491 1.0865,3.53788 1.60842,4.33312 1.65192,2.51698 0.10006,-4.17714 -4.57085,-12.91844 -9.07798,-16.98883 -2.26188,-2.04271 -3.51514,-3.02239 -2.78502,-2.17707 2.27711,2.63639 1.47901,5.48916 -2.84937,10.1849 -4.005398,4.34534 -7.513097,12.73452 -7.499075,17.93514 0.0128,4.74853 2.502167,10.75814 5.838269,14.09424 4.377476,4.37747 5.962856,4.38567 9.629956,0.0498 z"
         id="path102"
         transform="scale(0.26458333)" />
      <path
         style="fill:#000000;stroke:#000000;stroke-width:0.401381;stroke-linejoin:round;stroke-opacity:0;paint-order:markers fill stroke"
         d="m 165.51831,577.09302 c -7.38759,-2.14056 -18.43319,-15.0469 -18.43319,-21.53845 0,-2.20794 0.64249,-2.71247 4.22488,-3.31771 8.32894,-1.40717 14.69641,1.71614 17.65652,8.6607 2.16168,5.07139 3.75002,13.10418 3.03598,15.35395 -0.69381,2.18599 -1.48823,2.28909 -6.48419,0.84151 z"
         id="path103"
         transform="scale(0.26458333)" />
      <path
         style="fill:#000000;stroke:#000000;stroke-width:0.401381;stroke-linejoin:round;stroke-opacity:0;paint-order:markers fill stroke"
         d="M 83.52312,711.71163 C 74.556137,706.9395 65.393924,701.48616 63.162648,699.5931 c -3.923735,-3.32898 -8.720268,-11.6097 -10.10925,-17.45258 -0.597446,-2.51321 -0.334794,-2.88055 2.278011,-3.18596 2.20428,-0.25766 3.667838,-1.55728 5.770534,-5.12415 2.505053,-4.24941 3.211078,-4.75914 6.371738,-4.60027 1.954987,0.0983 10.579585,3.58965 19.165774,7.75862 17.253735,8.37745 27.345625,11.10617 45.564275,12.31999 17.43065,1.16133 46.15945,-3.49436 64.10644,-10.38885 10.79847,-4.14833 24.95877,-13.6749 33.39573,-22.46754 10.03511,-10.45815 13.9587,-20.06908 17.71837,-43.40153 0.58661,-3.64047 1.04589,-4.0823 5.63853,-5.42436 6.50087,-1.89967 10.08539,-0.6637 14.08406,4.8563 6.33507,8.74533 10.66733,25.79214 10.8677,42.76287 0.10434,8.83735 -0.28195,11.60025 -2.30139,16.46079 -2.70705,6.51553 -10.60659,20.10709 -14.46333,24.88488 l -2.51382,3.11416 -10.69488,-5.03057 c -18.43792,-8.67268 -32.34894,-9.99164 -50.88649,-4.82474 -16.31463,4.5473 -26.47635,11.57924 -33.74094,23.34881 l -3.86862,6.26765 -3.79205,-3.32948 c -6.20027,-5.4439 -14.53141,-8.73028 -23.33546,-9.20512 -9.46163,-0.5103 -13.89844,0.99753 -24.57268,8.3509 -4.2114,2.90119 -7.73834,5.23673 -7.83763,5.1901 -0.0993,-0.0466 -7.517166,-3.98925 -16.48415,-8.76139 z"
         id="path104"
         transform="scale(0.26458333)" />
      <path
         style="fill:#ff0000;stroke:#000000;stroke-width:0.401381;stroke-linejoin:round;stroke-opacity:0;paint-order:markers fill stroke"
         d="m 152.39506,746.52429 c -7.03993,-1.94362 -16.28372,-6.16021 -29.47906,-13.44697 -9.13247,-5.04316 -9.71429,-5.56002 -8.17424,-7.26175 0.91193,-1.00768 4.54162,-3.1262 8.06597,-4.70784 4.94452,-2.21897 7.28296,-2.71154 10.23956,-2.15688 5.94326,1.11497 13.76269,5.52387 18.88944,10.65062 6.22498,6.22498 8.01831,7.10191 11.81609,5.778 2.37159,-0.82675 3.96985,-2.88636 7.01428,-9.03904 7.19534,-14.54154 14.8931,-20.53157 31.9767,-24.88279 9.29559,-2.3676 19.09392,-2.73888 25.58329,-0.96942 6.27458,1.7109 21.77072,8.49925 21.77072,9.53704 0,1.32898 -12.25958,11.30835 -20.17774,16.4248 -10.37759,6.70564 -23.3272,12.90625 -35.94685,17.21229 -10.00272,3.4131 -12.72467,3.89527 -23.52439,4.16712 -8.49464,0.21382 -13.99112,-0.18354 -18.05377,-1.30518 z"
         id="path105"
         transform="scale(0.26458333)" />
    </g>
    <path
       d="m 85.607178,150.79906 c 1.736866,-0.002 3.47369,1.5e-4 5.210534,-0.0145 4.848457,-0.0941 9.696468,-0.21948 14.545368,-0.29248 4.23244,-0.0409 8.46265,-0.17157 12.69431,-0.25477 4.31716,-0.0718 8.63512,-0.0958 12.9527,-0.0605 1.31776,0.016 2.63436,0.0587 3.95015,0.11937 1.31579,0.0607 2.6311,0.13967 3.94549,0.22893 2.6288,0.17851 5.25498,0.39792 7.88169,0.59428 2.85837,0.21656 5.7208,0.3704 8.58449,0.48782 2.86369,0.11742 5.7288,0.19869 8.59379,0.27079 2.59232,0.08 5.18514,0.0953 7.77782,0.0811 2.59268,-0.0142 5.1854,-0.0581 7.77782,-0.0977 2.68011,-0.0482 5.36049,-0.0671 8.04085,-0.0713 2.68037,-0.004 5.3605,0.006 8.04086,0.0165 1.48706,-0.006 2.9734,-0.0379 4.45916,-0.0868 1.48576,-0.0489 2.97106,-0.11488 4.45606,-0.1881 2.96999,-0.14645 5.93884,-0.32289 8.90901,-0.45527 2.70006,-0.12044 5.40196,-0.1861 8.1039,-0.23306 2.70194,-0.047 5.4041,-0.0751 8.10597,-0.12041 1.58223,-0.0365 3.16647,-0.0745 4.74803,-0.15348 1.58155,-0.0789 3.16068,-0.19904 4.73252,-0.39946 0.97823,-0.12473 1.58107,-0.21766 2.1792,-0.32659 0.59813,-0.10893 1.19147,-0.23386 2.14922,-0.4222 0.78656,-0.18006 1.56949,-0.38099 2.34611,-0.60461 0.77663,-0.22363 1.54681,-0.46989 2.30839,-0.74053 0.76158,-0.27063 1.51425,-0.56568 2.25567,-0.88676 0.74143,-0.32108 1.47182,-0.66839 2.18798,-1.04335 0.58423,-0.30589 1.14821,-0.64869 1.72238,-0.97307 0.7955,-0.51542 1.57669,-1.05495 2.34094,-1.6185 0.76425,-0.56356 1.51157,-1.15085 2.23914,-1.76165 0.72757,-0.61081 1.43536,-1.24503 2.1208,-1.90221 0.68545,-0.65718 1.34856,-1.33751 1.98645,-2.04019 0.52629,-0.57975 1.01453,-1.19264 1.52187,-1.78904 0.46062,-0.58444 0.90762,-1.18025 1.33945,-1.78645 0.43183,-0.6062 0.8488,-1.22313 1.24902,-1.85053 0.40022,-0.62741 0.7835,-1.26501 1.14928,-1.91307 0.36579,-0.64806 0.71378,-1.30639 1.04232,-1.97455 0.39642,-0.80625 0.62408,-1.30834 0.83405,-1.81643 0.20997,-0.50809 0.40259,-1.02251 0.72916,-1.8526 0.30031,-0.9886 0.57472,-1.9906 0.81545,-3.0024 0.24074,-1.0118 0.44762,-2.03299 0.61185,-3.0608 0.16424,-1.0278 0.28577,-2.0619 0.35657,-3.09851 0.0708,-1.03662 0.0907,-2.07581 0.0512,-3.11403 -0.0314,-0.82309 -0.14874,-1.64052 -0.22324,-2.46083 -0.11164,-0.74688 -0.25365,-1.4891 -0.42943,-2.22157 -0.17579,-0.73246 -0.38534,-1.45552 -0.63201,-2.16524 -0.24666,-0.70972 -0.53045,-1.40596 -0.85473,-2.08463 -0.32427,-0.67866 -0.6895,-1.33991 -1.09812,-1.9792 -0.46532,-0.72802 -0.80842,-1.19083 -1.17771,-1.63246 -0.36928,-0.441636 -0.76454,-0.862058 -1.33428,-1.503787 -0.70926,-0.690948 -1.45634,-1.335959 -2.23397,-1.939934 -0.77764,-0.603975 -1.58568,-1.166717 -2.41794,-1.693436 -0.83227,-0.52672 -1.68846,-1.017215 -2.5616,-1.476396 -0.87315,-0.459182 -1.76312,-0.886933 -2.66341,-1.288294 -0.78011,-0.34778 -1.57931,-0.651417 -2.36885,-0.977201 -1.07224,-0.399149 -2.15826,-0.759438 -3.25458,-1.084171 -1.09632,-0.324734 -2.20301,-0.614129 -3.31762,-0.871265 -1.11462,-0.257136 -2.23701,-0.482156 -3.36414,-0.678512 -1.12713,-0.196355 -2.25921,-0.364036 -3.39307,-0.506429 -1.08529,-0.136292 -2.17483,-0.234653 -3.26234,-0.351916 -1.77559,-0.158696 -3.55271,-0.294403 -5.33094,-0.413928 -1.77823,-0.119526 -3.55773,-0.222827 -5.33766,-0.315743 -3.55985,-0.185832 -7.12211,-0.330996 -10.68307,-0.485759 -2.58167,-0.122357 -5.16318,-0.24675 -7.74526,-0.358118 -2.58208,-0.111367 -5.16468,-0.209774 -7.74836,-0.280603 -2.216,-0.05687 -4.43215,-0.08187 -6.64869,-0.09147 -2.21655,-0.0096 -4.43322,-0.0035 -6.64973,10e-4 -1.29393,-0.01766 -2.58728,-0.006 -3.87935,0.02894 -1.29206,0.03494 -2.58332,0.09288 -3.87366,0.167948 -2.58068,0.150139 -5.15767,0.368316 -7.73235,0.604097 -1.35074,0.12809 -2.69699,0.288411 -4.03903,0.476457 -1.34203,0.188046 -2.68011,0.403366 -4.01422,0.640788 -1.33411,0.237422 -2.66453,0.497378 -3.99149,0.773596 -1.32696,0.276218 -2.65023,0.568898 -3.97082,0.873332 -1.23529,0.287989 -2.46355,0.603059 -3.68349,0.945162 -1.21995,0.342102 -2.43183,0.711386 -3.63492,1.106909 -1.2031,0.395523 -2.39748,0.817305 -3.58221,1.265556 -1.18474,0.44825 -2.35999,0.922882 -3.52485,1.423169 -0.76759,0.35681 -1.52152,0.738956 -2.26498,1.140499 -0.74347,0.401542 -1.47631,0.822707 -2.20193,1.256254 -1.45126,0.867093 -2.87305,1.78548 -4.2907,2.704227 -1.38401,0.898188 -2.7521,1.820828 -4.09691,2.776058 -1.3448,0.95522 -2.66635,1.94272 -3.95738,2.97036 -1.11469,0.91916 -2.19185,1.8808 -3.24269,2.87062 -1.05085,0.98982 -2.07542,2.00771 -3.08509,3.03961 -0.92021,0.93787 -1.81593,1.89836 -2.69182,2.87631 -0.87589,0.97795 -1.73165,1.9737 -2.57245,2.98277 -0.48479,0.58055 -0.96201,1.16781 -1.42266,1.76733 -0.46064,0.59952 -0.9048,1.21098 -1.32498,1.8402 -0.31355,0.54775 -0.6082,1.1041 -0.91157,1.65519 -0.30338,0.5511 -0.61554,1.09707 -0.96428,1.62419 -0.35081,0.49307 -0.72964,0.96366 -1.12345,1.42162 -0.39381,0.45797 -0.80253,0.9033 -1.2144,1.34514 -0.34006,0.36082 -0.67838,0.72454 -0.99477,1.10536 -0.31638,0.38081 -0.61085,0.77881 -0.86299,1.20768 -0.0479,0.10225 -0.10046,0.20265 -0.14366,0.30695 -0.0136,0.0329 -0.12386,0.451 -0.15658,0.63511 0.0552,0.0932 0.12253,0.17974 0.15709,0.28267 0.0598,0.17809 0.0861,0.36791 0.0724,0.56069 -0.0138,0.19277 -0.0678,0.38844 -0.17002,0.57774 -0.10219,0.1893 -0.25243,0.37235 -0.45785,0.54002 -0.82775,0.67015 -1.60535,1.3994 -2.37246,2.13992 -0.76712,0.74052 -1.52388,1.49263 -2.30994,2.20865 -1.866826,1.799 -3.728781,3.60552 -5.540747,5.46013 -0.905984,0.92731 -1.79944,1.86694 -2.674773,2.82309 -0.875332,0.95615 -1.732344,1.92889 -2.565734,2.92385 -1.017124,1.2267 -2.005172,2.47726 -3.004468,3.71863 z"
       style="fill:#ffffff;stroke:#000000;stroke-width:3;stroke-linejoin:round;stroke-dasharray:none;stroke-opacity:1;paint-order:markers fill stroke"
       id="path110" />
  </g>
</svg>
